M48
; DRILL file {KiCad 7.0.2} date Sun Jun  2 17:27:19 2024
; FORMAT={-:-/ absolute / metric / decimal}
; #@! TF.CreationDate,2024-06-02T17:27:19+02:00
; #@! TF.GenerationSoftware,Kicad,Pcbnew,7.0.2
; #@! TF.FileFunction,Plated,1,4,PTH
FMAT,2
METRIC
; #@! TA.AperFunction,Plated,PTH,ViaDrill
T1C0.300
; #@! TA.AperFunction,Plated,PTH,ComponentDrill
T2C0.750
; #@! TA.AperFunction,Plated,PTH,ComponentDrill
T3C1.200
%
G90
G05
T1
X104.2Y-125.5
X104.4Y-91.3
X104.4Y-121.9
X105.2Y-81.2
X105.2Y-81.8
X105.2Y-83.9
X106.4Y-128.6
X107.6Y-112.6
X107.8Y-91.3
X108.2Y-84.5
X108.2Y-86.0
X108.7Y-118.1
X109.3Y-138.2
X109.8Y-84.5
X109.8Y-86.0
X110.4Y-91.3
X110.9Y-115.0
X111.7Y-76.4
X111.7Y-78.2
X112.0Y-96.0
X112.0Y-98.1
X112.9Y-103.7
X112.9Y-104.3
X114.3Y-96.0
X114.3Y-98.1
X114.3Y-105.7
X114.3Y-106.8
X114.3Y-108.0
X114.3Y-109.1
X114.5Y-76.4
X114.5Y-78.2
X116.0Y-81.0
X116.0Y-81.8
X116.1Y-87.4
X116.5Y-64.2
X116.8Y-149.4
X119.3Y-146.4
X121.0Y-74.5
X121.1Y-84.7
X121.4Y-133.8
X122.8Y-74.5
X122.8Y-84.7
X123.7Y-136.6
X124.6Y-68.8
X124.6Y-69.4
X125.2Y-68.8
X125.2Y-69.4
X126.25Y-142.65
X126.3Y-140.9
X127.0Y-71.0
X127.0Y-72.7
X127.2Y-154.8
X127.6Y-67.3
X128.4Y-142.2
X128.8Y-70.5
X128.8Y-71.4
X128.8Y-73.5
X128.8Y-74.3
X129.1Y-68.8
X129.1Y-69.4
X129.7Y-68.8
X129.7Y-69.4
X131.7Y-156.5
X131.8Y-151.3
X131.8Y-153.0
X132.083Y-149.975
X133.5Y-151.3
X134.6Y-63.0
X134.6Y-63.9
X134.8Y-67.7
X139.2Y-68.7
X140.6Y-68.7
X140.629Y-70.371
X142.1Y-68.7
X142.1Y-70.4
X144.5Y-66.9
X146.8Y-65.0
X149.5Y-65.7
X153.32Y-68.5
X153.745Y-66.7
X155.22Y-68.6
X155.417Y-66.695
X155.77Y-70.2
X155.77Y-72.4
X156.052Y-66.684
X157.42Y-69.7
X157.82Y-68.6
X157.92Y-66.7
X159.42Y-66.7
X159.42Y-68.6
X159.42Y-69.9
X170.1Y-155.5
X186.0Y-108.5
X186.0Y-109.3
X186.0Y-110.7
X186.0Y-111.6
X187.2Y-132.7
X189.2Y-136.2
X189.2Y-137.3
X189.8Y-128.6
X190.1Y-136.2
X190.5Y-128.6
X191.3Y-133.3
X192.3Y-142.4
X194.7Y-126.4
T2
G00X152.3Y-62.463
M15
G01X152.3Y-61.137
M16
G05
G00X160.94Y-62.463
M15
G01X160.94Y-61.137
M16
G05
T3
G00X152.503Y-67.288
M15
G01X152.503Y-66.412
M16
G05
G00X160.751Y-67.245
M15
G01X160.751Y-66.37
M16
G05
T0
M30
