%TF.GenerationSoftware,KiCad,Pcbnew,7.0.2*%
%TF.CreationDate,2024-06-02T17:27:24+02:00*%
%TF.ProjectId,Podgrzewacz,506f6467-727a-4657-9761-637a2e6b6963,rev?*%
%TF.SameCoordinates,Original*%
%TF.FileFunction,Copper,L4,Bot*%
%TF.FilePolarity,Positive*%
%FSLAX46Y46*%
G04 Gerber Fmt 4.6, Leading zero omitted, Abs format (unit mm)*
G04 Created by KiCad (PCBNEW 7.0.2) date 2024-06-02 17:27:24*
%MOMM*%
%LPD*%
G01*
G04 APERTURE LIST*
%TA.AperFunction,ComponentPad*%
%ADD10O,1.300000X2.600000*%
%TD*%
%TA.AperFunction,ComponentPad*%
%ADD11O,1.600000X2.600000*%
%TD*%
%TA.AperFunction,ViaPad*%
%ADD12C,0.500000*%
%TD*%
G04 APERTURE END LIST*
D10*
%TO.P,J1,P1,SHIELD*%
%TO.N,GND*%
X160940000Y-61800000D03*
%TO.P,J1,P2,SHIELD*%
X152300000Y-61800000D03*
D11*
%TO.P,J1,P3,SHIELD*%
X160750903Y-66807377D03*
%TO.P,J1,P4,SHIELD*%
X152503200Y-66850000D03*
%TD*%
D12*
%TO.N,VOUT*%
X114500000Y-78200000D03*
X112000000Y-98100000D03*
X112000000Y-96000000D03*
X111700000Y-76400000D03*
X114300000Y-96000000D03*
X114500000Y-76400000D03*
X114300000Y-98100000D03*
X111700000Y-78200000D03*
%TO.N,+3.3V*%
X122800000Y-84700000D03*
X121100000Y-84700000D03*
X122800000Y-74500000D03*
X121000000Y-74500000D03*
%TO.N,Net-(U1-SW)*%
X129100000Y-69400000D03*
X129700000Y-68800000D03*
X124600000Y-68800000D03*
X125200000Y-69400000D03*
X129700000Y-69400000D03*
X124600000Y-69400000D03*
X129100000Y-68800000D03*
X125200000Y-68800000D03*
%TO.N,Vbus*%
X140600000Y-68700000D03*
X155416812Y-66694541D03*
X142100000Y-70400000D03*
X105200000Y-83900000D03*
X140628602Y-70371398D03*
X155220000Y-68600000D03*
X142100000Y-68700000D03*
X157920000Y-66700000D03*
X157820000Y-68600000D03*
%TO.N,CC2*%
X157420000Y-69700000D03*
X156052076Y-66684497D03*
%TO.N,SensorIN*%
X192300000Y-142400000D03*
%TO.N,Net-(IC1-VCC)*%
X134600000Y-63000000D03*
X105200000Y-81800002D03*
X105200000Y-81200000D03*
X134600000Y-63900000D03*
%TO.N,Net-(Q3-G)*%
X134800000Y-67700000D03*
X139200000Y-68700000D03*
%TO.N,SensorOUT*%
X187200000Y-132700000D03*
X116800000Y-149400000D03*
%TO.N,85DEG*%
X126250001Y-142649999D03*
X104200002Y-125500000D03*
%TO.N,GND*%
X112900000Y-103700000D03*
X153320000Y-68500000D03*
X116000000Y-81800000D03*
X131700000Y-156500000D03*
X153745001Y-66700000D03*
X108700000Y-118100000D03*
X127000000Y-72700000D03*
X116100000Y-87400000D03*
X132082791Y-149974500D03*
X186000000Y-111600000D03*
X127000000Y-71000000D03*
X108200000Y-86000000D03*
X119300000Y-146400000D03*
X108200000Y-84500000D03*
X170100000Y-155500000D03*
X109800000Y-84500000D03*
X144500000Y-66900000D03*
X186000000Y-110700000D03*
X189200000Y-136200000D03*
X159420000Y-66700000D03*
X121400000Y-133800000D03*
X128400000Y-142200000D03*
X110400000Y-91300000D03*
X128800000Y-74300000D03*
X123700000Y-136600000D03*
X128800000Y-70500000D03*
X186000000Y-108500000D03*
X114300000Y-109100000D03*
X107600000Y-112600000D03*
X104400000Y-91300000D03*
X116500000Y-64200000D03*
X127200000Y-154800000D03*
X109800000Y-86000000D03*
X155770500Y-72400000D03*
X159420000Y-68600000D03*
X104400000Y-121900000D03*
X126300000Y-140900000D03*
X106400000Y-128600000D03*
X194700000Y-126400000D03*
X109300000Y-138200000D03*
X116000000Y-81000000D03*
X114300000Y-106800000D03*
X131800000Y-153000000D03*
X128800000Y-73500000D03*
X128800000Y-71400000D03*
X159420000Y-69900000D03*
X127600000Y-67300000D03*
X189800000Y-128600000D03*
X112900000Y-104300000D03*
X114300000Y-108000000D03*
X186000000Y-109300000D03*
X190500000Y-128600000D03*
X155770500Y-70200000D03*
X114300000Y-105700000D03*
X189200000Y-137300000D03*
X110900000Y-115000000D03*
X149500000Y-65700000D03*
X191300000Y-133300000D03*
X133500000Y-151300000D03*
X107800000Y-91300000D03*
X131800000Y-151300000D03*
X146800000Y-65000000D03*
X190100000Y-136200000D03*
%TD*%
%TA.AperFunction,Conductor*%
%TO.N,SensorIN*%
G36*
X199643039Y-142019685D02*
G01*
X199688794Y-142072489D01*
X199700000Y-142124000D01*
X199700000Y-159576000D01*
X199680315Y-159643039D01*
X199627511Y-159688794D01*
X199576000Y-159700000D01*
X182124000Y-159700000D01*
X182056961Y-159680315D01*
X182011206Y-159627511D01*
X182000000Y-159576000D01*
X182000000Y-142124000D01*
X182019685Y-142056961D01*
X182072489Y-142011206D01*
X182124000Y-142000000D01*
X199576000Y-142000000D01*
X199643039Y-142019685D01*
G37*
%TD.AperFunction*%
%TD*%
M02*
