%TF.GenerationSoftware,KiCad,Pcbnew,7.0.2*%
%TF.CreationDate,2024-06-02T17:27:24+02:00*%
%TF.ProjectId,Podgrzewacz,506f6467-727a-4657-9761-637a2e6b6963,rev?*%
%TF.SameCoordinates,Original*%
%TF.FileFunction,Legend,Top*%
%TF.FilePolarity,Positive*%
%FSLAX46Y46*%
G04 Gerber Fmt 4.6, Leading zero omitted, Abs format (unit mm)*
G04 Created by KiCad (PCBNEW 7.0.2) date 2024-06-02 17:27:24*
%MOMM*%
%LPD*%
G01*
G04 APERTURE LIST*
%ADD10C,0.150000*%
%ADD11C,0.120000*%
%ADD12C,0.152400*%
%ADD13C,0.100000*%
%ADD14C,0.200000*%
%ADD15C,0.254000*%
%ADD16C,0.127000*%
%ADD17C,0.250000*%
G04 APERTURE END LIST*
D10*
X195500000Y-70000000D02*
G75*
G03*
X195500000Y-70000000I-5500000J0D01*
G01*
X115500000Y-70000000D02*
G75*
G03*
X115500000Y-70000000I-5500000J0D01*
G01*
X115500000Y-150000000D02*
G75*
G03*
X115500000Y-150000000I-5500000J0D01*
G01*
X195500000Y-150000000D02*
G75*
G03*
X195500000Y-150000000I-5500000J0D01*
G01*
X195922380Y-80838095D02*
X196922380Y-80838095D01*
X196541428Y-80838095D02*
X196589047Y-80933333D01*
X196589047Y-80933333D02*
X196589047Y-81123809D01*
X196589047Y-81123809D02*
X196541428Y-81219047D01*
X196541428Y-81219047D02*
X196493809Y-81266666D01*
X196493809Y-81266666D02*
X196398571Y-81314285D01*
X196398571Y-81314285D02*
X196112857Y-81314285D01*
X196112857Y-81314285D02*
X196017619Y-81266666D01*
X196017619Y-81266666D02*
X195970000Y-81219047D01*
X195970000Y-81219047D02*
X195922380Y-81123809D01*
X195922380Y-81123809D02*
X195922380Y-80933333D01*
X195922380Y-80933333D02*
X195970000Y-80838095D01*
X196446190Y-81742857D02*
X196446190Y-82076190D01*
X195922380Y-82219047D02*
X195922380Y-81742857D01*
X195922380Y-81742857D02*
X196922380Y-81742857D01*
X196922380Y-81742857D02*
X196922380Y-82219047D01*
X196446190Y-82647619D02*
X196446190Y-82980952D01*
X195922380Y-83123809D02*
X195922380Y-82647619D01*
X195922380Y-82647619D02*
X196922380Y-82647619D01*
X196922380Y-82647619D02*
X196922380Y-83123809D01*
X195922380Y-83552381D02*
X196589047Y-83552381D01*
X196398571Y-83552381D02*
X196493809Y-83600000D01*
X196493809Y-83600000D02*
X196541428Y-83647619D01*
X196541428Y-83647619D02*
X196589047Y-83742857D01*
X196589047Y-83742857D02*
X196589047Y-83838095D01*
X195827142Y-83933334D02*
X195827142Y-84695238D01*
X196589047Y-84838096D02*
X195922380Y-85028572D01*
X195922380Y-85028572D02*
X196398571Y-85219048D01*
X196398571Y-85219048D02*
X195922380Y-85409524D01*
X195922380Y-85409524D02*
X196589047Y-85600000D01*
X195922380Y-86409524D02*
X196446190Y-86409524D01*
X196446190Y-86409524D02*
X196541428Y-86361905D01*
X196541428Y-86361905D02*
X196589047Y-86266667D01*
X196589047Y-86266667D02*
X196589047Y-86076191D01*
X196589047Y-86076191D02*
X196541428Y-85980953D01*
X195970000Y-86409524D02*
X195922380Y-86314286D01*
X195922380Y-86314286D02*
X195922380Y-86076191D01*
X195922380Y-86076191D02*
X195970000Y-85980953D01*
X195970000Y-85980953D02*
X196065238Y-85933334D01*
X196065238Y-85933334D02*
X196160476Y-85933334D01*
X196160476Y-85933334D02*
X196255714Y-85980953D01*
X196255714Y-85980953D02*
X196303333Y-86076191D01*
X196303333Y-86076191D02*
X196303333Y-86314286D01*
X196303333Y-86314286D02*
X196350952Y-86409524D01*
X195922380Y-86885715D02*
X196589047Y-86885715D01*
X196398571Y-86885715D02*
X196493809Y-86933334D01*
X196493809Y-86933334D02*
X196541428Y-86980953D01*
X196541428Y-86980953D02*
X196589047Y-87076191D01*
X196589047Y-87076191D02*
X196589047Y-87171429D01*
X195922380Y-87504763D02*
X196589047Y-87504763D01*
X196493809Y-87504763D02*
X196541428Y-87552382D01*
X196541428Y-87552382D02*
X196589047Y-87647620D01*
X196589047Y-87647620D02*
X196589047Y-87790477D01*
X196589047Y-87790477D02*
X196541428Y-87885715D01*
X196541428Y-87885715D02*
X196446190Y-87933334D01*
X196446190Y-87933334D02*
X195922380Y-87933334D01*
X196446190Y-87933334D02*
X196541428Y-87980953D01*
X196541428Y-87980953D02*
X196589047Y-88076191D01*
X196589047Y-88076191D02*
X196589047Y-88219048D01*
X196589047Y-88219048D02*
X196541428Y-88314287D01*
X196541428Y-88314287D02*
X196446190Y-88361906D01*
X196446190Y-88361906D02*
X195922380Y-88361906D01*
X195970000Y-89219048D02*
X195922380Y-89123810D01*
X195922380Y-89123810D02*
X195922380Y-88933334D01*
X195922380Y-88933334D02*
X195970000Y-88838096D01*
X195970000Y-88838096D02*
X196065238Y-88790477D01*
X196065238Y-88790477D02*
X196446190Y-88790477D01*
X196446190Y-88790477D02*
X196541428Y-88838096D01*
X196541428Y-88838096D02*
X196589047Y-88933334D01*
X196589047Y-88933334D02*
X196589047Y-89123810D01*
X196589047Y-89123810D02*
X196541428Y-89219048D01*
X196541428Y-89219048D02*
X196446190Y-89266667D01*
X196446190Y-89266667D02*
X196350952Y-89266667D01*
X196350952Y-89266667D02*
X196255714Y-88790477D01*
X195922380Y-89695239D02*
X196589047Y-89695239D01*
X196398571Y-89695239D02*
X196493809Y-89742858D01*
X196493809Y-89742858D02*
X196541428Y-89790477D01*
X196541428Y-89790477D02*
X196589047Y-89885715D01*
X196589047Y-89885715D02*
X196589047Y-89980953D01*
X195922380Y-91600001D02*
X195922380Y-91028573D01*
X195922380Y-91314287D02*
X196922380Y-91314287D01*
X196922380Y-91314287D02*
X196779523Y-91219049D01*
X196779523Y-91219049D02*
X196684285Y-91123811D01*
X196684285Y-91123811D02*
X196636666Y-91028573D01*
X196017619Y-92028573D02*
X195970000Y-92076192D01*
X195970000Y-92076192D02*
X195922380Y-92028573D01*
X195922380Y-92028573D02*
X195970000Y-91980954D01*
X195970000Y-91980954D02*
X196017619Y-92028573D01*
X196017619Y-92028573D02*
X195922380Y-92028573D01*
X195922380Y-93028572D02*
X195922380Y-92457144D01*
X195922380Y-92742858D02*
X196922380Y-92742858D01*
X196922380Y-92742858D02*
X196779523Y-92647620D01*
X196779523Y-92647620D02*
X196684285Y-92552382D01*
X196684285Y-92552382D02*
X196636666Y-92457144D01*
X193989047Y-81266666D02*
X193179523Y-81266666D01*
X193179523Y-81266666D02*
X193084285Y-81219047D01*
X193084285Y-81219047D02*
X193036666Y-81171428D01*
X193036666Y-81171428D02*
X192989047Y-81076190D01*
X192989047Y-81076190D02*
X192989047Y-80933333D01*
X192989047Y-80933333D02*
X193036666Y-80838095D01*
X193370000Y-81266666D02*
X193322380Y-81171428D01*
X193322380Y-81171428D02*
X193322380Y-80980952D01*
X193322380Y-80980952D02*
X193370000Y-80885714D01*
X193370000Y-80885714D02*
X193417619Y-80838095D01*
X193417619Y-80838095D02*
X193512857Y-80790476D01*
X193512857Y-80790476D02*
X193798571Y-80790476D01*
X193798571Y-80790476D02*
X193893809Y-80838095D01*
X193893809Y-80838095D02*
X193941428Y-80885714D01*
X193941428Y-80885714D02*
X193989047Y-80980952D01*
X193989047Y-80980952D02*
X193989047Y-81171428D01*
X193989047Y-81171428D02*
X193941428Y-81266666D01*
X193322380Y-81742857D02*
X193989047Y-81742857D01*
X194322380Y-81742857D02*
X194274761Y-81695238D01*
X194274761Y-81695238D02*
X194227142Y-81742857D01*
X194227142Y-81742857D02*
X194274761Y-81790476D01*
X194274761Y-81790476D02*
X194322380Y-81742857D01*
X194322380Y-81742857D02*
X194227142Y-81742857D01*
X193989047Y-82076190D02*
X193989047Y-82457142D01*
X194322380Y-82219047D02*
X193465238Y-82219047D01*
X193465238Y-82219047D02*
X193370000Y-82266666D01*
X193370000Y-82266666D02*
X193322380Y-82361904D01*
X193322380Y-82361904D02*
X193322380Y-82457142D01*
X193322380Y-82790476D02*
X194322380Y-82790476D01*
X193322380Y-83219047D02*
X193846190Y-83219047D01*
X193846190Y-83219047D02*
X193941428Y-83171428D01*
X193941428Y-83171428D02*
X193989047Y-83076190D01*
X193989047Y-83076190D02*
X193989047Y-82933333D01*
X193989047Y-82933333D02*
X193941428Y-82838095D01*
X193941428Y-82838095D02*
X193893809Y-82790476D01*
X193989047Y-84123809D02*
X193322380Y-84123809D01*
X193989047Y-83695238D02*
X193465238Y-83695238D01*
X193465238Y-83695238D02*
X193370000Y-83742857D01*
X193370000Y-83742857D02*
X193322380Y-83838095D01*
X193322380Y-83838095D02*
X193322380Y-83980952D01*
X193322380Y-83980952D02*
X193370000Y-84076190D01*
X193370000Y-84076190D02*
X193417619Y-84123809D01*
X193322380Y-84600000D02*
X194322380Y-84600000D01*
X193941428Y-84600000D02*
X193989047Y-84695238D01*
X193989047Y-84695238D02*
X193989047Y-84885714D01*
X193989047Y-84885714D02*
X193941428Y-84980952D01*
X193941428Y-84980952D02*
X193893809Y-85028571D01*
X193893809Y-85028571D02*
X193798571Y-85076190D01*
X193798571Y-85076190D02*
X193512857Y-85076190D01*
X193512857Y-85076190D02*
X193417619Y-85028571D01*
X193417619Y-85028571D02*
X193370000Y-84980952D01*
X193370000Y-84980952D02*
X193322380Y-84885714D01*
X193322380Y-84885714D02*
X193322380Y-84695238D01*
X193322380Y-84695238D02*
X193370000Y-84600000D01*
X193417619Y-85504762D02*
X193370000Y-85552381D01*
X193370000Y-85552381D02*
X193322380Y-85504762D01*
X193322380Y-85504762D02*
X193370000Y-85457143D01*
X193370000Y-85457143D02*
X193417619Y-85504762D01*
X193417619Y-85504762D02*
X193322380Y-85504762D01*
X193370000Y-86409523D02*
X193322380Y-86314285D01*
X193322380Y-86314285D02*
X193322380Y-86123809D01*
X193322380Y-86123809D02*
X193370000Y-86028571D01*
X193370000Y-86028571D02*
X193417619Y-85980952D01*
X193417619Y-85980952D02*
X193512857Y-85933333D01*
X193512857Y-85933333D02*
X193798571Y-85933333D01*
X193798571Y-85933333D02*
X193893809Y-85980952D01*
X193893809Y-85980952D02*
X193941428Y-86028571D01*
X193941428Y-86028571D02*
X193989047Y-86123809D01*
X193989047Y-86123809D02*
X193989047Y-86314285D01*
X193989047Y-86314285D02*
X193941428Y-86409523D01*
X193322380Y-86980952D02*
X193370000Y-86885714D01*
X193370000Y-86885714D02*
X193417619Y-86838095D01*
X193417619Y-86838095D02*
X193512857Y-86790476D01*
X193512857Y-86790476D02*
X193798571Y-86790476D01*
X193798571Y-86790476D02*
X193893809Y-86838095D01*
X193893809Y-86838095D02*
X193941428Y-86885714D01*
X193941428Y-86885714D02*
X193989047Y-86980952D01*
X193989047Y-86980952D02*
X193989047Y-87123809D01*
X193989047Y-87123809D02*
X193941428Y-87219047D01*
X193941428Y-87219047D02*
X193893809Y-87266666D01*
X193893809Y-87266666D02*
X193798571Y-87314285D01*
X193798571Y-87314285D02*
X193512857Y-87314285D01*
X193512857Y-87314285D02*
X193417619Y-87266666D01*
X193417619Y-87266666D02*
X193370000Y-87219047D01*
X193370000Y-87219047D02*
X193322380Y-87123809D01*
X193322380Y-87123809D02*
X193322380Y-86980952D01*
X193322380Y-87742857D02*
X193989047Y-87742857D01*
X193893809Y-87742857D02*
X193941428Y-87790476D01*
X193941428Y-87790476D02*
X193989047Y-87885714D01*
X193989047Y-87885714D02*
X193989047Y-88028571D01*
X193989047Y-88028571D02*
X193941428Y-88123809D01*
X193941428Y-88123809D02*
X193846190Y-88171428D01*
X193846190Y-88171428D02*
X193322380Y-88171428D01*
X193846190Y-88171428D02*
X193941428Y-88219047D01*
X193941428Y-88219047D02*
X193989047Y-88314285D01*
X193989047Y-88314285D02*
X193989047Y-88457142D01*
X193989047Y-88457142D02*
X193941428Y-88552381D01*
X193941428Y-88552381D02*
X193846190Y-88600000D01*
X193846190Y-88600000D02*
X193322380Y-88600000D01*
X194370000Y-89790475D02*
X193084285Y-88933333D01*
X193846190Y-90123809D02*
X193846190Y-90457142D01*
X193322380Y-90599999D02*
X193322380Y-90123809D01*
X193322380Y-90123809D02*
X194322380Y-90123809D01*
X194322380Y-90123809D02*
X194322380Y-90599999D01*
X193989047Y-90885714D02*
X193989047Y-91266666D01*
X194322380Y-91028571D02*
X193465238Y-91028571D01*
X193465238Y-91028571D02*
X193370000Y-91076190D01*
X193370000Y-91076190D02*
X193322380Y-91171428D01*
X193322380Y-91171428D02*
X193322380Y-91266666D01*
X193322380Y-91600000D02*
X194322380Y-91600000D01*
X193322380Y-92028571D02*
X193846190Y-92028571D01*
X193846190Y-92028571D02*
X193941428Y-91980952D01*
X193941428Y-91980952D02*
X193989047Y-91885714D01*
X193989047Y-91885714D02*
X193989047Y-91742857D01*
X193989047Y-91742857D02*
X193941428Y-91647619D01*
X193941428Y-91647619D02*
X193893809Y-91600000D01*
X193370000Y-92885714D02*
X193322380Y-92790476D01*
X193322380Y-92790476D02*
X193322380Y-92600000D01*
X193322380Y-92600000D02*
X193370000Y-92504762D01*
X193370000Y-92504762D02*
X193465238Y-92457143D01*
X193465238Y-92457143D02*
X193846190Y-92457143D01*
X193846190Y-92457143D02*
X193941428Y-92504762D01*
X193941428Y-92504762D02*
X193989047Y-92600000D01*
X193989047Y-92600000D02*
X193989047Y-92790476D01*
X193989047Y-92790476D02*
X193941428Y-92885714D01*
X193941428Y-92885714D02*
X193846190Y-92933333D01*
X193846190Y-92933333D02*
X193750952Y-92933333D01*
X193750952Y-92933333D02*
X193655714Y-92457143D01*
X193322380Y-93361905D02*
X193989047Y-93361905D01*
X193798571Y-93361905D02*
X193893809Y-93409524D01*
X193893809Y-93409524D02*
X193941428Y-93457143D01*
X193941428Y-93457143D02*
X193989047Y-93552381D01*
X193989047Y-93552381D02*
X193989047Y-93647619D01*
X193846190Y-93980953D02*
X193846190Y-94314286D01*
X193322380Y-94457143D02*
X193322380Y-93980953D01*
X193322380Y-93980953D02*
X194322380Y-93980953D01*
X194322380Y-93980953D02*
X194322380Y-94457143D01*
X193846190Y-94885715D02*
X193846190Y-95219048D01*
X193322380Y-95361905D02*
X193322380Y-94885715D01*
X193322380Y-94885715D02*
X194322380Y-94885715D01*
X194322380Y-94885715D02*
X194322380Y-95361905D01*
X194370000Y-96504762D02*
X193084285Y-95647620D01*
X193322380Y-96838096D02*
X194322380Y-96838096D01*
X193941428Y-96838096D02*
X193989047Y-96933334D01*
X193989047Y-96933334D02*
X193989047Y-97123810D01*
X193989047Y-97123810D02*
X193941428Y-97219048D01*
X193941428Y-97219048D02*
X193893809Y-97266667D01*
X193893809Y-97266667D02*
X193798571Y-97314286D01*
X193798571Y-97314286D02*
X193512857Y-97314286D01*
X193512857Y-97314286D02*
X193417619Y-97266667D01*
X193417619Y-97266667D02*
X193370000Y-97219048D01*
X193370000Y-97219048D02*
X193322380Y-97123810D01*
X193322380Y-97123810D02*
X193322380Y-96933334D01*
X193322380Y-96933334D02*
X193370000Y-96838096D01*
X193846190Y-97742858D02*
X193846190Y-98076191D01*
X193322380Y-98219048D02*
X193322380Y-97742858D01*
X193322380Y-97742858D02*
X194322380Y-97742858D01*
X194322380Y-97742858D02*
X194322380Y-98219048D01*
X193846190Y-98647620D02*
X193846190Y-98980953D01*
X193322380Y-99123810D02*
X193322380Y-98647620D01*
X193322380Y-98647620D02*
X194322380Y-98647620D01*
X194322380Y-98647620D02*
X194322380Y-99123810D01*
X193322380Y-99552382D02*
X193989047Y-99552382D01*
X193798571Y-99552382D02*
X193893809Y-99600001D01*
X193893809Y-99600001D02*
X193941428Y-99647620D01*
X193941428Y-99647620D02*
X193989047Y-99742858D01*
X193989047Y-99742858D02*
X193989047Y-99838096D01*
X193227142Y-99933335D02*
X193227142Y-100695239D01*
X193989047Y-100838097D02*
X193322380Y-101028573D01*
X193322380Y-101028573D02*
X193798571Y-101219049D01*
X193798571Y-101219049D02*
X193322380Y-101409525D01*
X193322380Y-101409525D02*
X193989047Y-101600001D01*
X193322380Y-102409525D02*
X193846190Y-102409525D01*
X193846190Y-102409525D02*
X193941428Y-102361906D01*
X193941428Y-102361906D02*
X193989047Y-102266668D01*
X193989047Y-102266668D02*
X193989047Y-102076192D01*
X193989047Y-102076192D02*
X193941428Y-101980954D01*
X193370000Y-102409525D02*
X193322380Y-102314287D01*
X193322380Y-102314287D02*
X193322380Y-102076192D01*
X193322380Y-102076192D02*
X193370000Y-101980954D01*
X193370000Y-101980954D02*
X193465238Y-101933335D01*
X193465238Y-101933335D02*
X193560476Y-101933335D01*
X193560476Y-101933335D02*
X193655714Y-101980954D01*
X193655714Y-101980954D02*
X193703333Y-102076192D01*
X193703333Y-102076192D02*
X193703333Y-102314287D01*
X193703333Y-102314287D02*
X193750952Y-102409525D01*
X193322380Y-102885716D02*
X193989047Y-102885716D01*
X193798571Y-102885716D02*
X193893809Y-102933335D01*
X193893809Y-102933335D02*
X193941428Y-102980954D01*
X193941428Y-102980954D02*
X193989047Y-103076192D01*
X193989047Y-103076192D02*
X193989047Y-103171430D01*
X193322380Y-103504764D02*
X193989047Y-103504764D01*
X193893809Y-103504764D02*
X193941428Y-103552383D01*
X193941428Y-103552383D02*
X193989047Y-103647621D01*
X193989047Y-103647621D02*
X193989047Y-103790478D01*
X193989047Y-103790478D02*
X193941428Y-103885716D01*
X193941428Y-103885716D02*
X193846190Y-103933335D01*
X193846190Y-103933335D02*
X193322380Y-103933335D01*
X193846190Y-103933335D02*
X193941428Y-103980954D01*
X193941428Y-103980954D02*
X193989047Y-104076192D01*
X193989047Y-104076192D02*
X193989047Y-104219049D01*
X193989047Y-104219049D02*
X193941428Y-104314288D01*
X193941428Y-104314288D02*
X193846190Y-104361907D01*
X193846190Y-104361907D02*
X193322380Y-104361907D01*
X193370000Y-105219049D02*
X193322380Y-105123811D01*
X193322380Y-105123811D02*
X193322380Y-104933335D01*
X193322380Y-104933335D02*
X193370000Y-104838097D01*
X193370000Y-104838097D02*
X193465238Y-104790478D01*
X193465238Y-104790478D02*
X193846190Y-104790478D01*
X193846190Y-104790478D02*
X193941428Y-104838097D01*
X193941428Y-104838097D02*
X193989047Y-104933335D01*
X193989047Y-104933335D02*
X193989047Y-105123811D01*
X193989047Y-105123811D02*
X193941428Y-105219049D01*
X193941428Y-105219049D02*
X193846190Y-105266668D01*
X193846190Y-105266668D02*
X193750952Y-105266668D01*
X193750952Y-105266668D02*
X193655714Y-104790478D01*
X193322380Y-105695240D02*
X193989047Y-105695240D01*
X193798571Y-105695240D02*
X193893809Y-105742859D01*
X193893809Y-105742859D02*
X193941428Y-105790478D01*
X193941428Y-105790478D02*
X193989047Y-105885716D01*
X193989047Y-105885716D02*
X193989047Y-105980954D01*
X110461904Y-137925238D02*
X110366666Y-137877619D01*
X110366666Y-137877619D02*
X110223809Y-137877619D01*
X110223809Y-137877619D02*
X110080952Y-137925238D01*
X110080952Y-137925238D02*
X109985714Y-138020476D01*
X109985714Y-138020476D02*
X109938095Y-138115714D01*
X109938095Y-138115714D02*
X109890476Y-138306190D01*
X109890476Y-138306190D02*
X109890476Y-138449047D01*
X109890476Y-138449047D02*
X109938095Y-138639523D01*
X109938095Y-138639523D02*
X109985714Y-138734761D01*
X109985714Y-138734761D02*
X110080952Y-138830000D01*
X110080952Y-138830000D02*
X110223809Y-138877619D01*
X110223809Y-138877619D02*
X110319047Y-138877619D01*
X110319047Y-138877619D02*
X110461904Y-138830000D01*
X110461904Y-138830000D02*
X110509523Y-138782380D01*
X110509523Y-138782380D02*
X110509523Y-138449047D01*
X110509523Y-138449047D02*
X110319047Y-138449047D01*
X110938095Y-138877619D02*
X110938095Y-137877619D01*
X110938095Y-137877619D02*
X111509523Y-138877619D01*
X111509523Y-138877619D02*
X111509523Y-137877619D01*
X111985714Y-138877619D02*
X111985714Y-137877619D01*
X111985714Y-137877619D02*
X112223809Y-137877619D01*
X112223809Y-137877619D02*
X112366666Y-137925238D01*
X112366666Y-137925238D02*
X112461904Y-138020476D01*
X112461904Y-138020476D02*
X112509523Y-138115714D01*
X112509523Y-138115714D02*
X112557142Y-138306190D01*
X112557142Y-138306190D02*
X112557142Y-138449047D01*
X112557142Y-138449047D02*
X112509523Y-138639523D01*
X112509523Y-138639523D02*
X112461904Y-138734761D01*
X112461904Y-138734761D02*
X112366666Y-138830000D01*
X112366666Y-138830000D02*
X112223809Y-138877619D01*
X112223809Y-138877619D02*
X111985714Y-138877619D01*
X109890476Y-136230000D02*
X110033333Y-136277619D01*
X110033333Y-136277619D02*
X110271428Y-136277619D01*
X110271428Y-136277619D02*
X110366666Y-136230000D01*
X110366666Y-136230000D02*
X110414285Y-136182380D01*
X110414285Y-136182380D02*
X110461904Y-136087142D01*
X110461904Y-136087142D02*
X110461904Y-135991904D01*
X110461904Y-135991904D02*
X110414285Y-135896666D01*
X110414285Y-135896666D02*
X110366666Y-135849047D01*
X110366666Y-135849047D02*
X110271428Y-135801428D01*
X110271428Y-135801428D02*
X110080952Y-135753809D01*
X110080952Y-135753809D02*
X109985714Y-135706190D01*
X109985714Y-135706190D02*
X109938095Y-135658571D01*
X109938095Y-135658571D02*
X109890476Y-135563333D01*
X109890476Y-135563333D02*
X109890476Y-135468095D01*
X109890476Y-135468095D02*
X109938095Y-135372857D01*
X109938095Y-135372857D02*
X109985714Y-135325238D01*
X109985714Y-135325238D02*
X110080952Y-135277619D01*
X110080952Y-135277619D02*
X110319047Y-135277619D01*
X110319047Y-135277619D02*
X110461904Y-135325238D01*
X110795238Y-135277619D02*
X111033333Y-136277619D01*
X111033333Y-136277619D02*
X111223809Y-135563333D01*
X111223809Y-135563333D02*
X111414285Y-136277619D01*
X111414285Y-136277619D02*
X111652381Y-135277619D01*
X112033333Y-136277619D02*
X112033333Y-135277619D01*
X112033333Y-135277619D02*
X112271428Y-135277619D01*
X112271428Y-135277619D02*
X112414285Y-135325238D01*
X112414285Y-135325238D02*
X112509523Y-135420476D01*
X112509523Y-135420476D02*
X112557142Y-135515714D01*
X112557142Y-135515714D02*
X112604761Y-135706190D01*
X112604761Y-135706190D02*
X112604761Y-135849047D01*
X112604761Y-135849047D02*
X112557142Y-136039523D01*
X112557142Y-136039523D02*
X112509523Y-136134761D01*
X112509523Y-136134761D02*
X112414285Y-136230000D01*
X112414285Y-136230000D02*
X112271428Y-136277619D01*
X112271428Y-136277619D02*
X112033333Y-136277619D01*
X113033333Y-136277619D02*
X113033333Y-135277619D01*
X113699999Y-135277619D02*
X113890475Y-135277619D01*
X113890475Y-135277619D02*
X113985713Y-135325238D01*
X113985713Y-135325238D02*
X114080951Y-135420476D01*
X114080951Y-135420476D02*
X114128570Y-135610952D01*
X114128570Y-135610952D02*
X114128570Y-135944285D01*
X114128570Y-135944285D02*
X114080951Y-136134761D01*
X114080951Y-136134761D02*
X113985713Y-136230000D01*
X113985713Y-136230000D02*
X113890475Y-136277619D01*
X113890475Y-136277619D02*
X113699999Y-136277619D01*
X113699999Y-136277619D02*
X113604761Y-136230000D01*
X113604761Y-136230000D02*
X113509523Y-136134761D01*
X113509523Y-136134761D02*
X113461904Y-135944285D01*
X113461904Y-135944285D02*
X113461904Y-135610952D01*
X113461904Y-135610952D02*
X113509523Y-135420476D01*
X113509523Y-135420476D02*
X113604761Y-135325238D01*
X113604761Y-135325238D02*
X113699999Y-135277619D01*
X109890476Y-137530000D02*
X110033333Y-137577619D01*
X110033333Y-137577619D02*
X110271428Y-137577619D01*
X110271428Y-137577619D02*
X110366666Y-137530000D01*
X110366666Y-137530000D02*
X110414285Y-137482380D01*
X110414285Y-137482380D02*
X110461904Y-137387142D01*
X110461904Y-137387142D02*
X110461904Y-137291904D01*
X110461904Y-137291904D02*
X110414285Y-137196666D01*
X110414285Y-137196666D02*
X110366666Y-137149047D01*
X110366666Y-137149047D02*
X110271428Y-137101428D01*
X110271428Y-137101428D02*
X110080952Y-137053809D01*
X110080952Y-137053809D02*
X109985714Y-137006190D01*
X109985714Y-137006190D02*
X109938095Y-136958571D01*
X109938095Y-136958571D02*
X109890476Y-136863333D01*
X109890476Y-136863333D02*
X109890476Y-136768095D01*
X109890476Y-136768095D02*
X109938095Y-136672857D01*
X109938095Y-136672857D02*
X109985714Y-136625238D01*
X109985714Y-136625238D02*
X110080952Y-136577619D01*
X110080952Y-136577619D02*
X110319047Y-136577619D01*
X110319047Y-136577619D02*
X110461904Y-136625238D01*
X110795238Y-136577619D02*
X111033333Y-137577619D01*
X111033333Y-137577619D02*
X111223809Y-136863333D01*
X111223809Y-136863333D02*
X111414285Y-137577619D01*
X111414285Y-137577619D02*
X111652381Y-136577619D01*
X112604761Y-137482380D02*
X112557142Y-137530000D01*
X112557142Y-137530000D02*
X112414285Y-137577619D01*
X112414285Y-137577619D02*
X112319047Y-137577619D01*
X112319047Y-137577619D02*
X112176190Y-137530000D01*
X112176190Y-137530000D02*
X112080952Y-137434761D01*
X112080952Y-137434761D02*
X112033333Y-137339523D01*
X112033333Y-137339523D02*
X111985714Y-137149047D01*
X111985714Y-137149047D02*
X111985714Y-137006190D01*
X111985714Y-137006190D02*
X112033333Y-136815714D01*
X112033333Y-136815714D02*
X112080952Y-136720476D01*
X112080952Y-136720476D02*
X112176190Y-136625238D01*
X112176190Y-136625238D02*
X112319047Y-136577619D01*
X112319047Y-136577619D02*
X112414285Y-136577619D01*
X112414285Y-136577619D02*
X112557142Y-136625238D01*
X112557142Y-136625238D02*
X112604761Y-136672857D01*
X113509523Y-137577619D02*
X113033333Y-137577619D01*
X113033333Y-137577619D02*
X113033333Y-136577619D01*
X113842857Y-137577619D02*
X113842857Y-136577619D01*
X114414285Y-137577619D02*
X113985714Y-137006190D01*
X114414285Y-136577619D02*
X113842857Y-137149047D01*
%TO.C,C8*%
X153033333Y-73567380D02*
X152985714Y-73615000D01*
X152985714Y-73615000D02*
X152842857Y-73662619D01*
X152842857Y-73662619D02*
X152747619Y-73662619D01*
X152747619Y-73662619D02*
X152604762Y-73615000D01*
X152604762Y-73615000D02*
X152509524Y-73519761D01*
X152509524Y-73519761D02*
X152461905Y-73424523D01*
X152461905Y-73424523D02*
X152414286Y-73234047D01*
X152414286Y-73234047D02*
X152414286Y-73091190D01*
X152414286Y-73091190D02*
X152461905Y-72900714D01*
X152461905Y-72900714D02*
X152509524Y-72805476D01*
X152509524Y-72805476D02*
X152604762Y-72710238D01*
X152604762Y-72710238D02*
X152747619Y-72662619D01*
X152747619Y-72662619D02*
X152842857Y-72662619D01*
X152842857Y-72662619D02*
X152985714Y-72710238D01*
X152985714Y-72710238D02*
X153033333Y-72757857D01*
X153604762Y-73091190D02*
X153509524Y-73043571D01*
X153509524Y-73043571D02*
X153461905Y-72995952D01*
X153461905Y-72995952D02*
X153414286Y-72900714D01*
X153414286Y-72900714D02*
X153414286Y-72853095D01*
X153414286Y-72853095D02*
X153461905Y-72757857D01*
X153461905Y-72757857D02*
X153509524Y-72710238D01*
X153509524Y-72710238D02*
X153604762Y-72662619D01*
X153604762Y-72662619D02*
X153795238Y-72662619D01*
X153795238Y-72662619D02*
X153890476Y-72710238D01*
X153890476Y-72710238D02*
X153938095Y-72757857D01*
X153938095Y-72757857D02*
X153985714Y-72853095D01*
X153985714Y-72853095D02*
X153985714Y-72900714D01*
X153985714Y-72900714D02*
X153938095Y-72995952D01*
X153938095Y-72995952D02*
X153890476Y-73043571D01*
X153890476Y-73043571D02*
X153795238Y-73091190D01*
X153795238Y-73091190D02*
X153604762Y-73091190D01*
X153604762Y-73091190D02*
X153509524Y-73138809D01*
X153509524Y-73138809D02*
X153461905Y-73186428D01*
X153461905Y-73186428D02*
X153414286Y-73281666D01*
X153414286Y-73281666D02*
X153414286Y-73472142D01*
X153414286Y-73472142D02*
X153461905Y-73567380D01*
X153461905Y-73567380D02*
X153509524Y-73615000D01*
X153509524Y-73615000D02*
X153604762Y-73662619D01*
X153604762Y-73662619D02*
X153795238Y-73662619D01*
X153795238Y-73662619D02*
X153890476Y-73615000D01*
X153890476Y-73615000D02*
X153938095Y-73567380D01*
X153938095Y-73567380D02*
X153985714Y-73472142D01*
X153985714Y-73472142D02*
X153985714Y-73281666D01*
X153985714Y-73281666D02*
X153938095Y-73186428D01*
X153938095Y-73186428D02*
X153890476Y-73138809D01*
X153890476Y-73138809D02*
X153795238Y-73091190D01*
%TO.C,TP11*%
X101511905Y-126964619D02*
X102083333Y-126964619D01*
X101797619Y-127964619D02*
X101797619Y-126964619D01*
X102416667Y-127964619D02*
X102416667Y-126964619D01*
X102416667Y-126964619D02*
X102797619Y-126964619D01*
X102797619Y-126964619D02*
X102892857Y-127012238D01*
X102892857Y-127012238D02*
X102940476Y-127059857D01*
X102940476Y-127059857D02*
X102988095Y-127155095D01*
X102988095Y-127155095D02*
X102988095Y-127297952D01*
X102988095Y-127297952D02*
X102940476Y-127393190D01*
X102940476Y-127393190D02*
X102892857Y-127440809D01*
X102892857Y-127440809D02*
X102797619Y-127488428D01*
X102797619Y-127488428D02*
X102416667Y-127488428D01*
X103940476Y-127964619D02*
X103369048Y-127964619D01*
X103654762Y-127964619D02*
X103654762Y-126964619D01*
X103654762Y-126964619D02*
X103559524Y-127107476D01*
X103559524Y-127107476D02*
X103464286Y-127202714D01*
X103464286Y-127202714D02*
X103369048Y-127250333D01*
X104892857Y-127964619D02*
X104321429Y-127964619D01*
X104607143Y-127964619D02*
X104607143Y-126964619D01*
X104607143Y-126964619D02*
X104511905Y-127107476D01*
X104511905Y-127107476D02*
X104416667Y-127202714D01*
X104416667Y-127202714D02*
X104321429Y-127250333D01*
%TO.C,U8*%
X122438095Y-143162619D02*
X122438095Y-143972142D01*
X122438095Y-143972142D02*
X122485714Y-144067380D01*
X122485714Y-144067380D02*
X122533333Y-144115000D01*
X122533333Y-144115000D02*
X122628571Y-144162619D01*
X122628571Y-144162619D02*
X122819047Y-144162619D01*
X122819047Y-144162619D02*
X122914285Y-144115000D01*
X122914285Y-144115000D02*
X122961904Y-144067380D01*
X122961904Y-144067380D02*
X123009523Y-143972142D01*
X123009523Y-143972142D02*
X123009523Y-143162619D01*
X123628571Y-143591190D02*
X123533333Y-143543571D01*
X123533333Y-143543571D02*
X123485714Y-143495952D01*
X123485714Y-143495952D02*
X123438095Y-143400714D01*
X123438095Y-143400714D02*
X123438095Y-143353095D01*
X123438095Y-143353095D02*
X123485714Y-143257857D01*
X123485714Y-143257857D02*
X123533333Y-143210238D01*
X123533333Y-143210238D02*
X123628571Y-143162619D01*
X123628571Y-143162619D02*
X123819047Y-143162619D01*
X123819047Y-143162619D02*
X123914285Y-143210238D01*
X123914285Y-143210238D02*
X123961904Y-143257857D01*
X123961904Y-143257857D02*
X124009523Y-143353095D01*
X124009523Y-143353095D02*
X124009523Y-143400714D01*
X124009523Y-143400714D02*
X123961904Y-143495952D01*
X123961904Y-143495952D02*
X123914285Y-143543571D01*
X123914285Y-143543571D02*
X123819047Y-143591190D01*
X123819047Y-143591190D02*
X123628571Y-143591190D01*
X123628571Y-143591190D02*
X123533333Y-143638809D01*
X123533333Y-143638809D02*
X123485714Y-143686428D01*
X123485714Y-143686428D02*
X123438095Y-143781666D01*
X123438095Y-143781666D02*
X123438095Y-143972142D01*
X123438095Y-143972142D02*
X123485714Y-144067380D01*
X123485714Y-144067380D02*
X123533333Y-144115000D01*
X123533333Y-144115000D02*
X123628571Y-144162619D01*
X123628571Y-144162619D02*
X123819047Y-144162619D01*
X123819047Y-144162619D02*
X123914285Y-144115000D01*
X123914285Y-144115000D02*
X123961904Y-144067380D01*
X123961904Y-144067380D02*
X124009523Y-143972142D01*
X124009523Y-143972142D02*
X124009523Y-143781666D01*
X124009523Y-143781666D02*
X123961904Y-143686428D01*
X123961904Y-143686428D02*
X123914285Y-143638809D01*
X123914285Y-143638809D02*
X123819047Y-143591190D01*
%TO.C,R33*%
X129557142Y-147462619D02*
X129223809Y-146986428D01*
X128985714Y-147462619D02*
X128985714Y-146462619D01*
X128985714Y-146462619D02*
X129366666Y-146462619D01*
X129366666Y-146462619D02*
X129461904Y-146510238D01*
X129461904Y-146510238D02*
X129509523Y-146557857D01*
X129509523Y-146557857D02*
X129557142Y-146653095D01*
X129557142Y-146653095D02*
X129557142Y-146795952D01*
X129557142Y-146795952D02*
X129509523Y-146891190D01*
X129509523Y-146891190D02*
X129461904Y-146938809D01*
X129461904Y-146938809D02*
X129366666Y-146986428D01*
X129366666Y-146986428D02*
X128985714Y-146986428D01*
X129890476Y-146462619D02*
X130509523Y-146462619D01*
X130509523Y-146462619D02*
X130176190Y-146843571D01*
X130176190Y-146843571D02*
X130319047Y-146843571D01*
X130319047Y-146843571D02*
X130414285Y-146891190D01*
X130414285Y-146891190D02*
X130461904Y-146938809D01*
X130461904Y-146938809D02*
X130509523Y-147034047D01*
X130509523Y-147034047D02*
X130509523Y-147272142D01*
X130509523Y-147272142D02*
X130461904Y-147367380D01*
X130461904Y-147367380D02*
X130414285Y-147415000D01*
X130414285Y-147415000D02*
X130319047Y-147462619D01*
X130319047Y-147462619D02*
X130033333Y-147462619D01*
X130033333Y-147462619D02*
X129938095Y-147415000D01*
X129938095Y-147415000D02*
X129890476Y-147367380D01*
X130842857Y-146462619D02*
X131461904Y-146462619D01*
X131461904Y-146462619D02*
X131128571Y-146843571D01*
X131128571Y-146843571D02*
X131271428Y-146843571D01*
X131271428Y-146843571D02*
X131366666Y-146891190D01*
X131366666Y-146891190D02*
X131414285Y-146938809D01*
X131414285Y-146938809D02*
X131461904Y-147034047D01*
X131461904Y-147034047D02*
X131461904Y-147272142D01*
X131461904Y-147272142D02*
X131414285Y-147367380D01*
X131414285Y-147367380D02*
X131366666Y-147415000D01*
X131366666Y-147415000D02*
X131271428Y-147462619D01*
X131271428Y-147462619D02*
X130985714Y-147462619D01*
X130985714Y-147462619D02*
X130890476Y-147415000D01*
X130890476Y-147415000D02*
X130842857Y-147367380D01*
%TO.C,R6*%
X117733333Y-63062619D02*
X117400000Y-62586428D01*
X117161905Y-63062619D02*
X117161905Y-62062619D01*
X117161905Y-62062619D02*
X117542857Y-62062619D01*
X117542857Y-62062619D02*
X117638095Y-62110238D01*
X117638095Y-62110238D02*
X117685714Y-62157857D01*
X117685714Y-62157857D02*
X117733333Y-62253095D01*
X117733333Y-62253095D02*
X117733333Y-62395952D01*
X117733333Y-62395952D02*
X117685714Y-62491190D01*
X117685714Y-62491190D02*
X117638095Y-62538809D01*
X117638095Y-62538809D02*
X117542857Y-62586428D01*
X117542857Y-62586428D02*
X117161905Y-62586428D01*
X118590476Y-62062619D02*
X118400000Y-62062619D01*
X118400000Y-62062619D02*
X118304762Y-62110238D01*
X118304762Y-62110238D02*
X118257143Y-62157857D01*
X118257143Y-62157857D02*
X118161905Y-62300714D01*
X118161905Y-62300714D02*
X118114286Y-62491190D01*
X118114286Y-62491190D02*
X118114286Y-62872142D01*
X118114286Y-62872142D02*
X118161905Y-62967380D01*
X118161905Y-62967380D02*
X118209524Y-63015000D01*
X118209524Y-63015000D02*
X118304762Y-63062619D01*
X118304762Y-63062619D02*
X118495238Y-63062619D01*
X118495238Y-63062619D02*
X118590476Y-63015000D01*
X118590476Y-63015000D02*
X118638095Y-62967380D01*
X118638095Y-62967380D02*
X118685714Y-62872142D01*
X118685714Y-62872142D02*
X118685714Y-62634047D01*
X118685714Y-62634047D02*
X118638095Y-62538809D01*
X118638095Y-62538809D02*
X118590476Y-62491190D01*
X118590476Y-62491190D02*
X118495238Y-62443571D01*
X118495238Y-62443571D02*
X118304762Y-62443571D01*
X118304762Y-62443571D02*
X118209524Y-62491190D01*
X118209524Y-62491190D02*
X118161905Y-62538809D01*
X118161905Y-62538809D02*
X118114286Y-62634047D01*
%TO.C,TP5*%
X164738095Y-124264619D02*
X165309523Y-124264619D01*
X165023809Y-125264619D02*
X165023809Y-124264619D01*
X165642857Y-125264619D02*
X165642857Y-124264619D01*
X165642857Y-124264619D02*
X166023809Y-124264619D01*
X166023809Y-124264619D02*
X166119047Y-124312238D01*
X166119047Y-124312238D02*
X166166666Y-124359857D01*
X166166666Y-124359857D02*
X166214285Y-124455095D01*
X166214285Y-124455095D02*
X166214285Y-124597952D01*
X166214285Y-124597952D02*
X166166666Y-124693190D01*
X166166666Y-124693190D02*
X166119047Y-124740809D01*
X166119047Y-124740809D02*
X166023809Y-124788428D01*
X166023809Y-124788428D02*
X165642857Y-124788428D01*
X167119047Y-124264619D02*
X166642857Y-124264619D01*
X166642857Y-124264619D02*
X166595238Y-124740809D01*
X166595238Y-124740809D02*
X166642857Y-124693190D01*
X166642857Y-124693190D02*
X166738095Y-124645571D01*
X166738095Y-124645571D02*
X166976190Y-124645571D01*
X166976190Y-124645571D02*
X167071428Y-124693190D01*
X167071428Y-124693190D02*
X167119047Y-124740809D01*
X167119047Y-124740809D02*
X167166666Y-124836047D01*
X167166666Y-124836047D02*
X167166666Y-125074142D01*
X167166666Y-125074142D02*
X167119047Y-125169380D01*
X167119047Y-125169380D02*
X167071428Y-125217000D01*
X167071428Y-125217000D02*
X166976190Y-125264619D01*
X166976190Y-125264619D02*
X166738095Y-125264619D01*
X166738095Y-125264619D02*
X166642857Y-125217000D01*
X166642857Y-125217000D02*
X166595238Y-125169380D01*
%TO.C,R32*%
X129557142Y-145762619D02*
X129223809Y-145286428D01*
X128985714Y-145762619D02*
X128985714Y-144762619D01*
X128985714Y-144762619D02*
X129366666Y-144762619D01*
X129366666Y-144762619D02*
X129461904Y-144810238D01*
X129461904Y-144810238D02*
X129509523Y-144857857D01*
X129509523Y-144857857D02*
X129557142Y-144953095D01*
X129557142Y-144953095D02*
X129557142Y-145095952D01*
X129557142Y-145095952D02*
X129509523Y-145191190D01*
X129509523Y-145191190D02*
X129461904Y-145238809D01*
X129461904Y-145238809D02*
X129366666Y-145286428D01*
X129366666Y-145286428D02*
X128985714Y-145286428D01*
X129890476Y-144762619D02*
X130509523Y-144762619D01*
X130509523Y-144762619D02*
X130176190Y-145143571D01*
X130176190Y-145143571D02*
X130319047Y-145143571D01*
X130319047Y-145143571D02*
X130414285Y-145191190D01*
X130414285Y-145191190D02*
X130461904Y-145238809D01*
X130461904Y-145238809D02*
X130509523Y-145334047D01*
X130509523Y-145334047D02*
X130509523Y-145572142D01*
X130509523Y-145572142D02*
X130461904Y-145667380D01*
X130461904Y-145667380D02*
X130414285Y-145715000D01*
X130414285Y-145715000D02*
X130319047Y-145762619D01*
X130319047Y-145762619D02*
X130033333Y-145762619D01*
X130033333Y-145762619D02*
X129938095Y-145715000D01*
X129938095Y-145715000D02*
X129890476Y-145667380D01*
X130890476Y-144857857D02*
X130938095Y-144810238D01*
X130938095Y-144810238D02*
X131033333Y-144762619D01*
X131033333Y-144762619D02*
X131271428Y-144762619D01*
X131271428Y-144762619D02*
X131366666Y-144810238D01*
X131366666Y-144810238D02*
X131414285Y-144857857D01*
X131414285Y-144857857D02*
X131461904Y-144953095D01*
X131461904Y-144953095D02*
X131461904Y-145048333D01*
X131461904Y-145048333D02*
X131414285Y-145191190D01*
X131414285Y-145191190D02*
X130842857Y-145762619D01*
X130842857Y-145762619D02*
X131461904Y-145762619D01*
%TO.C,C11*%
X196757142Y-131492380D02*
X196709523Y-131540000D01*
X196709523Y-131540000D02*
X196566666Y-131587619D01*
X196566666Y-131587619D02*
X196471428Y-131587619D01*
X196471428Y-131587619D02*
X196328571Y-131540000D01*
X196328571Y-131540000D02*
X196233333Y-131444761D01*
X196233333Y-131444761D02*
X196185714Y-131349523D01*
X196185714Y-131349523D02*
X196138095Y-131159047D01*
X196138095Y-131159047D02*
X196138095Y-131016190D01*
X196138095Y-131016190D02*
X196185714Y-130825714D01*
X196185714Y-130825714D02*
X196233333Y-130730476D01*
X196233333Y-130730476D02*
X196328571Y-130635238D01*
X196328571Y-130635238D02*
X196471428Y-130587619D01*
X196471428Y-130587619D02*
X196566666Y-130587619D01*
X196566666Y-130587619D02*
X196709523Y-130635238D01*
X196709523Y-130635238D02*
X196757142Y-130682857D01*
X197709523Y-131587619D02*
X197138095Y-131587619D01*
X197423809Y-131587619D02*
X197423809Y-130587619D01*
X197423809Y-130587619D02*
X197328571Y-130730476D01*
X197328571Y-130730476D02*
X197233333Y-130825714D01*
X197233333Y-130825714D02*
X197138095Y-130873333D01*
X198661904Y-131587619D02*
X198090476Y-131587619D01*
X198376190Y-131587619D02*
X198376190Y-130587619D01*
X198376190Y-130587619D02*
X198280952Y-130730476D01*
X198280952Y-130730476D02*
X198185714Y-130825714D01*
X198185714Y-130825714D02*
X198090476Y-130873333D01*
%TO.C,C28*%
X129457142Y-141067380D02*
X129409523Y-141115000D01*
X129409523Y-141115000D02*
X129266666Y-141162619D01*
X129266666Y-141162619D02*
X129171428Y-141162619D01*
X129171428Y-141162619D02*
X129028571Y-141115000D01*
X129028571Y-141115000D02*
X128933333Y-141019761D01*
X128933333Y-141019761D02*
X128885714Y-140924523D01*
X128885714Y-140924523D02*
X128838095Y-140734047D01*
X128838095Y-140734047D02*
X128838095Y-140591190D01*
X128838095Y-140591190D02*
X128885714Y-140400714D01*
X128885714Y-140400714D02*
X128933333Y-140305476D01*
X128933333Y-140305476D02*
X129028571Y-140210238D01*
X129028571Y-140210238D02*
X129171428Y-140162619D01*
X129171428Y-140162619D02*
X129266666Y-140162619D01*
X129266666Y-140162619D02*
X129409523Y-140210238D01*
X129409523Y-140210238D02*
X129457142Y-140257857D01*
X129838095Y-140257857D02*
X129885714Y-140210238D01*
X129885714Y-140210238D02*
X129980952Y-140162619D01*
X129980952Y-140162619D02*
X130219047Y-140162619D01*
X130219047Y-140162619D02*
X130314285Y-140210238D01*
X130314285Y-140210238D02*
X130361904Y-140257857D01*
X130361904Y-140257857D02*
X130409523Y-140353095D01*
X130409523Y-140353095D02*
X130409523Y-140448333D01*
X130409523Y-140448333D02*
X130361904Y-140591190D01*
X130361904Y-140591190D02*
X129790476Y-141162619D01*
X129790476Y-141162619D02*
X130409523Y-141162619D01*
X130980952Y-140591190D02*
X130885714Y-140543571D01*
X130885714Y-140543571D02*
X130838095Y-140495952D01*
X130838095Y-140495952D02*
X130790476Y-140400714D01*
X130790476Y-140400714D02*
X130790476Y-140353095D01*
X130790476Y-140353095D02*
X130838095Y-140257857D01*
X130838095Y-140257857D02*
X130885714Y-140210238D01*
X130885714Y-140210238D02*
X130980952Y-140162619D01*
X130980952Y-140162619D02*
X131171428Y-140162619D01*
X131171428Y-140162619D02*
X131266666Y-140210238D01*
X131266666Y-140210238D02*
X131314285Y-140257857D01*
X131314285Y-140257857D02*
X131361904Y-140353095D01*
X131361904Y-140353095D02*
X131361904Y-140400714D01*
X131361904Y-140400714D02*
X131314285Y-140495952D01*
X131314285Y-140495952D02*
X131266666Y-140543571D01*
X131266666Y-140543571D02*
X131171428Y-140591190D01*
X131171428Y-140591190D02*
X130980952Y-140591190D01*
X130980952Y-140591190D02*
X130885714Y-140638809D01*
X130885714Y-140638809D02*
X130838095Y-140686428D01*
X130838095Y-140686428D02*
X130790476Y-140781666D01*
X130790476Y-140781666D02*
X130790476Y-140972142D01*
X130790476Y-140972142D02*
X130838095Y-141067380D01*
X130838095Y-141067380D02*
X130885714Y-141115000D01*
X130885714Y-141115000D02*
X130980952Y-141162619D01*
X130980952Y-141162619D02*
X131171428Y-141162619D01*
X131171428Y-141162619D02*
X131266666Y-141115000D01*
X131266666Y-141115000D02*
X131314285Y-141067380D01*
X131314285Y-141067380D02*
X131361904Y-140972142D01*
X131361904Y-140972142D02*
X131361904Y-140781666D01*
X131361904Y-140781666D02*
X131314285Y-140686428D01*
X131314285Y-140686428D02*
X131266666Y-140638809D01*
X131266666Y-140638809D02*
X131171428Y-140591190D01*
%TO.C,R10*%
X101457142Y-89562619D02*
X101123809Y-89086428D01*
X100885714Y-89562619D02*
X100885714Y-88562619D01*
X100885714Y-88562619D02*
X101266666Y-88562619D01*
X101266666Y-88562619D02*
X101361904Y-88610238D01*
X101361904Y-88610238D02*
X101409523Y-88657857D01*
X101409523Y-88657857D02*
X101457142Y-88753095D01*
X101457142Y-88753095D02*
X101457142Y-88895952D01*
X101457142Y-88895952D02*
X101409523Y-88991190D01*
X101409523Y-88991190D02*
X101361904Y-89038809D01*
X101361904Y-89038809D02*
X101266666Y-89086428D01*
X101266666Y-89086428D02*
X100885714Y-89086428D01*
X102409523Y-89562619D02*
X101838095Y-89562619D01*
X102123809Y-89562619D02*
X102123809Y-88562619D01*
X102123809Y-88562619D02*
X102028571Y-88705476D01*
X102028571Y-88705476D02*
X101933333Y-88800714D01*
X101933333Y-88800714D02*
X101838095Y-88848333D01*
X103028571Y-88562619D02*
X103123809Y-88562619D01*
X103123809Y-88562619D02*
X103219047Y-88610238D01*
X103219047Y-88610238D02*
X103266666Y-88657857D01*
X103266666Y-88657857D02*
X103314285Y-88753095D01*
X103314285Y-88753095D02*
X103361904Y-88943571D01*
X103361904Y-88943571D02*
X103361904Y-89181666D01*
X103361904Y-89181666D02*
X103314285Y-89372142D01*
X103314285Y-89372142D02*
X103266666Y-89467380D01*
X103266666Y-89467380D02*
X103219047Y-89515000D01*
X103219047Y-89515000D02*
X103123809Y-89562619D01*
X103123809Y-89562619D02*
X103028571Y-89562619D01*
X103028571Y-89562619D02*
X102933333Y-89515000D01*
X102933333Y-89515000D02*
X102885714Y-89467380D01*
X102885714Y-89467380D02*
X102838095Y-89372142D01*
X102838095Y-89372142D02*
X102790476Y-89181666D01*
X102790476Y-89181666D02*
X102790476Y-88943571D01*
X102790476Y-88943571D02*
X102838095Y-88753095D01*
X102838095Y-88753095D02*
X102885714Y-88657857D01*
X102885714Y-88657857D02*
X102933333Y-88610238D01*
X102933333Y-88610238D02*
X103028571Y-88562619D01*
%TO.C,R11*%
X148957142Y-73662619D02*
X148623809Y-73186428D01*
X148385714Y-73662619D02*
X148385714Y-72662619D01*
X148385714Y-72662619D02*
X148766666Y-72662619D01*
X148766666Y-72662619D02*
X148861904Y-72710238D01*
X148861904Y-72710238D02*
X148909523Y-72757857D01*
X148909523Y-72757857D02*
X148957142Y-72853095D01*
X148957142Y-72853095D02*
X148957142Y-72995952D01*
X148957142Y-72995952D02*
X148909523Y-73091190D01*
X148909523Y-73091190D02*
X148861904Y-73138809D01*
X148861904Y-73138809D02*
X148766666Y-73186428D01*
X148766666Y-73186428D02*
X148385714Y-73186428D01*
X149909523Y-73662619D02*
X149338095Y-73662619D01*
X149623809Y-73662619D02*
X149623809Y-72662619D01*
X149623809Y-72662619D02*
X149528571Y-72805476D01*
X149528571Y-72805476D02*
X149433333Y-72900714D01*
X149433333Y-72900714D02*
X149338095Y-72948333D01*
X150861904Y-73662619D02*
X150290476Y-73662619D01*
X150576190Y-73662619D02*
X150576190Y-72662619D01*
X150576190Y-72662619D02*
X150480952Y-72805476D01*
X150480952Y-72805476D02*
X150385714Y-72900714D01*
X150385714Y-72900714D02*
X150290476Y-72948333D01*
%TO.C,CR1*%
X149033333Y-64567380D02*
X148985714Y-64615000D01*
X148985714Y-64615000D02*
X148842857Y-64662619D01*
X148842857Y-64662619D02*
X148747619Y-64662619D01*
X148747619Y-64662619D02*
X148604762Y-64615000D01*
X148604762Y-64615000D02*
X148509524Y-64519761D01*
X148509524Y-64519761D02*
X148461905Y-64424523D01*
X148461905Y-64424523D02*
X148414286Y-64234047D01*
X148414286Y-64234047D02*
X148414286Y-64091190D01*
X148414286Y-64091190D02*
X148461905Y-63900714D01*
X148461905Y-63900714D02*
X148509524Y-63805476D01*
X148509524Y-63805476D02*
X148604762Y-63710238D01*
X148604762Y-63710238D02*
X148747619Y-63662619D01*
X148747619Y-63662619D02*
X148842857Y-63662619D01*
X148842857Y-63662619D02*
X148985714Y-63710238D01*
X148985714Y-63710238D02*
X149033333Y-63757857D01*
X150033333Y-64662619D02*
X149700000Y-64186428D01*
X149461905Y-64662619D02*
X149461905Y-63662619D01*
X149461905Y-63662619D02*
X149842857Y-63662619D01*
X149842857Y-63662619D02*
X149938095Y-63710238D01*
X149938095Y-63710238D02*
X149985714Y-63757857D01*
X149985714Y-63757857D02*
X150033333Y-63853095D01*
X150033333Y-63853095D02*
X150033333Y-63995952D01*
X150033333Y-63995952D02*
X149985714Y-64091190D01*
X149985714Y-64091190D02*
X149938095Y-64138809D01*
X149938095Y-64138809D02*
X149842857Y-64186428D01*
X149842857Y-64186428D02*
X149461905Y-64186428D01*
X150985714Y-64662619D02*
X150414286Y-64662619D01*
X150700000Y-64662619D02*
X150700000Y-63662619D01*
X150700000Y-63662619D02*
X150604762Y-63805476D01*
X150604762Y-63805476D02*
X150509524Y-63900714D01*
X150509524Y-63900714D02*
X150414286Y-63948333D01*
%TO.C,U4*%
X187138095Y-130262619D02*
X187138095Y-131072142D01*
X187138095Y-131072142D02*
X187185714Y-131167380D01*
X187185714Y-131167380D02*
X187233333Y-131215000D01*
X187233333Y-131215000D02*
X187328571Y-131262619D01*
X187328571Y-131262619D02*
X187519047Y-131262619D01*
X187519047Y-131262619D02*
X187614285Y-131215000D01*
X187614285Y-131215000D02*
X187661904Y-131167380D01*
X187661904Y-131167380D02*
X187709523Y-131072142D01*
X187709523Y-131072142D02*
X187709523Y-130262619D01*
X188614285Y-130595952D02*
X188614285Y-131262619D01*
X188376190Y-130215000D02*
X188138095Y-130929285D01*
X188138095Y-130929285D02*
X188757142Y-130929285D01*
%TO.C,C9*%
X157633333Y-73567380D02*
X157585714Y-73615000D01*
X157585714Y-73615000D02*
X157442857Y-73662619D01*
X157442857Y-73662619D02*
X157347619Y-73662619D01*
X157347619Y-73662619D02*
X157204762Y-73615000D01*
X157204762Y-73615000D02*
X157109524Y-73519761D01*
X157109524Y-73519761D02*
X157061905Y-73424523D01*
X157061905Y-73424523D02*
X157014286Y-73234047D01*
X157014286Y-73234047D02*
X157014286Y-73091190D01*
X157014286Y-73091190D02*
X157061905Y-72900714D01*
X157061905Y-72900714D02*
X157109524Y-72805476D01*
X157109524Y-72805476D02*
X157204762Y-72710238D01*
X157204762Y-72710238D02*
X157347619Y-72662619D01*
X157347619Y-72662619D02*
X157442857Y-72662619D01*
X157442857Y-72662619D02*
X157585714Y-72710238D01*
X157585714Y-72710238D02*
X157633333Y-72757857D01*
X158109524Y-73662619D02*
X158300000Y-73662619D01*
X158300000Y-73662619D02*
X158395238Y-73615000D01*
X158395238Y-73615000D02*
X158442857Y-73567380D01*
X158442857Y-73567380D02*
X158538095Y-73424523D01*
X158538095Y-73424523D02*
X158585714Y-73234047D01*
X158585714Y-73234047D02*
X158585714Y-72853095D01*
X158585714Y-72853095D02*
X158538095Y-72757857D01*
X158538095Y-72757857D02*
X158490476Y-72710238D01*
X158490476Y-72710238D02*
X158395238Y-72662619D01*
X158395238Y-72662619D02*
X158204762Y-72662619D01*
X158204762Y-72662619D02*
X158109524Y-72710238D01*
X158109524Y-72710238D02*
X158061905Y-72757857D01*
X158061905Y-72757857D02*
X158014286Y-72853095D01*
X158014286Y-72853095D02*
X158014286Y-73091190D01*
X158014286Y-73091190D02*
X158061905Y-73186428D01*
X158061905Y-73186428D02*
X158109524Y-73234047D01*
X158109524Y-73234047D02*
X158204762Y-73281666D01*
X158204762Y-73281666D02*
X158395238Y-73281666D01*
X158395238Y-73281666D02*
X158490476Y-73234047D01*
X158490476Y-73234047D02*
X158538095Y-73186428D01*
X158538095Y-73186428D02*
X158585714Y-73091190D01*
%TO.C,C13*%
X116957142Y-71067380D02*
X116909523Y-71115000D01*
X116909523Y-71115000D02*
X116766666Y-71162619D01*
X116766666Y-71162619D02*
X116671428Y-71162619D01*
X116671428Y-71162619D02*
X116528571Y-71115000D01*
X116528571Y-71115000D02*
X116433333Y-71019761D01*
X116433333Y-71019761D02*
X116385714Y-70924523D01*
X116385714Y-70924523D02*
X116338095Y-70734047D01*
X116338095Y-70734047D02*
X116338095Y-70591190D01*
X116338095Y-70591190D02*
X116385714Y-70400714D01*
X116385714Y-70400714D02*
X116433333Y-70305476D01*
X116433333Y-70305476D02*
X116528571Y-70210238D01*
X116528571Y-70210238D02*
X116671428Y-70162619D01*
X116671428Y-70162619D02*
X116766666Y-70162619D01*
X116766666Y-70162619D02*
X116909523Y-70210238D01*
X116909523Y-70210238D02*
X116957142Y-70257857D01*
X117909523Y-71162619D02*
X117338095Y-71162619D01*
X117623809Y-71162619D02*
X117623809Y-70162619D01*
X117623809Y-70162619D02*
X117528571Y-70305476D01*
X117528571Y-70305476D02*
X117433333Y-70400714D01*
X117433333Y-70400714D02*
X117338095Y-70448333D01*
X118242857Y-70162619D02*
X118861904Y-70162619D01*
X118861904Y-70162619D02*
X118528571Y-70543571D01*
X118528571Y-70543571D02*
X118671428Y-70543571D01*
X118671428Y-70543571D02*
X118766666Y-70591190D01*
X118766666Y-70591190D02*
X118814285Y-70638809D01*
X118814285Y-70638809D02*
X118861904Y-70734047D01*
X118861904Y-70734047D02*
X118861904Y-70972142D01*
X118861904Y-70972142D02*
X118814285Y-71067380D01*
X118814285Y-71067380D02*
X118766666Y-71115000D01*
X118766666Y-71115000D02*
X118671428Y-71162619D01*
X118671428Y-71162619D02*
X118385714Y-71162619D01*
X118385714Y-71162619D02*
X118290476Y-71115000D01*
X118290476Y-71115000D02*
X118242857Y-71067380D01*
%TO.C,C10*%
X187057142Y-128367380D02*
X187009523Y-128415000D01*
X187009523Y-128415000D02*
X186866666Y-128462619D01*
X186866666Y-128462619D02*
X186771428Y-128462619D01*
X186771428Y-128462619D02*
X186628571Y-128415000D01*
X186628571Y-128415000D02*
X186533333Y-128319761D01*
X186533333Y-128319761D02*
X186485714Y-128224523D01*
X186485714Y-128224523D02*
X186438095Y-128034047D01*
X186438095Y-128034047D02*
X186438095Y-127891190D01*
X186438095Y-127891190D02*
X186485714Y-127700714D01*
X186485714Y-127700714D02*
X186533333Y-127605476D01*
X186533333Y-127605476D02*
X186628571Y-127510238D01*
X186628571Y-127510238D02*
X186771428Y-127462619D01*
X186771428Y-127462619D02*
X186866666Y-127462619D01*
X186866666Y-127462619D02*
X187009523Y-127510238D01*
X187009523Y-127510238D02*
X187057142Y-127557857D01*
X188009523Y-128462619D02*
X187438095Y-128462619D01*
X187723809Y-128462619D02*
X187723809Y-127462619D01*
X187723809Y-127462619D02*
X187628571Y-127605476D01*
X187628571Y-127605476D02*
X187533333Y-127700714D01*
X187533333Y-127700714D02*
X187438095Y-127748333D01*
X188628571Y-127462619D02*
X188723809Y-127462619D01*
X188723809Y-127462619D02*
X188819047Y-127510238D01*
X188819047Y-127510238D02*
X188866666Y-127557857D01*
X188866666Y-127557857D02*
X188914285Y-127653095D01*
X188914285Y-127653095D02*
X188961904Y-127843571D01*
X188961904Y-127843571D02*
X188961904Y-128081666D01*
X188961904Y-128081666D02*
X188914285Y-128272142D01*
X188914285Y-128272142D02*
X188866666Y-128367380D01*
X188866666Y-128367380D02*
X188819047Y-128415000D01*
X188819047Y-128415000D02*
X188723809Y-128462619D01*
X188723809Y-128462619D02*
X188628571Y-128462619D01*
X188628571Y-128462619D02*
X188533333Y-128415000D01*
X188533333Y-128415000D02*
X188485714Y-128367380D01*
X188485714Y-128367380D02*
X188438095Y-128272142D01*
X188438095Y-128272142D02*
X188390476Y-128081666D01*
X188390476Y-128081666D02*
X188390476Y-127843571D01*
X188390476Y-127843571D02*
X188438095Y-127653095D01*
X188438095Y-127653095D02*
X188485714Y-127557857D01*
X188485714Y-127557857D02*
X188533333Y-127510238D01*
X188533333Y-127510238D02*
X188628571Y-127462619D01*
%TO.C,R28*%
X105457142Y-94462619D02*
X105123809Y-93986428D01*
X104885714Y-94462619D02*
X104885714Y-93462619D01*
X104885714Y-93462619D02*
X105266666Y-93462619D01*
X105266666Y-93462619D02*
X105361904Y-93510238D01*
X105361904Y-93510238D02*
X105409523Y-93557857D01*
X105409523Y-93557857D02*
X105457142Y-93653095D01*
X105457142Y-93653095D02*
X105457142Y-93795952D01*
X105457142Y-93795952D02*
X105409523Y-93891190D01*
X105409523Y-93891190D02*
X105361904Y-93938809D01*
X105361904Y-93938809D02*
X105266666Y-93986428D01*
X105266666Y-93986428D02*
X104885714Y-93986428D01*
X105838095Y-93557857D02*
X105885714Y-93510238D01*
X105885714Y-93510238D02*
X105980952Y-93462619D01*
X105980952Y-93462619D02*
X106219047Y-93462619D01*
X106219047Y-93462619D02*
X106314285Y-93510238D01*
X106314285Y-93510238D02*
X106361904Y-93557857D01*
X106361904Y-93557857D02*
X106409523Y-93653095D01*
X106409523Y-93653095D02*
X106409523Y-93748333D01*
X106409523Y-93748333D02*
X106361904Y-93891190D01*
X106361904Y-93891190D02*
X105790476Y-94462619D01*
X105790476Y-94462619D02*
X106409523Y-94462619D01*
X106980952Y-93891190D02*
X106885714Y-93843571D01*
X106885714Y-93843571D02*
X106838095Y-93795952D01*
X106838095Y-93795952D02*
X106790476Y-93700714D01*
X106790476Y-93700714D02*
X106790476Y-93653095D01*
X106790476Y-93653095D02*
X106838095Y-93557857D01*
X106838095Y-93557857D02*
X106885714Y-93510238D01*
X106885714Y-93510238D02*
X106980952Y-93462619D01*
X106980952Y-93462619D02*
X107171428Y-93462619D01*
X107171428Y-93462619D02*
X107266666Y-93510238D01*
X107266666Y-93510238D02*
X107314285Y-93557857D01*
X107314285Y-93557857D02*
X107361904Y-93653095D01*
X107361904Y-93653095D02*
X107361904Y-93700714D01*
X107361904Y-93700714D02*
X107314285Y-93795952D01*
X107314285Y-93795952D02*
X107266666Y-93843571D01*
X107266666Y-93843571D02*
X107171428Y-93891190D01*
X107171428Y-93891190D02*
X106980952Y-93891190D01*
X106980952Y-93891190D02*
X106885714Y-93938809D01*
X106885714Y-93938809D02*
X106838095Y-93986428D01*
X106838095Y-93986428D02*
X106790476Y-94081666D01*
X106790476Y-94081666D02*
X106790476Y-94272142D01*
X106790476Y-94272142D02*
X106838095Y-94367380D01*
X106838095Y-94367380D02*
X106885714Y-94415000D01*
X106885714Y-94415000D02*
X106980952Y-94462619D01*
X106980952Y-94462619D02*
X107171428Y-94462619D01*
X107171428Y-94462619D02*
X107266666Y-94415000D01*
X107266666Y-94415000D02*
X107314285Y-94367380D01*
X107314285Y-94367380D02*
X107361904Y-94272142D01*
X107361904Y-94272142D02*
X107361904Y-94081666D01*
X107361904Y-94081666D02*
X107314285Y-93986428D01*
X107314285Y-93986428D02*
X107266666Y-93938809D01*
X107266666Y-93938809D02*
X107171428Y-93891190D01*
%TO.C,R3*%
X187433333Y-135162619D02*
X187100000Y-134686428D01*
X186861905Y-135162619D02*
X186861905Y-134162619D01*
X186861905Y-134162619D02*
X187242857Y-134162619D01*
X187242857Y-134162619D02*
X187338095Y-134210238D01*
X187338095Y-134210238D02*
X187385714Y-134257857D01*
X187385714Y-134257857D02*
X187433333Y-134353095D01*
X187433333Y-134353095D02*
X187433333Y-134495952D01*
X187433333Y-134495952D02*
X187385714Y-134591190D01*
X187385714Y-134591190D02*
X187338095Y-134638809D01*
X187338095Y-134638809D02*
X187242857Y-134686428D01*
X187242857Y-134686428D02*
X186861905Y-134686428D01*
X187766667Y-134162619D02*
X188385714Y-134162619D01*
X188385714Y-134162619D02*
X188052381Y-134543571D01*
X188052381Y-134543571D02*
X188195238Y-134543571D01*
X188195238Y-134543571D02*
X188290476Y-134591190D01*
X188290476Y-134591190D02*
X188338095Y-134638809D01*
X188338095Y-134638809D02*
X188385714Y-134734047D01*
X188385714Y-134734047D02*
X188385714Y-134972142D01*
X188385714Y-134972142D02*
X188338095Y-135067380D01*
X188338095Y-135067380D02*
X188290476Y-135115000D01*
X188290476Y-135115000D02*
X188195238Y-135162619D01*
X188195238Y-135162619D02*
X187909524Y-135162619D01*
X187909524Y-135162619D02*
X187814286Y-135115000D01*
X187814286Y-135115000D02*
X187766667Y-135067380D01*
%TO.C,C4*%
X107933333Y-109787380D02*
X107885714Y-109835000D01*
X107885714Y-109835000D02*
X107742857Y-109882619D01*
X107742857Y-109882619D02*
X107647619Y-109882619D01*
X107647619Y-109882619D02*
X107504762Y-109835000D01*
X107504762Y-109835000D02*
X107409524Y-109739761D01*
X107409524Y-109739761D02*
X107361905Y-109644523D01*
X107361905Y-109644523D02*
X107314286Y-109454047D01*
X107314286Y-109454047D02*
X107314286Y-109311190D01*
X107314286Y-109311190D02*
X107361905Y-109120714D01*
X107361905Y-109120714D02*
X107409524Y-109025476D01*
X107409524Y-109025476D02*
X107504762Y-108930238D01*
X107504762Y-108930238D02*
X107647619Y-108882619D01*
X107647619Y-108882619D02*
X107742857Y-108882619D01*
X107742857Y-108882619D02*
X107885714Y-108930238D01*
X107885714Y-108930238D02*
X107933333Y-108977857D01*
X108790476Y-109215952D02*
X108790476Y-109882619D01*
X108552381Y-108835000D02*
X108314286Y-109549285D01*
X108314286Y-109549285D02*
X108933333Y-109549285D01*
%TO.C,C24*%
X168357142Y-97167380D02*
X168309523Y-97215000D01*
X168309523Y-97215000D02*
X168166666Y-97262619D01*
X168166666Y-97262619D02*
X168071428Y-97262619D01*
X168071428Y-97262619D02*
X167928571Y-97215000D01*
X167928571Y-97215000D02*
X167833333Y-97119761D01*
X167833333Y-97119761D02*
X167785714Y-97024523D01*
X167785714Y-97024523D02*
X167738095Y-96834047D01*
X167738095Y-96834047D02*
X167738095Y-96691190D01*
X167738095Y-96691190D02*
X167785714Y-96500714D01*
X167785714Y-96500714D02*
X167833333Y-96405476D01*
X167833333Y-96405476D02*
X167928571Y-96310238D01*
X167928571Y-96310238D02*
X168071428Y-96262619D01*
X168071428Y-96262619D02*
X168166666Y-96262619D01*
X168166666Y-96262619D02*
X168309523Y-96310238D01*
X168309523Y-96310238D02*
X168357142Y-96357857D01*
X168738095Y-96357857D02*
X168785714Y-96310238D01*
X168785714Y-96310238D02*
X168880952Y-96262619D01*
X168880952Y-96262619D02*
X169119047Y-96262619D01*
X169119047Y-96262619D02*
X169214285Y-96310238D01*
X169214285Y-96310238D02*
X169261904Y-96357857D01*
X169261904Y-96357857D02*
X169309523Y-96453095D01*
X169309523Y-96453095D02*
X169309523Y-96548333D01*
X169309523Y-96548333D02*
X169261904Y-96691190D01*
X169261904Y-96691190D02*
X168690476Y-97262619D01*
X168690476Y-97262619D02*
X169309523Y-97262619D01*
X170166666Y-96595952D02*
X170166666Y-97262619D01*
X169928571Y-96215000D02*
X169690476Y-96929285D01*
X169690476Y-96929285D02*
X170309523Y-96929285D01*
%TO.C,Q3*%
X140154761Y-63557857D02*
X140059523Y-63510238D01*
X140059523Y-63510238D02*
X139964285Y-63415000D01*
X139964285Y-63415000D02*
X139821428Y-63272142D01*
X139821428Y-63272142D02*
X139726190Y-63224523D01*
X139726190Y-63224523D02*
X139630952Y-63224523D01*
X139678571Y-63462619D02*
X139583333Y-63415000D01*
X139583333Y-63415000D02*
X139488095Y-63319761D01*
X139488095Y-63319761D02*
X139440476Y-63129285D01*
X139440476Y-63129285D02*
X139440476Y-62795952D01*
X139440476Y-62795952D02*
X139488095Y-62605476D01*
X139488095Y-62605476D02*
X139583333Y-62510238D01*
X139583333Y-62510238D02*
X139678571Y-62462619D01*
X139678571Y-62462619D02*
X139869047Y-62462619D01*
X139869047Y-62462619D02*
X139964285Y-62510238D01*
X139964285Y-62510238D02*
X140059523Y-62605476D01*
X140059523Y-62605476D02*
X140107142Y-62795952D01*
X140107142Y-62795952D02*
X140107142Y-63129285D01*
X140107142Y-63129285D02*
X140059523Y-63319761D01*
X140059523Y-63319761D02*
X139964285Y-63415000D01*
X139964285Y-63415000D02*
X139869047Y-63462619D01*
X139869047Y-63462619D02*
X139678571Y-63462619D01*
X140440476Y-62462619D02*
X141059523Y-62462619D01*
X141059523Y-62462619D02*
X140726190Y-62843571D01*
X140726190Y-62843571D02*
X140869047Y-62843571D01*
X140869047Y-62843571D02*
X140964285Y-62891190D01*
X140964285Y-62891190D02*
X141011904Y-62938809D01*
X141011904Y-62938809D02*
X141059523Y-63034047D01*
X141059523Y-63034047D02*
X141059523Y-63272142D01*
X141059523Y-63272142D02*
X141011904Y-63367380D01*
X141011904Y-63367380D02*
X140964285Y-63415000D01*
X140964285Y-63415000D02*
X140869047Y-63462619D01*
X140869047Y-63462619D02*
X140583333Y-63462619D01*
X140583333Y-63462619D02*
X140488095Y-63415000D01*
X140488095Y-63415000D02*
X140440476Y-63367380D01*
%TO.C,C19*%
X116057142Y-84967380D02*
X116009523Y-85015000D01*
X116009523Y-85015000D02*
X115866666Y-85062619D01*
X115866666Y-85062619D02*
X115771428Y-85062619D01*
X115771428Y-85062619D02*
X115628571Y-85015000D01*
X115628571Y-85015000D02*
X115533333Y-84919761D01*
X115533333Y-84919761D02*
X115485714Y-84824523D01*
X115485714Y-84824523D02*
X115438095Y-84634047D01*
X115438095Y-84634047D02*
X115438095Y-84491190D01*
X115438095Y-84491190D02*
X115485714Y-84300714D01*
X115485714Y-84300714D02*
X115533333Y-84205476D01*
X115533333Y-84205476D02*
X115628571Y-84110238D01*
X115628571Y-84110238D02*
X115771428Y-84062619D01*
X115771428Y-84062619D02*
X115866666Y-84062619D01*
X115866666Y-84062619D02*
X116009523Y-84110238D01*
X116009523Y-84110238D02*
X116057142Y-84157857D01*
X117009523Y-85062619D02*
X116438095Y-85062619D01*
X116723809Y-85062619D02*
X116723809Y-84062619D01*
X116723809Y-84062619D02*
X116628571Y-84205476D01*
X116628571Y-84205476D02*
X116533333Y-84300714D01*
X116533333Y-84300714D02*
X116438095Y-84348333D01*
X117485714Y-85062619D02*
X117676190Y-85062619D01*
X117676190Y-85062619D02*
X117771428Y-85015000D01*
X117771428Y-85015000D02*
X117819047Y-84967380D01*
X117819047Y-84967380D02*
X117914285Y-84824523D01*
X117914285Y-84824523D02*
X117961904Y-84634047D01*
X117961904Y-84634047D02*
X117961904Y-84253095D01*
X117961904Y-84253095D02*
X117914285Y-84157857D01*
X117914285Y-84157857D02*
X117866666Y-84110238D01*
X117866666Y-84110238D02*
X117771428Y-84062619D01*
X117771428Y-84062619D02*
X117580952Y-84062619D01*
X117580952Y-84062619D02*
X117485714Y-84110238D01*
X117485714Y-84110238D02*
X117438095Y-84157857D01*
X117438095Y-84157857D02*
X117390476Y-84253095D01*
X117390476Y-84253095D02*
X117390476Y-84491190D01*
X117390476Y-84491190D02*
X117438095Y-84586428D01*
X117438095Y-84586428D02*
X117485714Y-84634047D01*
X117485714Y-84634047D02*
X117580952Y-84681666D01*
X117580952Y-84681666D02*
X117771428Y-84681666D01*
X117771428Y-84681666D02*
X117866666Y-84634047D01*
X117866666Y-84634047D02*
X117914285Y-84586428D01*
X117914285Y-84586428D02*
X117961904Y-84491190D01*
%TO.C,TP9*%
X134638095Y-123662619D02*
X135209523Y-123662619D01*
X134923809Y-124662619D02*
X134923809Y-123662619D01*
X135542857Y-124662619D02*
X135542857Y-123662619D01*
X135542857Y-123662619D02*
X135923809Y-123662619D01*
X135923809Y-123662619D02*
X136019047Y-123710238D01*
X136019047Y-123710238D02*
X136066666Y-123757857D01*
X136066666Y-123757857D02*
X136114285Y-123853095D01*
X136114285Y-123853095D02*
X136114285Y-123995952D01*
X136114285Y-123995952D02*
X136066666Y-124091190D01*
X136066666Y-124091190D02*
X136019047Y-124138809D01*
X136019047Y-124138809D02*
X135923809Y-124186428D01*
X135923809Y-124186428D02*
X135542857Y-124186428D01*
X136590476Y-124662619D02*
X136780952Y-124662619D01*
X136780952Y-124662619D02*
X136876190Y-124615000D01*
X136876190Y-124615000D02*
X136923809Y-124567380D01*
X136923809Y-124567380D02*
X137019047Y-124424523D01*
X137019047Y-124424523D02*
X137066666Y-124234047D01*
X137066666Y-124234047D02*
X137066666Y-123853095D01*
X137066666Y-123853095D02*
X137019047Y-123757857D01*
X137019047Y-123757857D02*
X136971428Y-123710238D01*
X136971428Y-123710238D02*
X136876190Y-123662619D01*
X136876190Y-123662619D02*
X136685714Y-123662619D01*
X136685714Y-123662619D02*
X136590476Y-123710238D01*
X136590476Y-123710238D02*
X136542857Y-123757857D01*
X136542857Y-123757857D02*
X136495238Y-123853095D01*
X136495238Y-123853095D02*
X136495238Y-124091190D01*
X136495238Y-124091190D02*
X136542857Y-124186428D01*
X136542857Y-124186428D02*
X136590476Y-124234047D01*
X136590476Y-124234047D02*
X136685714Y-124281666D01*
X136685714Y-124281666D02*
X136876190Y-124281666D01*
X136876190Y-124281666D02*
X136971428Y-124234047D01*
X136971428Y-124234047D02*
X137019047Y-124186428D01*
X137019047Y-124186428D02*
X137066666Y-124091190D01*
%TO.C,J3*%
X107416666Y-132962619D02*
X107416666Y-133676904D01*
X107416666Y-133676904D02*
X107369047Y-133819761D01*
X107369047Y-133819761D02*
X107273809Y-133915000D01*
X107273809Y-133915000D02*
X107130952Y-133962619D01*
X107130952Y-133962619D02*
X107035714Y-133962619D01*
X107797619Y-132962619D02*
X108416666Y-132962619D01*
X108416666Y-132962619D02*
X108083333Y-133343571D01*
X108083333Y-133343571D02*
X108226190Y-133343571D01*
X108226190Y-133343571D02*
X108321428Y-133391190D01*
X108321428Y-133391190D02*
X108369047Y-133438809D01*
X108369047Y-133438809D02*
X108416666Y-133534047D01*
X108416666Y-133534047D02*
X108416666Y-133772142D01*
X108416666Y-133772142D02*
X108369047Y-133867380D01*
X108369047Y-133867380D02*
X108321428Y-133915000D01*
X108321428Y-133915000D02*
X108226190Y-133962619D01*
X108226190Y-133962619D02*
X107940476Y-133962619D01*
X107940476Y-133962619D02*
X107845238Y-133915000D01*
X107845238Y-133915000D02*
X107797619Y-133867380D01*
%TO.C,U13*%
X160061905Y-99443419D02*
X160061905Y-100252942D01*
X160061905Y-100252942D02*
X160109524Y-100348180D01*
X160109524Y-100348180D02*
X160157143Y-100395800D01*
X160157143Y-100395800D02*
X160252381Y-100443419D01*
X160252381Y-100443419D02*
X160442857Y-100443419D01*
X160442857Y-100443419D02*
X160538095Y-100395800D01*
X160538095Y-100395800D02*
X160585714Y-100348180D01*
X160585714Y-100348180D02*
X160633333Y-100252942D01*
X160633333Y-100252942D02*
X160633333Y-99443419D01*
X161633333Y-100443419D02*
X161061905Y-100443419D01*
X161347619Y-100443419D02*
X161347619Y-99443419D01*
X161347619Y-99443419D02*
X161252381Y-99586276D01*
X161252381Y-99586276D02*
X161157143Y-99681514D01*
X161157143Y-99681514D02*
X161061905Y-99729133D01*
X161966667Y-99443419D02*
X162585714Y-99443419D01*
X162585714Y-99443419D02*
X162252381Y-99824371D01*
X162252381Y-99824371D02*
X162395238Y-99824371D01*
X162395238Y-99824371D02*
X162490476Y-99871990D01*
X162490476Y-99871990D02*
X162538095Y-99919609D01*
X162538095Y-99919609D02*
X162585714Y-100014847D01*
X162585714Y-100014847D02*
X162585714Y-100252942D01*
X162585714Y-100252942D02*
X162538095Y-100348180D01*
X162538095Y-100348180D02*
X162490476Y-100395800D01*
X162490476Y-100395800D02*
X162395238Y-100443419D01*
X162395238Y-100443419D02*
X162109524Y-100443419D01*
X162109524Y-100443419D02*
X162014286Y-100395800D01*
X162014286Y-100395800D02*
X161966667Y-100348180D01*
%TO.C,Q4*%
X137004761Y-74657857D02*
X136909523Y-74610238D01*
X136909523Y-74610238D02*
X136814285Y-74515000D01*
X136814285Y-74515000D02*
X136671428Y-74372142D01*
X136671428Y-74372142D02*
X136576190Y-74324523D01*
X136576190Y-74324523D02*
X136480952Y-74324523D01*
X136528571Y-74562619D02*
X136433333Y-74515000D01*
X136433333Y-74515000D02*
X136338095Y-74419761D01*
X136338095Y-74419761D02*
X136290476Y-74229285D01*
X136290476Y-74229285D02*
X136290476Y-73895952D01*
X136290476Y-73895952D02*
X136338095Y-73705476D01*
X136338095Y-73705476D02*
X136433333Y-73610238D01*
X136433333Y-73610238D02*
X136528571Y-73562619D01*
X136528571Y-73562619D02*
X136719047Y-73562619D01*
X136719047Y-73562619D02*
X136814285Y-73610238D01*
X136814285Y-73610238D02*
X136909523Y-73705476D01*
X136909523Y-73705476D02*
X136957142Y-73895952D01*
X136957142Y-73895952D02*
X136957142Y-74229285D01*
X136957142Y-74229285D02*
X136909523Y-74419761D01*
X136909523Y-74419761D02*
X136814285Y-74515000D01*
X136814285Y-74515000D02*
X136719047Y-74562619D01*
X136719047Y-74562619D02*
X136528571Y-74562619D01*
X137814285Y-73895952D02*
X137814285Y-74562619D01*
X137576190Y-73515000D02*
X137338095Y-74229285D01*
X137338095Y-74229285D02*
X137957142Y-74229285D01*
%TO.C,R7*%
X117733333Y-66162619D02*
X117400000Y-65686428D01*
X117161905Y-66162619D02*
X117161905Y-65162619D01*
X117161905Y-65162619D02*
X117542857Y-65162619D01*
X117542857Y-65162619D02*
X117638095Y-65210238D01*
X117638095Y-65210238D02*
X117685714Y-65257857D01*
X117685714Y-65257857D02*
X117733333Y-65353095D01*
X117733333Y-65353095D02*
X117733333Y-65495952D01*
X117733333Y-65495952D02*
X117685714Y-65591190D01*
X117685714Y-65591190D02*
X117638095Y-65638809D01*
X117638095Y-65638809D02*
X117542857Y-65686428D01*
X117542857Y-65686428D02*
X117161905Y-65686428D01*
X118066667Y-65162619D02*
X118733333Y-65162619D01*
X118733333Y-65162619D02*
X118304762Y-66162619D01*
%TO.C,C25*%
X115957142Y-144967380D02*
X115909523Y-145015000D01*
X115909523Y-145015000D02*
X115766666Y-145062619D01*
X115766666Y-145062619D02*
X115671428Y-145062619D01*
X115671428Y-145062619D02*
X115528571Y-145015000D01*
X115528571Y-145015000D02*
X115433333Y-144919761D01*
X115433333Y-144919761D02*
X115385714Y-144824523D01*
X115385714Y-144824523D02*
X115338095Y-144634047D01*
X115338095Y-144634047D02*
X115338095Y-144491190D01*
X115338095Y-144491190D02*
X115385714Y-144300714D01*
X115385714Y-144300714D02*
X115433333Y-144205476D01*
X115433333Y-144205476D02*
X115528571Y-144110238D01*
X115528571Y-144110238D02*
X115671428Y-144062619D01*
X115671428Y-144062619D02*
X115766666Y-144062619D01*
X115766666Y-144062619D02*
X115909523Y-144110238D01*
X115909523Y-144110238D02*
X115957142Y-144157857D01*
X116338095Y-144157857D02*
X116385714Y-144110238D01*
X116385714Y-144110238D02*
X116480952Y-144062619D01*
X116480952Y-144062619D02*
X116719047Y-144062619D01*
X116719047Y-144062619D02*
X116814285Y-144110238D01*
X116814285Y-144110238D02*
X116861904Y-144157857D01*
X116861904Y-144157857D02*
X116909523Y-144253095D01*
X116909523Y-144253095D02*
X116909523Y-144348333D01*
X116909523Y-144348333D02*
X116861904Y-144491190D01*
X116861904Y-144491190D02*
X116290476Y-145062619D01*
X116290476Y-145062619D02*
X116909523Y-145062619D01*
X117814285Y-144062619D02*
X117338095Y-144062619D01*
X117338095Y-144062619D02*
X117290476Y-144538809D01*
X117290476Y-144538809D02*
X117338095Y-144491190D01*
X117338095Y-144491190D02*
X117433333Y-144443571D01*
X117433333Y-144443571D02*
X117671428Y-144443571D01*
X117671428Y-144443571D02*
X117766666Y-144491190D01*
X117766666Y-144491190D02*
X117814285Y-144538809D01*
X117814285Y-144538809D02*
X117861904Y-144634047D01*
X117861904Y-144634047D02*
X117861904Y-144872142D01*
X117861904Y-144872142D02*
X117814285Y-144967380D01*
X117814285Y-144967380D02*
X117766666Y-145015000D01*
X117766666Y-145015000D02*
X117671428Y-145062619D01*
X117671428Y-145062619D02*
X117433333Y-145062619D01*
X117433333Y-145062619D02*
X117338095Y-145015000D01*
X117338095Y-145015000D02*
X117290476Y-144967380D01*
%TO.C,U12*%
X130056905Y-119562619D02*
X130056905Y-120372142D01*
X130056905Y-120372142D02*
X130104524Y-120467380D01*
X130104524Y-120467380D02*
X130152143Y-120515000D01*
X130152143Y-120515000D02*
X130247381Y-120562619D01*
X130247381Y-120562619D02*
X130437857Y-120562619D01*
X130437857Y-120562619D02*
X130533095Y-120515000D01*
X130533095Y-120515000D02*
X130580714Y-120467380D01*
X130580714Y-120467380D02*
X130628333Y-120372142D01*
X130628333Y-120372142D02*
X130628333Y-119562619D01*
X131628333Y-120562619D02*
X131056905Y-120562619D01*
X131342619Y-120562619D02*
X131342619Y-119562619D01*
X131342619Y-119562619D02*
X131247381Y-119705476D01*
X131247381Y-119705476D02*
X131152143Y-119800714D01*
X131152143Y-119800714D02*
X131056905Y-119848333D01*
X132009286Y-119657857D02*
X132056905Y-119610238D01*
X132056905Y-119610238D02*
X132152143Y-119562619D01*
X132152143Y-119562619D02*
X132390238Y-119562619D01*
X132390238Y-119562619D02*
X132485476Y-119610238D01*
X132485476Y-119610238D02*
X132533095Y-119657857D01*
X132533095Y-119657857D02*
X132580714Y-119753095D01*
X132580714Y-119753095D02*
X132580714Y-119848333D01*
X132580714Y-119848333D02*
X132533095Y-119991190D01*
X132533095Y-119991190D02*
X131961667Y-120562619D01*
X131961667Y-120562619D02*
X132580714Y-120562619D01*
%TO.C,C27*%
X132857142Y-156667380D02*
X132809523Y-156715000D01*
X132809523Y-156715000D02*
X132666666Y-156762619D01*
X132666666Y-156762619D02*
X132571428Y-156762619D01*
X132571428Y-156762619D02*
X132428571Y-156715000D01*
X132428571Y-156715000D02*
X132333333Y-156619761D01*
X132333333Y-156619761D02*
X132285714Y-156524523D01*
X132285714Y-156524523D02*
X132238095Y-156334047D01*
X132238095Y-156334047D02*
X132238095Y-156191190D01*
X132238095Y-156191190D02*
X132285714Y-156000714D01*
X132285714Y-156000714D02*
X132333333Y-155905476D01*
X132333333Y-155905476D02*
X132428571Y-155810238D01*
X132428571Y-155810238D02*
X132571428Y-155762619D01*
X132571428Y-155762619D02*
X132666666Y-155762619D01*
X132666666Y-155762619D02*
X132809523Y-155810238D01*
X132809523Y-155810238D02*
X132857142Y-155857857D01*
X133238095Y-155857857D02*
X133285714Y-155810238D01*
X133285714Y-155810238D02*
X133380952Y-155762619D01*
X133380952Y-155762619D02*
X133619047Y-155762619D01*
X133619047Y-155762619D02*
X133714285Y-155810238D01*
X133714285Y-155810238D02*
X133761904Y-155857857D01*
X133761904Y-155857857D02*
X133809523Y-155953095D01*
X133809523Y-155953095D02*
X133809523Y-156048333D01*
X133809523Y-156048333D02*
X133761904Y-156191190D01*
X133761904Y-156191190D02*
X133190476Y-156762619D01*
X133190476Y-156762619D02*
X133809523Y-156762619D01*
X134142857Y-155762619D02*
X134809523Y-155762619D01*
X134809523Y-155762619D02*
X134380952Y-156762619D01*
%TO.C,FB2*%
X138366666Y-148663809D02*
X138033333Y-148663809D01*
X138033333Y-149187619D02*
X138033333Y-148187619D01*
X138033333Y-148187619D02*
X138509523Y-148187619D01*
X139223809Y-148663809D02*
X139366666Y-148711428D01*
X139366666Y-148711428D02*
X139414285Y-148759047D01*
X139414285Y-148759047D02*
X139461904Y-148854285D01*
X139461904Y-148854285D02*
X139461904Y-148997142D01*
X139461904Y-148997142D02*
X139414285Y-149092380D01*
X139414285Y-149092380D02*
X139366666Y-149140000D01*
X139366666Y-149140000D02*
X139271428Y-149187619D01*
X139271428Y-149187619D02*
X138890476Y-149187619D01*
X138890476Y-149187619D02*
X138890476Y-148187619D01*
X138890476Y-148187619D02*
X139223809Y-148187619D01*
X139223809Y-148187619D02*
X139319047Y-148235238D01*
X139319047Y-148235238D02*
X139366666Y-148282857D01*
X139366666Y-148282857D02*
X139414285Y-148378095D01*
X139414285Y-148378095D02*
X139414285Y-148473333D01*
X139414285Y-148473333D02*
X139366666Y-148568571D01*
X139366666Y-148568571D02*
X139319047Y-148616190D01*
X139319047Y-148616190D02*
X139223809Y-148663809D01*
X139223809Y-148663809D02*
X138890476Y-148663809D01*
X139842857Y-148282857D02*
X139890476Y-148235238D01*
X139890476Y-148235238D02*
X139985714Y-148187619D01*
X139985714Y-148187619D02*
X140223809Y-148187619D01*
X140223809Y-148187619D02*
X140319047Y-148235238D01*
X140319047Y-148235238D02*
X140366666Y-148282857D01*
X140366666Y-148282857D02*
X140414285Y-148378095D01*
X140414285Y-148378095D02*
X140414285Y-148473333D01*
X140414285Y-148473333D02*
X140366666Y-148616190D01*
X140366666Y-148616190D02*
X139795238Y-149187619D01*
X139795238Y-149187619D02*
X140414285Y-149187619D01*
%TO.C,C14*%
X132257142Y-70867380D02*
X132209523Y-70915000D01*
X132209523Y-70915000D02*
X132066666Y-70962619D01*
X132066666Y-70962619D02*
X131971428Y-70962619D01*
X131971428Y-70962619D02*
X131828571Y-70915000D01*
X131828571Y-70915000D02*
X131733333Y-70819761D01*
X131733333Y-70819761D02*
X131685714Y-70724523D01*
X131685714Y-70724523D02*
X131638095Y-70534047D01*
X131638095Y-70534047D02*
X131638095Y-70391190D01*
X131638095Y-70391190D02*
X131685714Y-70200714D01*
X131685714Y-70200714D02*
X131733333Y-70105476D01*
X131733333Y-70105476D02*
X131828571Y-70010238D01*
X131828571Y-70010238D02*
X131971428Y-69962619D01*
X131971428Y-69962619D02*
X132066666Y-69962619D01*
X132066666Y-69962619D02*
X132209523Y-70010238D01*
X132209523Y-70010238D02*
X132257142Y-70057857D01*
X133209523Y-70962619D02*
X132638095Y-70962619D01*
X132923809Y-70962619D02*
X132923809Y-69962619D01*
X132923809Y-69962619D02*
X132828571Y-70105476D01*
X132828571Y-70105476D02*
X132733333Y-70200714D01*
X132733333Y-70200714D02*
X132638095Y-70248333D01*
X134066666Y-70295952D02*
X134066666Y-70962619D01*
X133828571Y-69915000D02*
X133590476Y-70629285D01*
X133590476Y-70629285D02*
X134209523Y-70629285D01*
%TO.C,TP7*%
X164638095Y-103664619D02*
X165209523Y-103664619D01*
X164923809Y-104664619D02*
X164923809Y-103664619D01*
X165542857Y-104664619D02*
X165542857Y-103664619D01*
X165542857Y-103664619D02*
X165923809Y-103664619D01*
X165923809Y-103664619D02*
X166019047Y-103712238D01*
X166019047Y-103712238D02*
X166066666Y-103759857D01*
X166066666Y-103759857D02*
X166114285Y-103855095D01*
X166114285Y-103855095D02*
X166114285Y-103997952D01*
X166114285Y-103997952D02*
X166066666Y-104093190D01*
X166066666Y-104093190D02*
X166019047Y-104140809D01*
X166019047Y-104140809D02*
X165923809Y-104188428D01*
X165923809Y-104188428D02*
X165542857Y-104188428D01*
X166447619Y-103664619D02*
X167114285Y-103664619D01*
X167114285Y-103664619D02*
X166685714Y-104664619D01*
%TO.C,U5*%
X161038095Y-119481819D02*
X161038095Y-120291342D01*
X161038095Y-120291342D02*
X161085714Y-120386580D01*
X161085714Y-120386580D02*
X161133333Y-120434200D01*
X161133333Y-120434200D02*
X161228571Y-120481819D01*
X161228571Y-120481819D02*
X161419047Y-120481819D01*
X161419047Y-120481819D02*
X161514285Y-120434200D01*
X161514285Y-120434200D02*
X161561904Y-120386580D01*
X161561904Y-120386580D02*
X161609523Y-120291342D01*
X161609523Y-120291342D02*
X161609523Y-119481819D01*
X162561904Y-119481819D02*
X162085714Y-119481819D01*
X162085714Y-119481819D02*
X162038095Y-119958009D01*
X162038095Y-119958009D02*
X162085714Y-119910390D01*
X162085714Y-119910390D02*
X162180952Y-119862771D01*
X162180952Y-119862771D02*
X162419047Y-119862771D01*
X162419047Y-119862771D02*
X162514285Y-119910390D01*
X162514285Y-119910390D02*
X162561904Y-119958009D01*
X162561904Y-119958009D02*
X162609523Y-120053247D01*
X162609523Y-120053247D02*
X162609523Y-120291342D01*
X162609523Y-120291342D02*
X162561904Y-120386580D01*
X162561904Y-120386580D02*
X162514285Y-120434200D01*
X162514285Y-120434200D02*
X162419047Y-120481819D01*
X162419047Y-120481819D02*
X162180952Y-120481819D01*
X162180952Y-120481819D02*
X162085714Y-120434200D01*
X162085714Y-120434200D02*
X162038095Y-120386580D01*
%TO.C,D5*%
X101461905Y-83262619D02*
X101461905Y-82262619D01*
X101461905Y-82262619D02*
X101700000Y-82262619D01*
X101700000Y-82262619D02*
X101842857Y-82310238D01*
X101842857Y-82310238D02*
X101938095Y-82405476D01*
X101938095Y-82405476D02*
X101985714Y-82500714D01*
X101985714Y-82500714D02*
X102033333Y-82691190D01*
X102033333Y-82691190D02*
X102033333Y-82834047D01*
X102033333Y-82834047D02*
X101985714Y-83024523D01*
X101985714Y-83024523D02*
X101938095Y-83119761D01*
X101938095Y-83119761D02*
X101842857Y-83215000D01*
X101842857Y-83215000D02*
X101700000Y-83262619D01*
X101700000Y-83262619D02*
X101461905Y-83262619D01*
X102938095Y-82262619D02*
X102461905Y-82262619D01*
X102461905Y-82262619D02*
X102414286Y-82738809D01*
X102414286Y-82738809D02*
X102461905Y-82691190D01*
X102461905Y-82691190D02*
X102557143Y-82643571D01*
X102557143Y-82643571D02*
X102795238Y-82643571D01*
X102795238Y-82643571D02*
X102890476Y-82691190D01*
X102890476Y-82691190D02*
X102938095Y-82738809D01*
X102938095Y-82738809D02*
X102985714Y-82834047D01*
X102985714Y-82834047D02*
X102985714Y-83072142D01*
X102985714Y-83072142D02*
X102938095Y-83167380D01*
X102938095Y-83167380D02*
X102890476Y-83215000D01*
X102890476Y-83215000D02*
X102795238Y-83262619D01*
X102795238Y-83262619D02*
X102557143Y-83262619D01*
X102557143Y-83262619D02*
X102461905Y-83215000D01*
X102461905Y-83215000D02*
X102414286Y-83167380D01*
%TO.C,C6*%
X146633333Y-64567380D02*
X146585714Y-64615000D01*
X146585714Y-64615000D02*
X146442857Y-64662619D01*
X146442857Y-64662619D02*
X146347619Y-64662619D01*
X146347619Y-64662619D02*
X146204762Y-64615000D01*
X146204762Y-64615000D02*
X146109524Y-64519761D01*
X146109524Y-64519761D02*
X146061905Y-64424523D01*
X146061905Y-64424523D02*
X146014286Y-64234047D01*
X146014286Y-64234047D02*
X146014286Y-64091190D01*
X146014286Y-64091190D02*
X146061905Y-63900714D01*
X146061905Y-63900714D02*
X146109524Y-63805476D01*
X146109524Y-63805476D02*
X146204762Y-63710238D01*
X146204762Y-63710238D02*
X146347619Y-63662619D01*
X146347619Y-63662619D02*
X146442857Y-63662619D01*
X146442857Y-63662619D02*
X146585714Y-63710238D01*
X146585714Y-63710238D02*
X146633333Y-63757857D01*
X147490476Y-63662619D02*
X147300000Y-63662619D01*
X147300000Y-63662619D02*
X147204762Y-63710238D01*
X147204762Y-63710238D02*
X147157143Y-63757857D01*
X147157143Y-63757857D02*
X147061905Y-63900714D01*
X147061905Y-63900714D02*
X147014286Y-64091190D01*
X147014286Y-64091190D02*
X147014286Y-64472142D01*
X147014286Y-64472142D02*
X147061905Y-64567380D01*
X147061905Y-64567380D02*
X147109524Y-64615000D01*
X147109524Y-64615000D02*
X147204762Y-64662619D01*
X147204762Y-64662619D02*
X147395238Y-64662619D01*
X147395238Y-64662619D02*
X147490476Y-64615000D01*
X147490476Y-64615000D02*
X147538095Y-64567380D01*
X147538095Y-64567380D02*
X147585714Y-64472142D01*
X147585714Y-64472142D02*
X147585714Y-64234047D01*
X147585714Y-64234047D02*
X147538095Y-64138809D01*
X147538095Y-64138809D02*
X147490476Y-64091190D01*
X147490476Y-64091190D02*
X147395238Y-64043571D01*
X147395238Y-64043571D02*
X147204762Y-64043571D01*
X147204762Y-64043571D02*
X147109524Y-64091190D01*
X147109524Y-64091190D02*
X147061905Y-64138809D01*
X147061905Y-64138809D02*
X147014286Y-64234047D01*
%TO.C,R18*%
X102657142Y-114762619D02*
X102323809Y-114286428D01*
X102085714Y-114762619D02*
X102085714Y-113762619D01*
X102085714Y-113762619D02*
X102466666Y-113762619D01*
X102466666Y-113762619D02*
X102561904Y-113810238D01*
X102561904Y-113810238D02*
X102609523Y-113857857D01*
X102609523Y-113857857D02*
X102657142Y-113953095D01*
X102657142Y-113953095D02*
X102657142Y-114095952D01*
X102657142Y-114095952D02*
X102609523Y-114191190D01*
X102609523Y-114191190D02*
X102561904Y-114238809D01*
X102561904Y-114238809D02*
X102466666Y-114286428D01*
X102466666Y-114286428D02*
X102085714Y-114286428D01*
X103609523Y-114762619D02*
X103038095Y-114762619D01*
X103323809Y-114762619D02*
X103323809Y-113762619D01*
X103323809Y-113762619D02*
X103228571Y-113905476D01*
X103228571Y-113905476D02*
X103133333Y-114000714D01*
X103133333Y-114000714D02*
X103038095Y-114048333D01*
X104180952Y-114191190D02*
X104085714Y-114143571D01*
X104085714Y-114143571D02*
X104038095Y-114095952D01*
X104038095Y-114095952D02*
X103990476Y-114000714D01*
X103990476Y-114000714D02*
X103990476Y-113953095D01*
X103990476Y-113953095D02*
X104038095Y-113857857D01*
X104038095Y-113857857D02*
X104085714Y-113810238D01*
X104085714Y-113810238D02*
X104180952Y-113762619D01*
X104180952Y-113762619D02*
X104371428Y-113762619D01*
X104371428Y-113762619D02*
X104466666Y-113810238D01*
X104466666Y-113810238D02*
X104514285Y-113857857D01*
X104514285Y-113857857D02*
X104561904Y-113953095D01*
X104561904Y-113953095D02*
X104561904Y-114000714D01*
X104561904Y-114000714D02*
X104514285Y-114095952D01*
X104514285Y-114095952D02*
X104466666Y-114143571D01*
X104466666Y-114143571D02*
X104371428Y-114191190D01*
X104371428Y-114191190D02*
X104180952Y-114191190D01*
X104180952Y-114191190D02*
X104085714Y-114238809D01*
X104085714Y-114238809D02*
X104038095Y-114286428D01*
X104038095Y-114286428D02*
X103990476Y-114381666D01*
X103990476Y-114381666D02*
X103990476Y-114572142D01*
X103990476Y-114572142D02*
X104038095Y-114667380D01*
X104038095Y-114667380D02*
X104085714Y-114715000D01*
X104085714Y-114715000D02*
X104180952Y-114762619D01*
X104180952Y-114762619D02*
X104371428Y-114762619D01*
X104371428Y-114762619D02*
X104466666Y-114715000D01*
X104466666Y-114715000D02*
X104514285Y-114667380D01*
X104514285Y-114667380D02*
X104561904Y-114572142D01*
X104561904Y-114572142D02*
X104561904Y-114381666D01*
X104561904Y-114381666D02*
X104514285Y-114286428D01*
X104514285Y-114286428D02*
X104466666Y-114238809D01*
X104466666Y-114238809D02*
X104371428Y-114191190D01*
%TO.C,C7*%
X144233333Y-66567380D02*
X144185714Y-66615000D01*
X144185714Y-66615000D02*
X144042857Y-66662619D01*
X144042857Y-66662619D02*
X143947619Y-66662619D01*
X143947619Y-66662619D02*
X143804762Y-66615000D01*
X143804762Y-66615000D02*
X143709524Y-66519761D01*
X143709524Y-66519761D02*
X143661905Y-66424523D01*
X143661905Y-66424523D02*
X143614286Y-66234047D01*
X143614286Y-66234047D02*
X143614286Y-66091190D01*
X143614286Y-66091190D02*
X143661905Y-65900714D01*
X143661905Y-65900714D02*
X143709524Y-65805476D01*
X143709524Y-65805476D02*
X143804762Y-65710238D01*
X143804762Y-65710238D02*
X143947619Y-65662619D01*
X143947619Y-65662619D02*
X144042857Y-65662619D01*
X144042857Y-65662619D02*
X144185714Y-65710238D01*
X144185714Y-65710238D02*
X144233333Y-65757857D01*
X144566667Y-65662619D02*
X145233333Y-65662619D01*
X145233333Y-65662619D02*
X144804762Y-66662619D01*
%TO.C,TP8*%
X183838095Y-130464619D02*
X184409523Y-130464619D01*
X184123809Y-131464619D02*
X184123809Y-130464619D01*
X184742857Y-131464619D02*
X184742857Y-130464619D01*
X184742857Y-130464619D02*
X185123809Y-130464619D01*
X185123809Y-130464619D02*
X185219047Y-130512238D01*
X185219047Y-130512238D02*
X185266666Y-130559857D01*
X185266666Y-130559857D02*
X185314285Y-130655095D01*
X185314285Y-130655095D02*
X185314285Y-130797952D01*
X185314285Y-130797952D02*
X185266666Y-130893190D01*
X185266666Y-130893190D02*
X185219047Y-130940809D01*
X185219047Y-130940809D02*
X185123809Y-130988428D01*
X185123809Y-130988428D02*
X184742857Y-130988428D01*
X185885714Y-130893190D02*
X185790476Y-130845571D01*
X185790476Y-130845571D02*
X185742857Y-130797952D01*
X185742857Y-130797952D02*
X185695238Y-130702714D01*
X185695238Y-130702714D02*
X185695238Y-130655095D01*
X185695238Y-130655095D02*
X185742857Y-130559857D01*
X185742857Y-130559857D02*
X185790476Y-130512238D01*
X185790476Y-130512238D02*
X185885714Y-130464619D01*
X185885714Y-130464619D02*
X186076190Y-130464619D01*
X186076190Y-130464619D02*
X186171428Y-130512238D01*
X186171428Y-130512238D02*
X186219047Y-130559857D01*
X186219047Y-130559857D02*
X186266666Y-130655095D01*
X186266666Y-130655095D02*
X186266666Y-130702714D01*
X186266666Y-130702714D02*
X186219047Y-130797952D01*
X186219047Y-130797952D02*
X186171428Y-130845571D01*
X186171428Y-130845571D02*
X186076190Y-130893190D01*
X186076190Y-130893190D02*
X185885714Y-130893190D01*
X185885714Y-130893190D02*
X185790476Y-130940809D01*
X185790476Y-130940809D02*
X185742857Y-130988428D01*
X185742857Y-130988428D02*
X185695238Y-131083666D01*
X185695238Y-131083666D02*
X185695238Y-131274142D01*
X185695238Y-131274142D02*
X185742857Y-131369380D01*
X185742857Y-131369380D02*
X185790476Y-131417000D01*
X185790476Y-131417000D02*
X185885714Y-131464619D01*
X185885714Y-131464619D02*
X186076190Y-131464619D01*
X186076190Y-131464619D02*
X186171428Y-131417000D01*
X186171428Y-131417000D02*
X186219047Y-131369380D01*
X186219047Y-131369380D02*
X186266666Y-131274142D01*
X186266666Y-131274142D02*
X186266666Y-131083666D01*
X186266666Y-131083666D02*
X186219047Y-130988428D01*
X186219047Y-130988428D02*
X186171428Y-130940809D01*
X186171428Y-130940809D02*
X186076190Y-130893190D01*
%TO.C,TP10*%
X115261905Y-91962619D02*
X115833333Y-91962619D01*
X115547619Y-92962619D02*
X115547619Y-91962619D01*
X116166667Y-92962619D02*
X116166667Y-91962619D01*
X116166667Y-91962619D02*
X116547619Y-91962619D01*
X116547619Y-91962619D02*
X116642857Y-92010238D01*
X116642857Y-92010238D02*
X116690476Y-92057857D01*
X116690476Y-92057857D02*
X116738095Y-92153095D01*
X116738095Y-92153095D02*
X116738095Y-92295952D01*
X116738095Y-92295952D02*
X116690476Y-92391190D01*
X116690476Y-92391190D02*
X116642857Y-92438809D01*
X116642857Y-92438809D02*
X116547619Y-92486428D01*
X116547619Y-92486428D02*
X116166667Y-92486428D01*
X117690476Y-92962619D02*
X117119048Y-92962619D01*
X117404762Y-92962619D02*
X117404762Y-91962619D01*
X117404762Y-91962619D02*
X117309524Y-92105476D01*
X117309524Y-92105476D02*
X117214286Y-92200714D01*
X117214286Y-92200714D02*
X117119048Y-92248333D01*
X118309524Y-91962619D02*
X118404762Y-91962619D01*
X118404762Y-91962619D02*
X118500000Y-92010238D01*
X118500000Y-92010238D02*
X118547619Y-92057857D01*
X118547619Y-92057857D02*
X118595238Y-92153095D01*
X118595238Y-92153095D02*
X118642857Y-92343571D01*
X118642857Y-92343571D02*
X118642857Y-92581666D01*
X118642857Y-92581666D02*
X118595238Y-92772142D01*
X118595238Y-92772142D02*
X118547619Y-92867380D01*
X118547619Y-92867380D02*
X118500000Y-92915000D01*
X118500000Y-92915000D02*
X118404762Y-92962619D01*
X118404762Y-92962619D02*
X118309524Y-92962619D01*
X118309524Y-92962619D02*
X118214286Y-92915000D01*
X118214286Y-92915000D02*
X118166667Y-92867380D01*
X118166667Y-92867380D02*
X118119048Y-92772142D01*
X118119048Y-92772142D02*
X118071429Y-92581666D01*
X118071429Y-92581666D02*
X118071429Y-92343571D01*
X118071429Y-92343571D02*
X118119048Y-92153095D01*
X118119048Y-92153095D02*
X118166667Y-92057857D01*
X118166667Y-92057857D02*
X118214286Y-92010238D01*
X118214286Y-92010238D02*
X118309524Y-91962619D01*
%TO.C,R14*%
X109757142Y-79162619D02*
X109423809Y-78686428D01*
X109185714Y-79162619D02*
X109185714Y-78162619D01*
X109185714Y-78162619D02*
X109566666Y-78162619D01*
X109566666Y-78162619D02*
X109661904Y-78210238D01*
X109661904Y-78210238D02*
X109709523Y-78257857D01*
X109709523Y-78257857D02*
X109757142Y-78353095D01*
X109757142Y-78353095D02*
X109757142Y-78495952D01*
X109757142Y-78495952D02*
X109709523Y-78591190D01*
X109709523Y-78591190D02*
X109661904Y-78638809D01*
X109661904Y-78638809D02*
X109566666Y-78686428D01*
X109566666Y-78686428D02*
X109185714Y-78686428D01*
X110709523Y-79162619D02*
X110138095Y-79162619D01*
X110423809Y-79162619D02*
X110423809Y-78162619D01*
X110423809Y-78162619D02*
X110328571Y-78305476D01*
X110328571Y-78305476D02*
X110233333Y-78400714D01*
X110233333Y-78400714D02*
X110138095Y-78448333D01*
X111566666Y-78495952D02*
X111566666Y-79162619D01*
X111328571Y-78115000D02*
X111090476Y-78829285D01*
X111090476Y-78829285D02*
X111709523Y-78829285D01*
%TO.C,C18*%
X116057142Y-87867380D02*
X116009523Y-87915000D01*
X116009523Y-87915000D02*
X115866666Y-87962619D01*
X115866666Y-87962619D02*
X115771428Y-87962619D01*
X115771428Y-87962619D02*
X115628571Y-87915000D01*
X115628571Y-87915000D02*
X115533333Y-87819761D01*
X115533333Y-87819761D02*
X115485714Y-87724523D01*
X115485714Y-87724523D02*
X115438095Y-87534047D01*
X115438095Y-87534047D02*
X115438095Y-87391190D01*
X115438095Y-87391190D02*
X115485714Y-87200714D01*
X115485714Y-87200714D02*
X115533333Y-87105476D01*
X115533333Y-87105476D02*
X115628571Y-87010238D01*
X115628571Y-87010238D02*
X115771428Y-86962619D01*
X115771428Y-86962619D02*
X115866666Y-86962619D01*
X115866666Y-86962619D02*
X116009523Y-87010238D01*
X116009523Y-87010238D02*
X116057142Y-87057857D01*
X117009523Y-87962619D02*
X116438095Y-87962619D01*
X116723809Y-87962619D02*
X116723809Y-86962619D01*
X116723809Y-86962619D02*
X116628571Y-87105476D01*
X116628571Y-87105476D02*
X116533333Y-87200714D01*
X116533333Y-87200714D02*
X116438095Y-87248333D01*
X117580952Y-87391190D02*
X117485714Y-87343571D01*
X117485714Y-87343571D02*
X117438095Y-87295952D01*
X117438095Y-87295952D02*
X117390476Y-87200714D01*
X117390476Y-87200714D02*
X117390476Y-87153095D01*
X117390476Y-87153095D02*
X117438095Y-87057857D01*
X117438095Y-87057857D02*
X117485714Y-87010238D01*
X117485714Y-87010238D02*
X117580952Y-86962619D01*
X117580952Y-86962619D02*
X117771428Y-86962619D01*
X117771428Y-86962619D02*
X117866666Y-87010238D01*
X117866666Y-87010238D02*
X117914285Y-87057857D01*
X117914285Y-87057857D02*
X117961904Y-87153095D01*
X117961904Y-87153095D02*
X117961904Y-87200714D01*
X117961904Y-87200714D02*
X117914285Y-87295952D01*
X117914285Y-87295952D02*
X117866666Y-87343571D01*
X117866666Y-87343571D02*
X117771428Y-87391190D01*
X117771428Y-87391190D02*
X117580952Y-87391190D01*
X117580952Y-87391190D02*
X117485714Y-87438809D01*
X117485714Y-87438809D02*
X117438095Y-87486428D01*
X117438095Y-87486428D02*
X117390476Y-87581666D01*
X117390476Y-87581666D02*
X117390476Y-87772142D01*
X117390476Y-87772142D02*
X117438095Y-87867380D01*
X117438095Y-87867380D02*
X117485714Y-87915000D01*
X117485714Y-87915000D02*
X117580952Y-87962619D01*
X117580952Y-87962619D02*
X117771428Y-87962619D01*
X117771428Y-87962619D02*
X117866666Y-87915000D01*
X117866666Y-87915000D02*
X117914285Y-87867380D01*
X117914285Y-87867380D02*
X117961904Y-87772142D01*
X117961904Y-87772142D02*
X117961904Y-87581666D01*
X117961904Y-87581666D02*
X117914285Y-87486428D01*
X117914285Y-87486428D02*
X117866666Y-87438809D01*
X117866666Y-87438809D02*
X117771428Y-87391190D01*
%TO.C,C22*%
X138157142Y-97367380D02*
X138109523Y-97415000D01*
X138109523Y-97415000D02*
X137966666Y-97462619D01*
X137966666Y-97462619D02*
X137871428Y-97462619D01*
X137871428Y-97462619D02*
X137728571Y-97415000D01*
X137728571Y-97415000D02*
X137633333Y-97319761D01*
X137633333Y-97319761D02*
X137585714Y-97224523D01*
X137585714Y-97224523D02*
X137538095Y-97034047D01*
X137538095Y-97034047D02*
X137538095Y-96891190D01*
X137538095Y-96891190D02*
X137585714Y-96700714D01*
X137585714Y-96700714D02*
X137633333Y-96605476D01*
X137633333Y-96605476D02*
X137728571Y-96510238D01*
X137728571Y-96510238D02*
X137871428Y-96462619D01*
X137871428Y-96462619D02*
X137966666Y-96462619D01*
X137966666Y-96462619D02*
X138109523Y-96510238D01*
X138109523Y-96510238D02*
X138157142Y-96557857D01*
X138538095Y-96557857D02*
X138585714Y-96510238D01*
X138585714Y-96510238D02*
X138680952Y-96462619D01*
X138680952Y-96462619D02*
X138919047Y-96462619D01*
X138919047Y-96462619D02*
X139014285Y-96510238D01*
X139014285Y-96510238D02*
X139061904Y-96557857D01*
X139061904Y-96557857D02*
X139109523Y-96653095D01*
X139109523Y-96653095D02*
X139109523Y-96748333D01*
X139109523Y-96748333D02*
X139061904Y-96891190D01*
X139061904Y-96891190D02*
X138490476Y-97462619D01*
X138490476Y-97462619D02*
X139109523Y-97462619D01*
X139490476Y-96557857D02*
X139538095Y-96510238D01*
X139538095Y-96510238D02*
X139633333Y-96462619D01*
X139633333Y-96462619D02*
X139871428Y-96462619D01*
X139871428Y-96462619D02*
X139966666Y-96510238D01*
X139966666Y-96510238D02*
X140014285Y-96557857D01*
X140014285Y-96557857D02*
X140061904Y-96653095D01*
X140061904Y-96653095D02*
X140061904Y-96748333D01*
X140061904Y-96748333D02*
X140014285Y-96891190D01*
X140014285Y-96891190D02*
X139442857Y-97462619D01*
X139442857Y-97462619D02*
X140061904Y-97462619D01*
%TO.C,TP6*%
X134738095Y-103864619D02*
X135309523Y-103864619D01*
X135023809Y-104864619D02*
X135023809Y-103864619D01*
X135642857Y-104864619D02*
X135642857Y-103864619D01*
X135642857Y-103864619D02*
X136023809Y-103864619D01*
X136023809Y-103864619D02*
X136119047Y-103912238D01*
X136119047Y-103912238D02*
X136166666Y-103959857D01*
X136166666Y-103959857D02*
X136214285Y-104055095D01*
X136214285Y-104055095D02*
X136214285Y-104197952D01*
X136214285Y-104197952D02*
X136166666Y-104293190D01*
X136166666Y-104293190D02*
X136119047Y-104340809D01*
X136119047Y-104340809D02*
X136023809Y-104388428D01*
X136023809Y-104388428D02*
X135642857Y-104388428D01*
X137071428Y-103864619D02*
X136880952Y-103864619D01*
X136880952Y-103864619D02*
X136785714Y-103912238D01*
X136785714Y-103912238D02*
X136738095Y-103959857D01*
X136738095Y-103959857D02*
X136642857Y-104102714D01*
X136642857Y-104102714D02*
X136595238Y-104293190D01*
X136595238Y-104293190D02*
X136595238Y-104674142D01*
X136595238Y-104674142D02*
X136642857Y-104769380D01*
X136642857Y-104769380D02*
X136690476Y-104817000D01*
X136690476Y-104817000D02*
X136785714Y-104864619D01*
X136785714Y-104864619D02*
X136976190Y-104864619D01*
X136976190Y-104864619D02*
X137071428Y-104817000D01*
X137071428Y-104817000D02*
X137119047Y-104769380D01*
X137119047Y-104769380D02*
X137166666Y-104674142D01*
X137166666Y-104674142D02*
X137166666Y-104436047D01*
X137166666Y-104436047D02*
X137119047Y-104340809D01*
X137119047Y-104340809D02*
X137071428Y-104293190D01*
X137071428Y-104293190D02*
X136976190Y-104245571D01*
X136976190Y-104245571D02*
X136785714Y-104245571D01*
X136785714Y-104245571D02*
X136690476Y-104293190D01*
X136690476Y-104293190D02*
X136642857Y-104340809D01*
X136642857Y-104340809D02*
X136595238Y-104436047D01*
%TO.C,U11*%
X130061905Y-99362619D02*
X130061905Y-100172142D01*
X130061905Y-100172142D02*
X130109524Y-100267380D01*
X130109524Y-100267380D02*
X130157143Y-100315000D01*
X130157143Y-100315000D02*
X130252381Y-100362619D01*
X130252381Y-100362619D02*
X130442857Y-100362619D01*
X130442857Y-100362619D02*
X130538095Y-100315000D01*
X130538095Y-100315000D02*
X130585714Y-100267380D01*
X130585714Y-100267380D02*
X130633333Y-100172142D01*
X130633333Y-100172142D02*
X130633333Y-99362619D01*
X131633333Y-100362619D02*
X131061905Y-100362619D01*
X131347619Y-100362619D02*
X131347619Y-99362619D01*
X131347619Y-99362619D02*
X131252381Y-99505476D01*
X131252381Y-99505476D02*
X131157143Y-99600714D01*
X131157143Y-99600714D02*
X131061905Y-99648333D01*
X132585714Y-100362619D02*
X132014286Y-100362619D01*
X132300000Y-100362619D02*
X132300000Y-99362619D01*
X132300000Y-99362619D02*
X132204762Y-99505476D01*
X132204762Y-99505476D02*
X132109524Y-99600714D01*
X132109524Y-99600714D02*
X132014286Y-99648333D01*
%TO.C,R1*%
X116083333Y-86462619D02*
X115750000Y-85986428D01*
X115511905Y-86462619D02*
X115511905Y-85462619D01*
X115511905Y-85462619D02*
X115892857Y-85462619D01*
X115892857Y-85462619D02*
X115988095Y-85510238D01*
X115988095Y-85510238D02*
X116035714Y-85557857D01*
X116035714Y-85557857D02*
X116083333Y-85653095D01*
X116083333Y-85653095D02*
X116083333Y-85795952D01*
X116083333Y-85795952D02*
X116035714Y-85891190D01*
X116035714Y-85891190D02*
X115988095Y-85938809D01*
X115988095Y-85938809D02*
X115892857Y-85986428D01*
X115892857Y-85986428D02*
X115511905Y-85986428D01*
X117035714Y-86462619D02*
X116464286Y-86462619D01*
X116750000Y-86462619D02*
X116750000Y-85462619D01*
X116750000Y-85462619D02*
X116654762Y-85605476D01*
X116654762Y-85605476D02*
X116559524Y-85700714D01*
X116559524Y-85700714D02*
X116464286Y-85748333D01*
%TO.C,D1*%
X186961905Y-137762619D02*
X186961905Y-136762619D01*
X186961905Y-136762619D02*
X187200000Y-136762619D01*
X187200000Y-136762619D02*
X187342857Y-136810238D01*
X187342857Y-136810238D02*
X187438095Y-136905476D01*
X187438095Y-136905476D02*
X187485714Y-137000714D01*
X187485714Y-137000714D02*
X187533333Y-137191190D01*
X187533333Y-137191190D02*
X187533333Y-137334047D01*
X187533333Y-137334047D02*
X187485714Y-137524523D01*
X187485714Y-137524523D02*
X187438095Y-137619761D01*
X187438095Y-137619761D02*
X187342857Y-137715000D01*
X187342857Y-137715000D02*
X187200000Y-137762619D01*
X187200000Y-137762619D02*
X186961905Y-137762619D01*
X188485714Y-137762619D02*
X187914286Y-137762619D01*
X188200000Y-137762619D02*
X188200000Y-136762619D01*
X188200000Y-136762619D02*
X188104762Y-136905476D01*
X188104762Y-136905476D02*
X188009524Y-137000714D01*
X188009524Y-137000714D02*
X187914286Y-137048333D01*
%TO.C,U3*%
X108438095Y-125162619D02*
X108438095Y-125972142D01*
X108438095Y-125972142D02*
X108485714Y-126067380D01*
X108485714Y-126067380D02*
X108533333Y-126115000D01*
X108533333Y-126115000D02*
X108628571Y-126162619D01*
X108628571Y-126162619D02*
X108819047Y-126162619D01*
X108819047Y-126162619D02*
X108914285Y-126115000D01*
X108914285Y-126115000D02*
X108961904Y-126067380D01*
X108961904Y-126067380D02*
X109009523Y-125972142D01*
X109009523Y-125972142D02*
X109009523Y-125162619D01*
X109390476Y-125162619D02*
X110009523Y-125162619D01*
X110009523Y-125162619D02*
X109676190Y-125543571D01*
X109676190Y-125543571D02*
X109819047Y-125543571D01*
X109819047Y-125543571D02*
X109914285Y-125591190D01*
X109914285Y-125591190D02*
X109961904Y-125638809D01*
X109961904Y-125638809D02*
X110009523Y-125734047D01*
X110009523Y-125734047D02*
X110009523Y-125972142D01*
X110009523Y-125972142D02*
X109961904Y-126067380D01*
X109961904Y-126067380D02*
X109914285Y-126115000D01*
X109914285Y-126115000D02*
X109819047Y-126162619D01*
X109819047Y-126162619D02*
X109533333Y-126162619D01*
X109533333Y-126162619D02*
X109438095Y-126115000D01*
X109438095Y-126115000D02*
X109390476Y-126067380D01*
%TO.C,C29*%
X132857142Y-146567380D02*
X132809523Y-146615000D01*
X132809523Y-146615000D02*
X132666666Y-146662619D01*
X132666666Y-146662619D02*
X132571428Y-146662619D01*
X132571428Y-146662619D02*
X132428571Y-146615000D01*
X132428571Y-146615000D02*
X132333333Y-146519761D01*
X132333333Y-146519761D02*
X132285714Y-146424523D01*
X132285714Y-146424523D02*
X132238095Y-146234047D01*
X132238095Y-146234047D02*
X132238095Y-146091190D01*
X132238095Y-146091190D02*
X132285714Y-145900714D01*
X132285714Y-145900714D02*
X132333333Y-145805476D01*
X132333333Y-145805476D02*
X132428571Y-145710238D01*
X132428571Y-145710238D02*
X132571428Y-145662619D01*
X132571428Y-145662619D02*
X132666666Y-145662619D01*
X132666666Y-145662619D02*
X132809523Y-145710238D01*
X132809523Y-145710238D02*
X132857142Y-145757857D01*
X133238095Y-145757857D02*
X133285714Y-145710238D01*
X133285714Y-145710238D02*
X133380952Y-145662619D01*
X133380952Y-145662619D02*
X133619047Y-145662619D01*
X133619047Y-145662619D02*
X133714285Y-145710238D01*
X133714285Y-145710238D02*
X133761904Y-145757857D01*
X133761904Y-145757857D02*
X133809523Y-145853095D01*
X133809523Y-145853095D02*
X133809523Y-145948333D01*
X133809523Y-145948333D02*
X133761904Y-146091190D01*
X133761904Y-146091190D02*
X133190476Y-146662619D01*
X133190476Y-146662619D02*
X133809523Y-146662619D01*
X134285714Y-146662619D02*
X134476190Y-146662619D01*
X134476190Y-146662619D02*
X134571428Y-146615000D01*
X134571428Y-146615000D02*
X134619047Y-146567380D01*
X134619047Y-146567380D02*
X134714285Y-146424523D01*
X134714285Y-146424523D02*
X134761904Y-146234047D01*
X134761904Y-146234047D02*
X134761904Y-145853095D01*
X134761904Y-145853095D02*
X134714285Y-145757857D01*
X134714285Y-145757857D02*
X134666666Y-145710238D01*
X134666666Y-145710238D02*
X134571428Y-145662619D01*
X134571428Y-145662619D02*
X134380952Y-145662619D01*
X134380952Y-145662619D02*
X134285714Y-145710238D01*
X134285714Y-145710238D02*
X134238095Y-145757857D01*
X134238095Y-145757857D02*
X134190476Y-145853095D01*
X134190476Y-145853095D02*
X134190476Y-146091190D01*
X134190476Y-146091190D02*
X134238095Y-146186428D01*
X134238095Y-146186428D02*
X134285714Y-146234047D01*
X134285714Y-146234047D02*
X134380952Y-146281666D01*
X134380952Y-146281666D02*
X134571428Y-146281666D01*
X134571428Y-146281666D02*
X134666666Y-146234047D01*
X134666666Y-146234047D02*
X134714285Y-146186428D01*
X134714285Y-146186428D02*
X134761904Y-146091190D01*
%TO.C,R25*%
X103657142Y-92662619D02*
X103323809Y-92186428D01*
X103085714Y-92662619D02*
X103085714Y-91662619D01*
X103085714Y-91662619D02*
X103466666Y-91662619D01*
X103466666Y-91662619D02*
X103561904Y-91710238D01*
X103561904Y-91710238D02*
X103609523Y-91757857D01*
X103609523Y-91757857D02*
X103657142Y-91853095D01*
X103657142Y-91853095D02*
X103657142Y-91995952D01*
X103657142Y-91995952D02*
X103609523Y-92091190D01*
X103609523Y-92091190D02*
X103561904Y-92138809D01*
X103561904Y-92138809D02*
X103466666Y-92186428D01*
X103466666Y-92186428D02*
X103085714Y-92186428D01*
X104038095Y-91757857D02*
X104085714Y-91710238D01*
X104085714Y-91710238D02*
X104180952Y-91662619D01*
X104180952Y-91662619D02*
X104419047Y-91662619D01*
X104419047Y-91662619D02*
X104514285Y-91710238D01*
X104514285Y-91710238D02*
X104561904Y-91757857D01*
X104561904Y-91757857D02*
X104609523Y-91853095D01*
X104609523Y-91853095D02*
X104609523Y-91948333D01*
X104609523Y-91948333D02*
X104561904Y-92091190D01*
X104561904Y-92091190D02*
X103990476Y-92662619D01*
X103990476Y-92662619D02*
X104609523Y-92662619D01*
X105514285Y-91662619D02*
X105038095Y-91662619D01*
X105038095Y-91662619D02*
X104990476Y-92138809D01*
X104990476Y-92138809D02*
X105038095Y-92091190D01*
X105038095Y-92091190D02*
X105133333Y-92043571D01*
X105133333Y-92043571D02*
X105371428Y-92043571D01*
X105371428Y-92043571D02*
X105466666Y-92091190D01*
X105466666Y-92091190D02*
X105514285Y-92138809D01*
X105514285Y-92138809D02*
X105561904Y-92234047D01*
X105561904Y-92234047D02*
X105561904Y-92472142D01*
X105561904Y-92472142D02*
X105514285Y-92567380D01*
X105514285Y-92567380D02*
X105466666Y-92615000D01*
X105466666Y-92615000D02*
X105371428Y-92662619D01*
X105371428Y-92662619D02*
X105133333Y-92662619D01*
X105133333Y-92662619D02*
X105038095Y-92615000D01*
X105038095Y-92615000D02*
X104990476Y-92567380D01*
%TO.C,U2*%
X155038095Y-68962619D02*
X155038095Y-69772142D01*
X155038095Y-69772142D02*
X155085714Y-69867380D01*
X155085714Y-69867380D02*
X155133333Y-69915000D01*
X155133333Y-69915000D02*
X155228571Y-69962619D01*
X155228571Y-69962619D02*
X155419047Y-69962619D01*
X155419047Y-69962619D02*
X155514285Y-69915000D01*
X155514285Y-69915000D02*
X155561904Y-69867380D01*
X155561904Y-69867380D02*
X155609523Y-69772142D01*
X155609523Y-69772142D02*
X155609523Y-68962619D01*
X156038095Y-69057857D02*
X156085714Y-69010238D01*
X156085714Y-69010238D02*
X156180952Y-68962619D01*
X156180952Y-68962619D02*
X156419047Y-68962619D01*
X156419047Y-68962619D02*
X156514285Y-69010238D01*
X156514285Y-69010238D02*
X156561904Y-69057857D01*
X156561904Y-69057857D02*
X156609523Y-69153095D01*
X156609523Y-69153095D02*
X156609523Y-69248333D01*
X156609523Y-69248333D02*
X156561904Y-69391190D01*
X156561904Y-69391190D02*
X155990476Y-69962619D01*
X155990476Y-69962619D02*
X156609523Y-69962619D01*
%TO.C,Q2*%
X109604761Y-100657857D02*
X109509523Y-100610238D01*
X109509523Y-100610238D02*
X109414285Y-100515000D01*
X109414285Y-100515000D02*
X109271428Y-100372142D01*
X109271428Y-100372142D02*
X109176190Y-100324523D01*
X109176190Y-100324523D02*
X109080952Y-100324523D01*
X109128571Y-100562619D02*
X109033333Y-100515000D01*
X109033333Y-100515000D02*
X108938095Y-100419761D01*
X108938095Y-100419761D02*
X108890476Y-100229285D01*
X108890476Y-100229285D02*
X108890476Y-99895952D01*
X108890476Y-99895952D02*
X108938095Y-99705476D01*
X108938095Y-99705476D02*
X109033333Y-99610238D01*
X109033333Y-99610238D02*
X109128571Y-99562619D01*
X109128571Y-99562619D02*
X109319047Y-99562619D01*
X109319047Y-99562619D02*
X109414285Y-99610238D01*
X109414285Y-99610238D02*
X109509523Y-99705476D01*
X109509523Y-99705476D02*
X109557142Y-99895952D01*
X109557142Y-99895952D02*
X109557142Y-100229285D01*
X109557142Y-100229285D02*
X109509523Y-100419761D01*
X109509523Y-100419761D02*
X109414285Y-100515000D01*
X109414285Y-100515000D02*
X109319047Y-100562619D01*
X109319047Y-100562619D02*
X109128571Y-100562619D01*
X109938095Y-99657857D02*
X109985714Y-99610238D01*
X109985714Y-99610238D02*
X110080952Y-99562619D01*
X110080952Y-99562619D02*
X110319047Y-99562619D01*
X110319047Y-99562619D02*
X110414285Y-99610238D01*
X110414285Y-99610238D02*
X110461904Y-99657857D01*
X110461904Y-99657857D02*
X110509523Y-99753095D01*
X110509523Y-99753095D02*
X110509523Y-99848333D01*
X110509523Y-99848333D02*
X110461904Y-99991190D01*
X110461904Y-99991190D02*
X109890476Y-100562619D01*
X109890476Y-100562619D02*
X110509523Y-100562619D01*
%TO.C,C1*%
X132833333Y-72967380D02*
X132785714Y-73015000D01*
X132785714Y-73015000D02*
X132642857Y-73062619D01*
X132642857Y-73062619D02*
X132547619Y-73062619D01*
X132547619Y-73062619D02*
X132404762Y-73015000D01*
X132404762Y-73015000D02*
X132309524Y-72919761D01*
X132309524Y-72919761D02*
X132261905Y-72824523D01*
X132261905Y-72824523D02*
X132214286Y-72634047D01*
X132214286Y-72634047D02*
X132214286Y-72491190D01*
X132214286Y-72491190D02*
X132261905Y-72300714D01*
X132261905Y-72300714D02*
X132309524Y-72205476D01*
X132309524Y-72205476D02*
X132404762Y-72110238D01*
X132404762Y-72110238D02*
X132547619Y-72062619D01*
X132547619Y-72062619D02*
X132642857Y-72062619D01*
X132642857Y-72062619D02*
X132785714Y-72110238D01*
X132785714Y-72110238D02*
X132833333Y-72157857D01*
X133785714Y-73062619D02*
X133214286Y-73062619D01*
X133500000Y-73062619D02*
X133500000Y-72062619D01*
X133500000Y-72062619D02*
X133404762Y-72205476D01*
X133404762Y-72205476D02*
X133309524Y-72300714D01*
X133309524Y-72300714D02*
X133214286Y-72348333D01*
%TO.C,R12*%
X160257142Y-73662619D02*
X159923809Y-73186428D01*
X159685714Y-73662619D02*
X159685714Y-72662619D01*
X159685714Y-72662619D02*
X160066666Y-72662619D01*
X160066666Y-72662619D02*
X160161904Y-72710238D01*
X160161904Y-72710238D02*
X160209523Y-72757857D01*
X160209523Y-72757857D02*
X160257142Y-72853095D01*
X160257142Y-72853095D02*
X160257142Y-72995952D01*
X160257142Y-72995952D02*
X160209523Y-73091190D01*
X160209523Y-73091190D02*
X160161904Y-73138809D01*
X160161904Y-73138809D02*
X160066666Y-73186428D01*
X160066666Y-73186428D02*
X159685714Y-73186428D01*
X161209523Y-73662619D02*
X160638095Y-73662619D01*
X160923809Y-73662619D02*
X160923809Y-72662619D01*
X160923809Y-72662619D02*
X160828571Y-72805476D01*
X160828571Y-72805476D02*
X160733333Y-72900714D01*
X160733333Y-72900714D02*
X160638095Y-72948333D01*
X161590476Y-72757857D02*
X161638095Y-72710238D01*
X161638095Y-72710238D02*
X161733333Y-72662619D01*
X161733333Y-72662619D02*
X161971428Y-72662619D01*
X161971428Y-72662619D02*
X162066666Y-72710238D01*
X162066666Y-72710238D02*
X162114285Y-72757857D01*
X162114285Y-72757857D02*
X162161904Y-72853095D01*
X162161904Y-72853095D02*
X162161904Y-72948333D01*
X162161904Y-72948333D02*
X162114285Y-73091190D01*
X162114285Y-73091190D02*
X161542857Y-73662619D01*
X161542857Y-73662619D02*
X162161904Y-73662619D01*
%TO.C,R13*%
X141057142Y-72262619D02*
X140723809Y-71786428D01*
X140485714Y-72262619D02*
X140485714Y-71262619D01*
X140485714Y-71262619D02*
X140866666Y-71262619D01*
X140866666Y-71262619D02*
X140961904Y-71310238D01*
X140961904Y-71310238D02*
X141009523Y-71357857D01*
X141009523Y-71357857D02*
X141057142Y-71453095D01*
X141057142Y-71453095D02*
X141057142Y-71595952D01*
X141057142Y-71595952D02*
X141009523Y-71691190D01*
X141009523Y-71691190D02*
X140961904Y-71738809D01*
X140961904Y-71738809D02*
X140866666Y-71786428D01*
X140866666Y-71786428D02*
X140485714Y-71786428D01*
X142009523Y-72262619D02*
X141438095Y-72262619D01*
X141723809Y-72262619D02*
X141723809Y-71262619D01*
X141723809Y-71262619D02*
X141628571Y-71405476D01*
X141628571Y-71405476D02*
X141533333Y-71500714D01*
X141533333Y-71500714D02*
X141438095Y-71548333D01*
X142342857Y-71262619D02*
X142961904Y-71262619D01*
X142961904Y-71262619D02*
X142628571Y-71643571D01*
X142628571Y-71643571D02*
X142771428Y-71643571D01*
X142771428Y-71643571D02*
X142866666Y-71691190D01*
X142866666Y-71691190D02*
X142914285Y-71738809D01*
X142914285Y-71738809D02*
X142961904Y-71834047D01*
X142961904Y-71834047D02*
X142961904Y-72072142D01*
X142961904Y-72072142D02*
X142914285Y-72167380D01*
X142914285Y-72167380D02*
X142866666Y-72215000D01*
X142866666Y-72215000D02*
X142771428Y-72262619D01*
X142771428Y-72262619D02*
X142485714Y-72262619D01*
X142485714Y-72262619D02*
X142390476Y-72215000D01*
X142390476Y-72215000D02*
X142342857Y-72167380D01*
%TO.C,C5*%
X120133333Y-72367380D02*
X120085714Y-72415000D01*
X120085714Y-72415000D02*
X119942857Y-72462619D01*
X119942857Y-72462619D02*
X119847619Y-72462619D01*
X119847619Y-72462619D02*
X119704762Y-72415000D01*
X119704762Y-72415000D02*
X119609524Y-72319761D01*
X119609524Y-72319761D02*
X119561905Y-72224523D01*
X119561905Y-72224523D02*
X119514286Y-72034047D01*
X119514286Y-72034047D02*
X119514286Y-71891190D01*
X119514286Y-71891190D02*
X119561905Y-71700714D01*
X119561905Y-71700714D02*
X119609524Y-71605476D01*
X119609524Y-71605476D02*
X119704762Y-71510238D01*
X119704762Y-71510238D02*
X119847619Y-71462619D01*
X119847619Y-71462619D02*
X119942857Y-71462619D01*
X119942857Y-71462619D02*
X120085714Y-71510238D01*
X120085714Y-71510238D02*
X120133333Y-71557857D01*
X121038095Y-71462619D02*
X120561905Y-71462619D01*
X120561905Y-71462619D02*
X120514286Y-71938809D01*
X120514286Y-71938809D02*
X120561905Y-71891190D01*
X120561905Y-71891190D02*
X120657143Y-71843571D01*
X120657143Y-71843571D02*
X120895238Y-71843571D01*
X120895238Y-71843571D02*
X120990476Y-71891190D01*
X120990476Y-71891190D02*
X121038095Y-71938809D01*
X121038095Y-71938809D02*
X121085714Y-72034047D01*
X121085714Y-72034047D02*
X121085714Y-72272142D01*
X121085714Y-72272142D02*
X121038095Y-72367380D01*
X121038095Y-72367380D02*
X120990476Y-72415000D01*
X120990476Y-72415000D02*
X120895238Y-72462619D01*
X120895238Y-72462619D02*
X120657143Y-72462619D01*
X120657143Y-72462619D02*
X120561905Y-72415000D01*
X120561905Y-72415000D02*
X120514286Y-72367380D01*
%TO.C,Q1*%
X109404761Y-117157857D02*
X109309523Y-117110238D01*
X109309523Y-117110238D02*
X109214285Y-117015000D01*
X109214285Y-117015000D02*
X109071428Y-116872142D01*
X109071428Y-116872142D02*
X108976190Y-116824523D01*
X108976190Y-116824523D02*
X108880952Y-116824523D01*
X108928571Y-117062619D02*
X108833333Y-117015000D01*
X108833333Y-117015000D02*
X108738095Y-116919761D01*
X108738095Y-116919761D02*
X108690476Y-116729285D01*
X108690476Y-116729285D02*
X108690476Y-116395952D01*
X108690476Y-116395952D02*
X108738095Y-116205476D01*
X108738095Y-116205476D02*
X108833333Y-116110238D01*
X108833333Y-116110238D02*
X108928571Y-116062619D01*
X108928571Y-116062619D02*
X109119047Y-116062619D01*
X109119047Y-116062619D02*
X109214285Y-116110238D01*
X109214285Y-116110238D02*
X109309523Y-116205476D01*
X109309523Y-116205476D02*
X109357142Y-116395952D01*
X109357142Y-116395952D02*
X109357142Y-116729285D01*
X109357142Y-116729285D02*
X109309523Y-116919761D01*
X109309523Y-116919761D02*
X109214285Y-117015000D01*
X109214285Y-117015000D02*
X109119047Y-117062619D01*
X109119047Y-117062619D02*
X108928571Y-117062619D01*
X110309523Y-117062619D02*
X109738095Y-117062619D01*
X110023809Y-117062619D02*
X110023809Y-116062619D01*
X110023809Y-116062619D02*
X109928571Y-116205476D01*
X109928571Y-116205476D02*
X109833333Y-116300714D01*
X109833333Y-116300714D02*
X109738095Y-116348333D01*
%TO.C,R24*%
X107257142Y-92662619D02*
X106923809Y-92186428D01*
X106685714Y-92662619D02*
X106685714Y-91662619D01*
X106685714Y-91662619D02*
X107066666Y-91662619D01*
X107066666Y-91662619D02*
X107161904Y-91710238D01*
X107161904Y-91710238D02*
X107209523Y-91757857D01*
X107209523Y-91757857D02*
X107257142Y-91853095D01*
X107257142Y-91853095D02*
X107257142Y-91995952D01*
X107257142Y-91995952D02*
X107209523Y-92091190D01*
X107209523Y-92091190D02*
X107161904Y-92138809D01*
X107161904Y-92138809D02*
X107066666Y-92186428D01*
X107066666Y-92186428D02*
X106685714Y-92186428D01*
X107638095Y-91757857D02*
X107685714Y-91710238D01*
X107685714Y-91710238D02*
X107780952Y-91662619D01*
X107780952Y-91662619D02*
X108019047Y-91662619D01*
X108019047Y-91662619D02*
X108114285Y-91710238D01*
X108114285Y-91710238D02*
X108161904Y-91757857D01*
X108161904Y-91757857D02*
X108209523Y-91853095D01*
X108209523Y-91853095D02*
X108209523Y-91948333D01*
X108209523Y-91948333D02*
X108161904Y-92091190D01*
X108161904Y-92091190D02*
X107590476Y-92662619D01*
X107590476Y-92662619D02*
X108209523Y-92662619D01*
X109066666Y-91995952D02*
X109066666Y-92662619D01*
X108828571Y-91615000D02*
X108590476Y-92329285D01*
X108590476Y-92329285D02*
X109209523Y-92329285D01*
%TO.C,R21*%
X139457142Y-120372619D02*
X139123809Y-119896428D01*
X138885714Y-120372619D02*
X138885714Y-119372619D01*
X138885714Y-119372619D02*
X139266666Y-119372619D01*
X139266666Y-119372619D02*
X139361904Y-119420238D01*
X139361904Y-119420238D02*
X139409523Y-119467857D01*
X139409523Y-119467857D02*
X139457142Y-119563095D01*
X139457142Y-119563095D02*
X139457142Y-119705952D01*
X139457142Y-119705952D02*
X139409523Y-119801190D01*
X139409523Y-119801190D02*
X139361904Y-119848809D01*
X139361904Y-119848809D02*
X139266666Y-119896428D01*
X139266666Y-119896428D02*
X138885714Y-119896428D01*
X139838095Y-119467857D02*
X139885714Y-119420238D01*
X139885714Y-119420238D02*
X139980952Y-119372619D01*
X139980952Y-119372619D02*
X140219047Y-119372619D01*
X140219047Y-119372619D02*
X140314285Y-119420238D01*
X140314285Y-119420238D02*
X140361904Y-119467857D01*
X140361904Y-119467857D02*
X140409523Y-119563095D01*
X140409523Y-119563095D02*
X140409523Y-119658333D01*
X140409523Y-119658333D02*
X140361904Y-119801190D01*
X140361904Y-119801190D02*
X139790476Y-120372619D01*
X139790476Y-120372619D02*
X140409523Y-120372619D01*
X141361904Y-120372619D02*
X140790476Y-120372619D01*
X141076190Y-120372619D02*
X141076190Y-119372619D01*
X141076190Y-119372619D02*
X140980952Y-119515476D01*
X140980952Y-119515476D02*
X140885714Y-119610714D01*
X140885714Y-119610714D02*
X140790476Y-119658333D01*
%TO.C,R15*%
X139557142Y-100442619D02*
X139223809Y-99966428D01*
X138985714Y-100442619D02*
X138985714Y-99442619D01*
X138985714Y-99442619D02*
X139366666Y-99442619D01*
X139366666Y-99442619D02*
X139461904Y-99490238D01*
X139461904Y-99490238D02*
X139509523Y-99537857D01*
X139509523Y-99537857D02*
X139557142Y-99633095D01*
X139557142Y-99633095D02*
X139557142Y-99775952D01*
X139557142Y-99775952D02*
X139509523Y-99871190D01*
X139509523Y-99871190D02*
X139461904Y-99918809D01*
X139461904Y-99918809D02*
X139366666Y-99966428D01*
X139366666Y-99966428D02*
X138985714Y-99966428D01*
X140509523Y-100442619D02*
X139938095Y-100442619D01*
X140223809Y-100442619D02*
X140223809Y-99442619D01*
X140223809Y-99442619D02*
X140128571Y-99585476D01*
X140128571Y-99585476D02*
X140033333Y-99680714D01*
X140033333Y-99680714D02*
X139938095Y-99728333D01*
X141414285Y-99442619D02*
X140938095Y-99442619D01*
X140938095Y-99442619D02*
X140890476Y-99918809D01*
X140890476Y-99918809D02*
X140938095Y-99871190D01*
X140938095Y-99871190D02*
X141033333Y-99823571D01*
X141033333Y-99823571D02*
X141271428Y-99823571D01*
X141271428Y-99823571D02*
X141366666Y-99871190D01*
X141366666Y-99871190D02*
X141414285Y-99918809D01*
X141414285Y-99918809D02*
X141461904Y-100014047D01*
X141461904Y-100014047D02*
X141461904Y-100252142D01*
X141461904Y-100252142D02*
X141414285Y-100347380D01*
X141414285Y-100347380D02*
X141366666Y-100395000D01*
X141366666Y-100395000D02*
X141271428Y-100442619D01*
X141271428Y-100442619D02*
X141033333Y-100442619D01*
X141033333Y-100442619D02*
X140938095Y-100395000D01*
X140938095Y-100395000D02*
X140890476Y-100347380D01*
%TO.C,C2*%
X102273333Y-123267380D02*
X102225714Y-123315000D01*
X102225714Y-123315000D02*
X102082857Y-123362619D01*
X102082857Y-123362619D02*
X101987619Y-123362619D01*
X101987619Y-123362619D02*
X101844762Y-123315000D01*
X101844762Y-123315000D02*
X101749524Y-123219761D01*
X101749524Y-123219761D02*
X101701905Y-123124523D01*
X101701905Y-123124523D02*
X101654286Y-122934047D01*
X101654286Y-122934047D02*
X101654286Y-122791190D01*
X101654286Y-122791190D02*
X101701905Y-122600714D01*
X101701905Y-122600714D02*
X101749524Y-122505476D01*
X101749524Y-122505476D02*
X101844762Y-122410238D01*
X101844762Y-122410238D02*
X101987619Y-122362619D01*
X101987619Y-122362619D02*
X102082857Y-122362619D01*
X102082857Y-122362619D02*
X102225714Y-122410238D01*
X102225714Y-122410238D02*
X102273333Y-122457857D01*
X102654286Y-122457857D02*
X102701905Y-122410238D01*
X102701905Y-122410238D02*
X102797143Y-122362619D01*
X102797143Y-122362619D02*
X103035238Y-122362619D01*
X103035238Y-122362619D02*
X103130476Y-122410238D01*
X103130476Y-122410238D02*
X103178095Y-122457857D01*
X103178095Y-122457857D02*
X103225714Y-122553095D01*
X103225714Y-122553095D02*
X103225714Y-122648333D01*
X103225714Y-122648333D02*
X103178095Y-122791190D01*
X103178095Y-122791190D02*
X102606667Y-123362619D01*
X102606667Y-123362619D02*
X103225714Y-123362619D01*
%TO.C,R4*%
X196833333Y-128262619D02*
X196500000Y-127786428D01*
X196261905Y-128262619D02*
X196261905Y-127262619D01*
X196261905Y-127262619D02*
X196642857Y-127262619D01*
X196642857Y-127262619D02*
X196738095Y-127310238D01*
X196738095Y-127310238D02*
X196785714Y-127357857D01*
X196785714Y-127357857D02*
X196833333Y-127453095D01*
X196833333Y-127453095D02*
X196833333Y-127595952D01*
X196833333Y-127595952D02*
X196785714Y-127691190D01*
X196785714Y-127691190D02*
X196738095Y-127738809D01*
X196738095Y-127738809D02*
X196642857Y-127786428D01*
X196642857Y-127786428D02*
X196261905Y-127786428D01*
X197690476Y-127595952D02*
X197690476Y-128262619D01*
X197452381Y-127215000D02*
X197214286Y-127929285D01*
X197214286Y-127929285D02*
X197833333Y-127929285D01*
%TO.C,J1*%
X162586666Y-66962619D02*
X162586666Y-67676904D01*
X162586666Y-67676904D02*
X162539047Y-67819761D01*
X162539047Y-67819761D02*
X162443809Y-67915000D01*
X162443809Y-67915000D02*
X162300952Y-67962619D01*
X162300952Y-67962619D02*
X162205714Y-67962619D01*
X163586666Y-67962619D02*
X163015238Y-67962619D01*
X163300952Y-67962619D02*
X163300952Y-66962619D01*
X163300952Y-66962619D02*
X163205714Y-67105476D01*
X163205714Y-67105476D02*
X163110476Y-67200714D01*
X163110476Y-67200714D02*
X163015238Y-67248333D01*
%TO.C,TP4*%
X100838095Y-109362619D02*
X101409523Y-109362619D01*
X101123809Y-110362619D02*
X101123809Y-109362619D01*
X101742857Y-110362619D02*
X101742857Y-109362619D01*
X101742857Y-109362619D02*
X102123809Y-109362619D01*
X102123809Y-109362619D02*
X102219047Y-109410238D01*
X102219047Y-109410238D02*
X102266666Y-109457857D01*
X102266666Y-109457857D02*
X102314285Y-109553095D01*
X102314285Y-109553095D02*
X102314285Y-109695952D01*
X102314285Y-109695952D02*
X102266666Y-109791190D01*
X102266666Y-109791190D02*
X102219047Y-109838809D01*
X102219047Y-109838809D02*
X102123809Y-109886428D01*
X102123809Y-109886428D02*
X101742857Y-109886428D01*
X103171428Y-109695952D02*
X103171428Y-110362619D01*
X102933333Y-109315000D02*
X102695238Y-110029285D01*
X102695238Y-110029285D02*
X103314285Y-110029285D01*
%TO.C,L1*%
X122933333Y-62962619D02*
X122457143Y-62962619D01*
X122457143Y-62962619D02*
X122457143Y-61962619D01*
X123790476Y-62962619D02*
X123219048Y-62962619D01*
X123504762Y-62962619D02*
X123504762Y-61962619D01*
X123504762Y-61962619D02*
X123409524Y-62105476D01*
X123409524Y-62105476D02*
X123314286Y-62200714D01*
X123314286Y-62200714D02*
X123219048Y-62248333D01*
%TO.C,C12*%
X112457142Y-100467380D02*
X112409523Y-100515000D01*
X112409523Y-100515000D02*
X112266666Y-100562619D01*
X112266666Y-100562619D02*
X112171428Y-100562619D01*
X112171428Y-100562619D02*
X112028571Y-100515000D01*
X112028571Y-100515000D02*
X111933333Y-100419761D01*
X111933333Y-100419761D02*
X111885714Y-100324523D01*
X111885714Y-100324523D02*
X111838095Y-100134047D01*
X111838095Y-100134047D02*
X111838095Y-99991190D01*
X111838095Y-99991190D02*
X111885714Y-99800714D01*
X111885714Y-99800714D02*
X111933333Y-99705476D01*
X111933333Y-99705476D02*
X112028571Y-99610238D01*
X112028571Y-99610238D02*
X112171428Y-99562619D01*
X112171428Y-99562619D02*
X112266666Y-99562619D01*
X112266666Y-99562619D02*
X112409523Y-99610238D01*
X112409523Y-99610238D02*
X112457142Y-99657857D01*
X113409523Y-100562619D02*
X112838095Y-100562619D01*
X113123809Y-100562619D02*
X113123809Y-99562619D01*
X113123809Y-99562619D02*
X113028571Y-99705476D01*
X113028571Y-99705476D02*
X112933333Y-99800714D01*
X112933333Y-99800714D02*
X112838095Y-99848333D01*
X113790476Y-99657857D02*
X113838095Y-99610238D01*
X113838095Y-99610238D02*
X113933333Y-99562619D01*
X113933333Y-99562619D02*
X114171428Y-99562619D01*
X114171428Y-99562619D02*
X114266666Y-99610238D01*
X114266666Y-99610238D02*
X114314285Y-99657857D01*
X114314285Y-99657857D02*
X114361904Y-99753095D01*
X114361904Y-99753095D02*
X114361904Y-99848333D01*
X114361904Y-99848333D02*
X114314285Y-99991190D01*
X114314285Y-99991190D02*
X113742857Y-100562619D01*
X113742857Y-100562619D02*
X114361904Y-100562619D01*
%TO.C,R16*%
X103857142Y-97362619D02*
X103523809Y-96886428D01*
X103285714Y-97362619D02*
X103285714Y-96362619D01*
X103285714Y-96362619D02*
X103666666Y-96362619D01*
X103666666Y-96362619D02*
X103761904Y-96410238D01*
X103761904Y-96410238D02*
X103809523Y-96457857D01*
X103809523Y-96457857D02*
X103857142Y-96553095D01*
X103857142Y-96553095D02*
X103857142Y-96695952D01*
X103857142Y-96695952D02*
X103809523Y-96791190D01*
X103809523Y-96791190D02*
X103761904Y-96838809D01*
X103761904Y-96838809D02*
X103666666Y-96886428D01*
X103666666Y-96886428D02*
X103285714Y-96886428D01*
X104809523Y-97362619D02*
X104238095Y-97362619D01*
X104523809Y-97362619D02*
X104523809Y-96362619D01*
X104523809Y-96362619D02*
X104428571Y-96505476D01*
X104428571Y-96505476D02*
X104333333Y-96600714D01*
X104333333Y-96600714D02*
X104238095Y-96648333D01*
X105666666Y-96362619D02*
X105476190Y-96362619D01*
X105476190Y-96362619D02*
X105380952Y-96410238D01*
X105380952Y-96410238D02*
X105333333Y-96457857D01*
X105333333Y-96457857D02*
X105238095Y-96600714D01*
X105238095Y-96600714D02*
X105190476Y-96791190D01*
X105190476Y-96791190D02*
X105190476Y-97172142D01*
X105190476Y-97172142D02*
X105238095Y-97267380D01*
X105238095Y-97267380D02*
X105285714Y-97315000D01*
X105285714Y-97315000D02*
X105380952Y-97362619D01*
X105380952Y-97362619D02*
X105571428Y-97362619D01*
X105571428Y-97362619D02*
X105666666Y-97315000D01*
X105666666Y-97315000D02*
X105714285Y-97267380D01*
X105714285Y-97267380D02*
X105761904Y-97172142D01*
X105761904Y-97172142D02*
X105761904Y-96934047D01*
X105761904Y-96934047D02*
X105714285Y-96838809D01*
X105714285Y-96838809D02*
X105666666Y-96791190D01*
X105666666Y-96791190D02*
X105571428Y-96743571D01*
X105571428Y-96743571D02*
X105380952Y-96743571D01*
X105380952Y-96743571D02*
X105285714Y-96791190D01*
X105285714Y-96791190D02*
X105238095Y-96838809D01*
X105238095Y-96838809D02*
X105190476Y-96934047D01*
%TO.C,JP1*%
X115116666Y-105362619D02*
X115116666Y-106076904D01*
X115116666Y-106076904D02*
X115069047Y-106219761D01*
X115069047Y-106219761D02*
X114973809Y-106315000D01*
X114973809Y-106315000D02*
X114830952Y-106362619D01*
X114830952Y-106362619D02*
X114735714Y-106362619D01*
X115592857Y-106362619D02*
X115592857Y-105362619D01*
X115592857Y-105362619D02*
X115973809Y-105362619D01*
X115973809Y-105362619D02*
X116069047Y-105410238D01*
X116069047Y-105410238D02*
X116116666Y-105457857D01*
X116116666Y-105457857D02*
X116164285Y-105553095D01*
X116164285Y-105553095D02*
X116164285Y-105695952D01*
X116164285Y-105695952D02*
X116116666Y-105791190D01*
X116116666Y-105791190D02*
X116069047Y-105838809D01*
X116069047Y-105838809D02*
X115973809Y-105886428D01*
X115973809Y-105886428D02*
X115592857Y-105886428D01*
X117116666Y-106362619D02*
X116545238Y-106362619D01*
X116830952Y-106362619D02*
X116830952Y-105362619D01*
X116830952Y-105362619D02*
X116735714Y-105505476D01*
X116735714Y-105505476D02*
X116640476Y-105600714D01*
X116640476Y-105600714D02*
X116545238Y-105648333D01*
%TO.C,R26*%
X110757142Y-92662619D02*
X110423809Y-92186428D01*
X110185714Y-92662619D02*
X110185714Y-91662619D01*
X110185714Y-91662619D02*
X110566666Y-91662619D01*
X110566666Y-91662619D02*
X110661904Y-91710238D01*
X110661904Y-91710238D02*
X110709523Y-91757857D01*
X110709523Y-91757857D02*
X110757142Y-91853095D01*
X110757142Y-91853095D02*
X110757142Y-91995952D01*
X110757142Y-91995952D02*
X110709523Y-92091190D01*
X110709523Y-92091190D02*
X110661904Y-92138809D01*
X110661904Y-92138809D02*
X110566666Y-92186428D01*
X110566666Y-92186428D02*
X110185714Y-92186428D01*
X111138095Y-91757857D02*
X111185714Y-91710238D01*
X111185714Y-91710238D02*
X111280952Y-91662619D01*
X111280952Y-91662619D02*
X111519047Y-91662619D01*
X111519047Y-91662619D02*
X111614285Y-91710238D01*
X111614285Y-91710238D02*
X111661904Y-91757857D01*
X111661904Y-91757857D02*
X111709523Y-91853095D01*
X111709523Y-91853095D02*
X111709523Y-91948333D01*
X111709523Y-91948333D02*
X111661904Y-92091190D01*
X111661904Y-92091190D02*
X111090476Y-92662619D01*
X111090476Y-92662619D02*
X111709523Y-92662619D01*
X112566666Y-91662619D02*
X112376190Y-91662619D01*
X112376190Y-91662619D02*
X112280952Y-91710238D01*
X112280952Y-91710238D02*
X112233333Y-91757857D01*
X112233333Y-91757857D02*
X112138095Y-91900714D01*
X112138095Y-91900714D02*
X112090476Y-92091190D01*
X112090476Y-92091190D02*
X112090476Y-92472142D01*
X112090476Y-92472142D02*
X112138095Y-92567380D01*
X112138095Y-92567380D02*
X112185714Y-92615000D01*
X112185714Y-92615000D02*
X112280952Y-92662619D01*
X112280952Y-92662619D02*
X112471428Y-92662619D01*
X112471428Y-92662619D02*
X112566666Y-92615000D01*
X112566666Y-92615000D02*
X112614285Y-92567380D01*
X112614285Y-92567380D02*
X112661904Y-92472142D01*
X112661904Y-92472142D02*
X112661904Y-92234047D01*
X112661904Y-92234047D02*
X112614285Y-92138809D01*
X112614285Y-92138809D02*
X112566666Y-92091190D01*
X112566666Y-92091190D02*
X112471428Y-92043571D01*
X112471428Y-92043571D02*
X112280952Y-92043571D01*
X112280952Y-92043571D02*
X112185714Y-92091190D01*
X112185714Y-92091190D02*
X112138095Y-92138809D01*
X112138095Y-92138809D02*
X112090476Y-92234047D01*
%TO.C,TP2*%
X144238095Y-70362619D02*
X144809523Y-70362619D01*
X144523809Y-71362619D02*
X144523809Y-70362619D01*
X145142857Y-71362619D02*
X145142857Y-70362619D01*
X145142857Y-70362619D02*
X145523809Y-70362619D01*
X145523809Y-70362619D02*
X145619047Y-70410238D01*
X145619047Y-70410238D02*
X145666666Y-70457857D01*
X145666666Y-70457857D02*
X145714285Y-70553095D01*
X145714285Y-70553095D02*
X145714285Y-70695952D01*
X145714285Y-70695952D02*
X145666666Y-70791190D01*
X145666666Y-70791190D02*
X145619047Y-70838809D01*
X145619047Y-70838809D02*
X145523809Y-70886428D01*
X145523809Y-70886428D02*
X145142857Y-70886428D01*
X146095238Y-70457857D02*
X146142857Y-70410238D01*
X146142857Y-70410238D02*
X146238095Y-70362619D01*
X146238095Y-70362619D02*
X146476190Y-70362619D01*
X146476190Y-70362619D02*
X146571428Y-70410238D01*
X146571428Y-70410238D02*
X146619047Y-70457857D01*
X146619047Y-70457857D02*
X146666666Y-70553095D01*
X146666666Y-70553095D02*
X146666666Y-70648333D01*
X146666666Y-70648333D02*
X146619047Y-70791190D01*
X146619047Y-70791190D02*
X146047619Y-71362619D01*
X146047619Y-71362619D02*
X146666666Y-71362619D01*
%TO.C,R20*%
X169557142Y-120362619D02*
X169223809Y-119886428D01*
X168985714Y-120362619D02*
X168985714Y-119362619D01*
X168985714Y-119362619D02*
X169366666Y-119362619D01*
X169366666Y-119362619D02*
X169461904Y-119410238D01*
X169461904Y-119410238D02*
X169509523Y-119457857D01*
X169509523Y-119457857D02*
X169557142Y-119553095D01*
X169557142Y-119553095D02*
X169557142Y-119695952D01*
X169557142Y-119695952D02*
X169509523Y-119791190D01*
X169509523Y-119791190D02*
X169461904Y-119838809D01*
X169461904Y-119838809D02*
X169366666Y-119886428D01*
X169366666Y-119886428D02*
X168985714Y-119886428D01*
X169938095Y-119457857D02*
X169985714Y-119410238D01*
X169985714Y-119410238D02*
X170080952Y-119362619D01*
X170080952Y-119362619D02*
X170319047Y-119362619D01*
X170319047Y-119362619D02*
X170414285Y-119410238D01*
X170414285Y-119410238D02*
X170461904Y-119457857D01*
X170461904Y-119457857D02*
X170509523Y-119553095D01*
X170509523Y-119553095D02*
X170509523Y-119648333D01*
X170509523Y-119648333D02*
X170461904Y-119791190D01*
X170461904Y-119791190D02*
X169890476Y-120362619D01*
X169890476Y-120362619D02*
X170509523Y-120362619D01*
X171128571Y-119362619D02*
X171223809Y-119362619D01*
X171223809Y-119362619D02*
X171319047Y-119410238D01*
X171319047Y-119410238D02*
X171366666Y-119457857D01*
X171366666Y-119457857D02*
X171414285Y-119553095D01*
X171414285Y-119553095D02*
X171461904Y-119743571D01*
X171461904Y-119743571D02*
X171461904Y-119981666D01*
X171461904Y-119981666D02*
X171414285Y-120172142D01*
X171414285Y-120172142D02*
X171366666Y-120267380D01*
X171366666Y-120267380D02*
X171319047Y-120315000D01*
X171319047Y-120315000D02*
X171223809Y-120362619D01*
X171223809Y-120362619D02*
X171128571Y-120362619D01*
X171128571Y-120362619D02*
X171033333Y-120315000D01*
X171033333Y-120315000D02*
X170985714Y-120267380D01*
X170985714Y-120267380D02*
X170938095Y-120172142D01*
X170938095Y-120172142D02*
X170890476Y-119981666D01*
X170890476Y-119981666D02*
X170890476Y-119743571D01*
X170890476Y-119743571D02*
X170938095Y-119553095D01*
X170938095Y-119553095D02*
X170985714Y-119457857D01*
X170985714Y-119457857D02*
X171033333Y-119410238D01*
X171033333Y-119410238D02*
X171128571Y-119362619D01*
%TO.C,TP1*%
X112038095Y-122864619D02*
X112609523Y-122864619D01*
X112323809Y-123864619D02*
X112323809Y-122864619D01*
X112942857Y-123864619D02*
X112942857Y-122864619D01*
X112942857Y-122864619D02*
X113323809Y-122864619D01*
X113323809Y-122864619D02*
X113419047Y-122912238D01*
X113419047Y-122912238D02*
X113466666Y-122959857D01*
X113466666Y-122959857D02*
X113514285Y-123055095D01*
X113514285Y-123055095D02*
X113514285Y-123197952D01*
X113514285Y-123197952D02*
X113466666Y-123293190D01*
X113466666Y-123293190D02*
X113419047Y-123340809D01*
X113419047Y-123340809D02*
X113323809Y-123388428D01*
X113323809Y-123388428D02*
X112942857Y-123388428D01*
X114466666Y-123864619D02*
X113895238Y-123864619D01*
X114180952Y-123864619D02*
X114180952Y-122864619D01*
X114180952Y-122864619D02*
X114085714Y-123007476D01*
X114085714Y-123007476D02*
X113990476Y-123102714D01*
X113990476Y-123102714D02*
X113895238Y-123150333D01*
%TO.C,C21*%
X167897142Y-117267380D02*
X167849523Y-117315000D01*
X167849523Y-117315000D02*
X167706666Y-117362619D01*
X167706666Y-117362619D02*
X167611428Y-117362619D01*
X167611428Y-117362619D02*
X167468571Y-117315000D01*
X167468571Y-117315000D02*
X167373333Y-117219761D01*
X167373333Y-117219761D02*
X167325714Y-117124523D01*
X167325714Y-117124523D02*
X167278095Y-116934047D01*
X167278095Y-116934047D02*
X167278095Y-116791190D01*
X167278095Y-116791190D02*
X167325714Y-116600714D01*
X167325714Y-116600714D02*
X167373333Y-116505476D01*
X167373333Y-116505476D02*
X167468571Y-116410238D01*
X167468571Y-116410238D02*
X167611428Y-116362619D01*
X167611428Y-116362619D02*
X167706666Y-116362619D01*
X167706666Y-116362619D02*
X167849523Y-116410238D01*
X167849523Y-116410238D02*
X167897142Y-116457857D01*
X168278095Y-116457857D02*
X168325714Y-116410238D01*
X168325714Y-116410238D02*
X168420952Y-116362619D01*
X168420952Y-116362619D02*
X168659047Y-116362619D01*
X168659047Y-116362619D02*
X168754285Y-116410238D01*
X168754285Y-116410238D02*
X168801904Y-116457857D01*
X168801904Y-116457857D02*
X168849523Y-116553095D01*
X168849523Y-116553095D02*
X168849523Y-116648333D01*
X168849523Y-116648333D02*
X168801904Y-116791190D01*
X168801904Y-116791190D02*
X168230476Y-117362619D01*
X168230476Y-117362619D02*
X168849523Y-117362619D01*
X169801904Y-117362619D02*
X169230476Y-117362619D01*
X169516190Y-117362619D02*
X169516190Y-116362619D01*
X169516190Y-116362619D02*
X169420952Y-116505476D01*
X169420952Y-116505476D02*
X169325714Y-116600714D01*
X169325714Y-116600714D02*
X169230476Y-116648333D01*
%TO.C,R30*%
X143357142Y-63462619D02*
X143023809Y-62986428D01*
X142785714Y-63462619D02*
X142785714Y-62462619D01*
X142785714Y-62462619D02*
X143166666Y-62462619D01*
X143166666Y-62462619D02*
X143261904Y-62510238D01*
X143261904Y-62510238D02*
X143309523Y-62557857D01*
X143309523Y-62557857D02*
X143357142Y-62653095D01*
X143357142Y-62653095D02*
X143357142Y-62795952D01*
X143357142Y-62795952D02*
X143309523Y-62891190D01*
X143309523Y-62891190D02*
X143261904Y-62938809D01*
X143261904Y-62938809D02*
X143166666Y-62986428D01*
X143166666Y-62986428D02*
X142785714Y-62986428D01*
X143690476Y-62462619D02*
X144309523Y-62462619D01*
X144309523Y-62462619D02*
X143976190Y-62843571D01*
X143976190Y-62843571D02*
X144119047Y-62843571D01*
X144119047Y-62843571D02*
X144214285Y-62891190D01*
X144214285Y-62891190D02*
X144261904Y-62938809D01*
X144261904Y-62938809D02*
X144309523Y-63034047D01*
X144309523Y-63034047D02*
X144309523Y-63272142D01*
X144309523Y-63272142D02*
X144261904Y-63367380D01*
X144261904Y-63367380D02*
X144214285Y-63415000D01*
X144214285Y-63415000D02*
X144119047Y-63462619D01*
X144119047Y-63462619D02*
X143833333Y-63462619D01*
X143833333Y-63462619D02*
X143738095Y-63415000D01*
X143738095Y-63415000D02*
X143690476Y-63367380D01*
X144928571Y-62462619D02*
X145023809Y-62462619D01*
X145023809Y-62462619D02*
X145119047Y-62510238D01*
X145119047Y-62510238D02*
X145166666Y-62557857D01*
X145166666Y-62557857D02*
X145214285Y-62653095D01*
X145214285Y-62653095D02*
X145261904Y-62843571D01*
X145261904Y-62843571D02*
X145261904Y-63081666D01*
X145261904Y-63081666D02*
X145214285Y-63272142D01*
X145214285Y-63272142D02*
X145166666Y-63367380D01*
X145166666Y-63367380D02*
X145119047Y-63415000D01*
X145119047Y-63415000D02*
X145023809Y-63462619D01*
X145023809Y-63462619D02*
X144928571Y-63462619D01*
X144928571Y-63462619D02*
X144833333Y-63415000D01*
X144833333Y-63415000D02*
X144785714Y-63367380D01*
X144785714Y-63367380D02*
X144738095Y-63272142D01*
X144738095Y-63272142D02*
X144690476Y-63081666D01*
X144690476Y-63081666D02*
X144690476Y-62843571D01*
X144690476Y-62843571D02*
X144738095Y-62653095D01*
X144738095Y-62653095D02*
X144785714Y-62557857D01*
X144785714Y-62557857D02*
X144833333Y-62510238D01*
X144833333Y-62510238D02*
X144928571Y-62462619D01*
%TO.C,R29*%
X112457142Y-94462619D02*
X112123809Y-93986428D01*
X111885714Y-94462619D02*
X111885714Y-93462619D01*
X111885714Y-93462619D02*
X112266666Y-93462619D01*
X112266666Y-93462619D02*
X112361904Y-93510238D01*
X112361904Y-93510238D02*
X112409523Y-93557857D01*
X112409523Y-93557857D02*
X112457142Y-93653095D01*
X112457142Y-93653095D02*
X112457142Y-93795952D01*
X112457142Y-93795952D02*
X112409523Y-93891190D01*
X112409523Y-93891190D02*
X112361904Y-93938809D01*
X112361904Y-93938809D02*
X112266666Y-93986428D01*
X112266666Y-93986428D02*
X111885714Y-93986428D01*
X112838095Y-93557857D02*
X112885714Y-93510238D01*
X112885714Y-93510238D02*
X112980952Y-93462619D01*
X112980952Y-93462619D02*
X113219047Y-93462619D01*
X113219047Y-93462619D02*
X113314285Y-93510238D01*
X113314285Y-93510238D02*
X113361904Y-93557857D01*
X113361904Y-93557857D02*
X113409523Y-93653095D01*
X113409523Y-93653095D02*
X113409523Y-93748333D01*
X113409523Y-93748333D02*
X113361904Y-93891190D01*
X113361904Y-93891190D02*
X112790476Y-94462619D01*
X112790476Y-94462619D02*
X113409523Y-94462619D01*
X113885714Y-94462619D02*
X114076190Y-94462619D01*
X114076190Y-94462619D02*
X114171428Y-94415000D01*
X114171428Y-94415000D02*
X114219047Y-94367380D01*
X114219047Y-94367380D02*
X114314285Y-94224523D01*
X114314285Y-94224523D02*
X114361904Y-94034047D01*
X114361904Y-94034047D02*
X114361904Y-93653095D01*
X114361904Y-93653095D02*
X114314285Y-93557857D01*
X114314285Y-93557857D02*
X114266666Y-93510238D01*
X114266666Y-93510238D02*
X114171428Y-93462619D01*
X114171428Y-93462619D02*
X113980952Y-93462619D01*
X113980952Y-93462619D02*
X113885714Y-93510238D01*
X113885714Y-93510238D02*
X113838095Y-93557857D01*
X113838095Y-93557857D02*
X113790476Y-93653095D01*
X113790476Y-93653095D02*
X113790476Y-93891190D01*
X113790476Y-93891190D02*
X113838095Y-93986428D01*
X113838095Y-93986428D02*
X113885714Y-94034047D01*
X113885714Y-94034047D02*
X113980952Y-94081666D01*
X113980952Y-94081666D02*
X114171428Y-94081666D01*
X114171428Y-94081666D02*
X114266666Y-94034047D01*
X114266666Y-94034047D02*
X114314285Y-93986428D01*
X114314285Y-93986428D02*
X114361904Y-93891190D01*
%TO.C,U1*%
X131738095Y-65462619D02*
X131738095Y-66272142D01*
X131738095Y-66272142D02*
X131785714Y-66367380D01*
X131785714Y-66367380D02*
X131833333Y-66415000D01*
X131833333Y-66415000D02*
X131928571Y-66462619D01*
X131928571Y-66462619D02*
X132119047Y-66462619D01*
X132119047Y-66462619D02*
X132214285Y-66415000D01*
X132214285Y-66415000D02*
X132261904Y-66367380D01*
X132261904Y-66367380D02*
X132309523Y-66272142D01*
X132309523Y-66272142D02*
X132309523Y-65462619D01*
X133309523Y-66462619D02*
X132738095Y-66462619D01*
X133023809Y-66462619D02*
X133023809Y-65462619D01*
X133023809Y-65462619D02*
X132928571Y-65605476D01*
X132928571Y-65605476D02*
X132833333Y-65700714D01*
X132833333Y-65700714D02*
X132738095Y-65748333D01*
%TO.C,R2*%
X107233333Y-79162619D02*
X106900000Y-78686428D01*
X106661905Y-79162619D02*
X106661905Y-78162619D01*
X106661905Y-78162619D02*
X107042857Y-78162619D01*
X107042857Y-78162619D02*
X107138095Y-78210238D01*
X107138095Y-78210238D02*
X107185714Y-78257857D01*
X107185714Y-78257857D02*
X107233333Y-78353095D01*
X107233333Y-78353095D02*
X107233333Y-78495952D01*
X107233333Y-78495952D02*
X107185714Y-78591190D01*
X107185714Y-78591190D02*
X107138095Y-78638809D01*
X107138095Y-78638809D02*
X107042857Y-78686428D01*
X107042857Y-78686428D02*
X106661905Y-78686428D01*
X107614286Y-78257857D02*
X107661905Y-78210238D01*
X107661905Y-78210238D02*
X107757143Y-78162619D01*
X107757143Y-78162619D02*
X107995238Y-78162619D01*
X107995238Y-78162619D02*
X108090476Y-78210238D01*
X108090476Y-78210238D02*
X108138095Y-78257857D01*
X108138095Y-78257857D02*
X108185714Y-78353095D01*
X108185714Y-78353095D02*
X108185714Y-78448333D01*
X108185714Y-78448333D02*
X108138095Y-78591190D01*
X108138095Y-78591190D02*
X107566667Y-79162619D01*
X107566667Y-79162619D02*
X108185714Y-79162619D01*
%TO.C,R5*%
X194233333Y-135062619D02*
X193900000Y-134586428D01*
X193661905Y-135062619D02*
X193661905Y-134062619D01*
X193661905Y-134062619D02*
X194042857Y-134062619D01*
X194042857Y-134062619D02*
X194138095Y-134110238D01*
X194138095Y-134110238D02*
X194185714Y-134157857D01*
X194185714Y-134157857D02*
X194233333Y-134253095D01*
X194233333Y-134253095D02*
X194233333Y-134395952D01*
X194233333Y-134395952D02*
X194185714Y-134491190D01*
X194185714Y-134491190D02*
X194138095Y-134538809D01*
X194138095Y-134538809D02*
X194042857Y-134586428D01*
X194042857Y-134586428D02*
X193661905Y-134586428D01*
X195138095Y-134062619D02*
X194661905Y-134062619D01*
X194661905Y-134062619D02*
X194614286Y-134538809D01*
X194614286Y-134538809D02*
X194661905Y-134491190D01*
X194661905Y-134491190D02*
X194757143Y-134443571D01*
X194757143Y-134443571D02*
X194995238Y-134443571D01*
X194995238Y-134443571D02*
X195090476Y-134491190D01*
X195090476Y-134491190D02*
X195138095Y-134538809D01*
X195138095Y-134538809D02*
X195185714Y-134634047D01*
X195185714Y-134634047D02*
X195185714Y-134872142D01*
X195185714Y-134872142D02*
X195138095Y-134967380D01*
X195138095Y-134967380D02*
X195090476Y-135015000D01*
X195090476Y-135015000D02*
X194995238Y-135062619D01*
X194995238Y-135062619D02*
X194757143Y-135062619D01*
X194757143Y-135062619D02*
X194661905Y-135015000D01*
X194661905Y-135015000D02*
X194614286Y-134967380D01*
%TO.C,IC1*%
X112223810Y-83762619D02*
X112223810Y-82762619D01*
X113271428Y-83667380D02*
X113223809Y-83715000D01*
X113223809Y-83715000D02*
X113080952Y-83762619D01*
X113080952Y-83762619D02*
X112985714Y-83762619D01*
X112985714Y-83762619D02*
X112842857Y-83715000D01*
X112842857Y-83715000D02*
X112747619Y-83619761D01*
X112747619Y-83619761D02*
X112700000Y-83524523D01*
X112700000Y-83524523D02*
X112652381Y-83334047D01*
X112652381Y-83334047D02*
X112652381Y-83191190D01*
X112652381Y-83191190D02*
X112700000Y-83000714D01*
X112700000Y-83000714D02*
X112747619Y-82905476D01*
X112747619Y-82905476D02*
X112842857Y-82810238D01*
X112842857Y-82810238D02*
X112985714Y-82762619D01*
X112985714Y-82762619D02*
X113080952Y-82762619D01*
X113080952Y-82762619D02*
X113223809Y-82810238D01*
X113223809Y-82810238D02*
X113271428Y-82857857D01*
X114223809Y-83762619D02*
X113652381Y-83762619D01*
X113938095Y-83762619D02*
X113938095Y-82762619D01*
X113938095Y-82762619D02*
X113842857Y-82905476D01*
X113842857Y-82905476D02*
X113747619Y-83000714D01*
X113747619Y-83000714D02*
X113652381Y-83048333D01*
%TO.C,R22*%
X169657142Y-100062619D02*
X169323809Y-99586428D01*
X169085714Y-100062619D02*
X169085714Y-99062619D01*
X169085714Y-99062619D02*
X169466666Y-99062619D01*
X169466666Y-99062619D02*
X169561904Y-99110238D01*
X169561904Y-99110238D02*
X169609523Y-99157857D01*
X169609523Y-99157857D02*
X169657142Y-99253095D01*
X169657142Y-99253095D02*
X169657142Y-99395952D01*
X169657142Y-99395952D02*
X169609523Y-99491190D01*
X169609523Y-99491190D02*
X169561904Y-99538809D01*
X169561904Y-99538809D02*
X169466666Y-99586428D01*
X169466666Y-99586428D02*
X169085714Y-99586428D01*
X170038095Y-99157857D02*
X170085714Y-99110238D01*
X170085714Y-99110238D02*
X170180952Y-99062619D01*
X170180952Y-99062619D02*
X170419047Y-99062619D01*
X170419047Y-99062619D02*
X170514285Y-99110238D01*
X170514285Y-99110238D02*
X170561904Y-99157857D01*
X170561904Y-99157857D02*
X170609523Y-99253095D01*
X170609523Y-99253095D02*
X170609523Y-99348333D01*
X170609523Y-99348333D02*
X170561904Y-99491190D01*
X170561904Y-99491190D02*
X169990476Y-100062619D01*
X169990476Y-100062619D02*
X170609523Y-100062619D01*
X170990476Y-99157857D02*
X171038095Y-99110238D01*
X171038095Y-99110238D02*
X171133333Y-99062619D01*
X171133333Y-99062619D02*
X171371428Y-99062619D01*
X171371428Y-99062619D02*
X171466666Y-99110238D01*
X171466666Y-99110238D02*
X171514285Y-99157857D01*
X171514285Y-99157857D02*
X171561904Y-99253095D01*
X171561904Y-99253095D02*
X171561904Y-99348333D01*
X171561904Y-99348333D02*
X171514285Y-99491190D01*
X171514285Y-99491190D02*
X170942857Y-100062619D01*
X170942857Y-100062619D02*
X171561904Y-100062619D01*
%TO.C,C3*%
X130993333Y-63467380D02*
X130945714Y-63515000D01*
X130945714Y-63515000D02*
X130802857Y-63562619D01*
X130802857Y-63562619D02*
X130707619Y-63562619D01*
X130707619Y-63562619D02*
X130564762Y-63515000D01*
X130564762Y-63515000D02*
X130469524Y-63419761D01*
X130469524Y-63419761D02*
X130421905Y-63324523D01*
X130421905Y-63324523D02*
X130374286Y-63134047D01*
X130374286Y-63134047D02*
X130374286Y-62991190D01*
X130374286Y-62991190D02*
X130421905Y-62800714D01*
X130421905Y-62800714D02*
X130469524Y-62705476D01*
X130469524Y-62705476D02*
X130564762Y-62610238D01*
X130564762Y-62610238D02*
X130707619Y-62562619D01*
X130707619Y-62562619D02*
X130802857Y-62562619D01*
X130802857Y-62562619D02*
X130945714Y-62610238D01*
X130945714Y-62610238D02*
X130993333Y-62657857D01*
X131326667Y-62562619D02*
X131945714Y-62562619D01*
X131945714Y-62562619D02*
X131612381Y-62943571D01*
X131612381Y-62943571D02*
X131755238Y-62943571D01*
X131755238Y-62943571D02*
X131850476Y-62991190D01*
X131850476Y-62991190D02*
X131898095Y-63038809D01*
X131898095Y-63038809D02*
X131945714Y-63134047D01*
X131945714Y-63134047D02*
X131945714Y-63372142D01*
X131945714Y-63372142D02*
X131898095Y-63467380D01*
X131898095Y-63467380D02*
X131850476Y-63515000D01*
X131850476Y-63515000D02*
X131755238Y-63562619D01*
X131755238Y-63562619D02*
X131469524Y-63562619D01*
X131469524Y-63562619D02*
X131374286Y-63515000D01*
X131374286Y-63515000D02*
X131326667Y-63467380D01*
%TO.C,FB1*%
X139566666Y-154438809D02*
X139233333Y-154438809D01*
X139233333Y-154962619D02*
X139233333Y-153962619D01*
X139233333Y-153962619D02*
X139709523Y-153962619D01*
X140423809Y-154438809D02*
X140566666Y-154486428D01*
X140566666Y-154486428D02*
X140614285Y-154534047D01*
X140614285Y-154534047D02*
X140661904Y-154629285D01*
X140661904Y-154629285D02*
X140661904Y-154772142D01*
X140661904Y-154772142D02*
X140614285Y-154867380D01*
X140614285Y-154867380D02*
X140566666Y-154915000D01*
X140566666Y-154915000D02*
X140471428Y-154962619D01*
X140471428Y-154962619D02*
X140090476Y-154962619D01*
X140090476Y-154962619D02*
X140090476Y-153962619D01*
X140090476Y-153962619D02*
X140423809Y-153962619D01*
X140423809Y-153962619D02*
X140519047Y-154010238D01*
X140519047Y-154010238D02*
X140566666Y-154057857D01*
X140566666Y-154057857D02*
X140614285Y-154153095D01*
X140614285Y-154153095D02*
X140614285Y-154248333D01*
X140614285Y-154248333D02*
X140566666Y-154343571D01*
X140566666Y-154343571D02*
X140519047Y-154391190D01*
X140519047Y-154391190D02*
X140423809Y-154438809D01*
X140423809Y-154438809D02*
X140090476Y-154438809D01*
X141614285Y-154962619D02*
X141042857Y-154962619D01*
X141328571Y-154962619D02*
X141328571Y-153962619D01*
X141328571Y-153962619D02*
X141233333Y-154105476D01*
X141233333Y-154105476D02*
X141138095Y-154200714D01*
X141138095Y-154200714D02*
X141042857Y-154248333D01*
%TO.C,R17*%
X101277142Y-121362619D02*
X100943809Y-120886428D01*
X100705714Y-121362619D02*
X100705714Y-120362619D01*
X100705714Y-120362619D02*
X101086666Y-120362619D01*
X101086666Y-120362619D02*
X101181904Y-120410238D01*
X101181904Y-120410238D02*
X101229523Y-120457857D01*
X101229523Y-120457857D02*
X101277142Y-120553095D01*
X101277142Y-120553095D02*
X101277142Y-120695952D01*
X101277142Y-120695952D02*
X101229523Y-120791190D01*
X101229523Y-120791190D02*
X101181904Y-120838809D01*
X101181904Y-120838809D02*
X101086666Y-120886428D01*
X101086666Y-120886428D02*
X100705714Y-120886428D01*
X102229523Y-121362619D02*
X101658095Y-121362619D01*
X101943809Y-121362619D02*
X101943809Y-120362619D01*
X101943809Y-120362619D02*
X101848571Y-120505476D01*
X101848571Y-120505476D02*
X101753333Y-120600714D01*
X101753333Y-120600714D02*
X101658095Y-120648333D01*
X102562857Y-120362619D02*
X103229523Y-120362619D01*
X103229523Y-120362619D02*
X102800952Y-121362619D01*
%TO.C,D7*%
X112461905Y-112862619D02*
X112461905Y-111862619D01*
X112461905Y-111862619D02*
X112700000Y-111862619D01*
X112700000Y-111862619D02*
X112842857Y-111910238D01*
X112842857Y-111910238D02*
X112938095Y-112005476D01*
X112938095Y-112005476D02*
X112985714Y-112100714D01*
X112985714Y-112100714D02*
X113033333Y-112291190D01*
X113033333Y-112291190D02*
X113033333Y-112434047D01*
X113033333Y-112434047D02*
X112985714Y-112624523D01*
X112985714Y-112624523D02*
X112938095Y-112719761D01*
X112938095Y-112719761D02*
X112842857Y-112815000D01*
X112842857Y-112815000D02*
X112700000Y-112862619D01*
X112700000Y-112862619D02*
X112461905Y-112862619D01*
X113366667Y-111862619D02*
X114033333Y-111862619D01*
X114033333Y-111862619D02*
X113604762Y-112862619D01*
%TO.C,JP2*%
X115066666Y-108062619D02*
X115066666Y-108776904D01*
X115066666Y-108776904D02*
X115019047Y-108919761D01*
X115019047Y-108919761D02*
X114923809Y-109015000D01*
X114923809Y-109015000D02*
X114780952Y-109062619D01*
X114780952Y-109062619D02*
X114685714Y-109062619D01*
X115542857Y-109062619D02*
X115542857Y-108062619D01*
X115542857Y-108062619D02*
X115923809Y-108062619D01*
X115923809Y-108062619D02*
X116019047Y-108110238D01*
X116019047Y-108110238D02*
X116066666Y-108157857D01*
X116066666Y-108157857D02*
X116114285Y-108253095D01*
X116114285Y-108253095D02*
X116114285Y-108395952D01*
X116114285Y-108395952D02*
X116066666Y-108491190D01*
X116066666Y-108491190D02*
X116019047Y-108538809D01*
X116019047Y-108538809D02*
X115923809Y-108586428D01*
X115923809Y-108586428D02*
X115542857Y-108586428D01*
X116495238Y-108157857D02*
X116542857Y-108110238D01*
X116542857Y-108110238D02*
X116638095Y-108062619D01*
X116638095Y-108062619D02*
X116876190Y-108062619D01*
X116876190Y-108062619D02*
X116971428Y-108110238D01*
X116971428Y-108110238D02*
X117019047Y-108157857D01*
X117019047Y-108157857D02*
X117066666Y-108253095D01*
X117066666Y-108253095D02*
X117066666Y-108348333D01*
X117066666Y-108348333D02*
X117019047Y-108491190D01*
X117019047Y-108491190D02*
X116447619Y-109062619D01*
X116447619Y-109062619D02*
X117066666Y-109062619D01*
%TO.C,TP3*%
X111438095Y-97062619D02*
X112009523Y-97062619D01*
X111723809Y-98062619D02*
X111723809Y-97062619D01*
X112342857Y-98062619D02*
X112342857Y-97062619D01*
X112342857Y-97062619D02*
X112723809Y-97062619D01*
X112723809Y-97062619D02*
X112819047Y-97110238D01*
X112819047Y-97110238D02*
X112866666Y-97157857D01*
X112866666Y-97157857D02*
X112914285Y-97253095D01*
X112914285Y-97253095D02*
X112914285Y-97395952D01*
X112914285Y-97395952D02*
X112866666Y-97491190D01*
X112866666Y-97491190D02*
X112819047Y-97538809D01*
X112819047Y-97538809D02*
X112723809Y-97586428D01*
X112723809Y-97586428D02*
X112342857Y-97586428D01*
X113247619Y-97062619D02*
X113866666Y-97062619D01*
X113866666Y-97062619D02*
X113533333Y-97443571D01*
X113533333Y-97443571D02*
X113676190Y-97443571D01*
X113676190Y-97443571D02*
X113771428Y-97491190D01*
X113771428Y-97491190D02*
X113819047Y-97538809D01*
X113819047Y-97538809D02*
X113866666Y-97634047D01*
X113866666Y-97634047D02*
X113866666Y-97872142D01*
X113866666Y-97872142D02*
X113819047Y-97967380D01*
X113819047Y-97967380D02*
X113771428Y-98015000D01*
X113771428Y-98015000D02*
X113676190Y-98062619D01*
X113676190Y-98062619D02*
X113390476Y-98062619D01*
X113390476Y-98062619D02*
X113295238Y-98015000D01*
X113295238Y-98015000D02*
X113247619Y-97967380D01*
%TO.C,C17*%
X114157142Y-79567380D02*
X114109523Y-79615000D01*
X114109523Y-79615000D02*
X113966666Y-79662619D01*
X113966666Y-79662619D02*
X113871428Y-79662619D01*
X113871428Y-79662619D02*
X113728571Y-79615000D01*
X113728571Y-79615000D02*
X113633333Y-79519761D01*
X113633333Y-79519761D02*
X113585714Y-79424523D01*
X113585714Y-79424523D02*
X113538095Y-79234047D01*
X113538095Y-79234047D02*
X113538095Y-79091190D01*
X113538095Y-79091190D02*
X113585714Y-78900714D01*
X113585714Y-78900714D02*
X113633333Y-78805476D01*
X113633333Y-78805476D02*
X113728571Y-78710238D01*
X113728571Y-78710238D02*
X113871428Y-78662619D01*
X113871428Y-78662619D02*
X113966666Y-78662619D01*
X113966666Y-78662619D02*
X114109523Y-78710238D01*
X114109523Y-78710238D02*
X114157142Y-78757857D01*
X115109523Y-79662619D02*
X114538095Y-79662619D01*
X114823809Y-79662619D02*
X114823809Y-78662619D01*
X114823809Y-78662619D02*
X114728571Y-78805476D01*
X114728571Y-78805476D02*
X114633333Y-78900714D01*
X114633333Y-78900714D02*
X114538095Y-78948333D01*
X115442857Y-78662619D02*
X116109523Y-78662619D01*
X116109523Y-78662619D02*
X115680952Y-79662619D01*
%TO.C,R27*%
X109057142Y-94462619D02*
X108723809Y-93986428D01*
X108485714Y-94462619D02*
X108485714Y-93462619D01*
X108485714Y-93462619D02*
X108866666Y-93462619D01*
X108866666Y-93462619D02*
X108961904Y-93510238D01*
X108961904Y-93510238D02*
X109009523Y-93557857D01*
X109009523Y-93557857D02*
X109057142Y-93653095D01*
X109057142Y-93653095D02*
X109057142Y-93795952D01*
X109057142Y-93795952D02*
X109009523Y-93891190D01*
X109009523Y-93891190D02*
X108961904Y-93938809D01*
X108961904Y-93938809D02*
X108866666Y-93986428D01*
X108866666Y-93986428D02*
X108485714Y-93986428D01*
X109438095Y-93557857D02*
X109485714Y-93510238D01*
X109485714Y-93510238D02*
X109580952Y-93462619D01*
X109580952Y-93462619D02*
X109819047Y-93462619D01*
X109819047Y-93462619D02*
X109914285Y-93510238D01*
X109914285Y-93510238D02*
X109961904Y-93557857D01*
X109961904Y-93557857D02*
X110009523Y-93653095D01*
X110009523Y-93653095D02*
X110009523Y-93748333D01*
X110009523Y-93748333D02*
X109961904Y-93891190D01*
X109961904Y-93891190D02*
X109390476Y-94462619D01*
X109390476Y-94462619D02*
X110009523Y-94462619D01*
X110342857Y-93462619D02*
X111009523Y-93462619D01*
X111009523Y-93462619D02*
X110580952Y-94462619D01*
%TO.C,C23*%
X137577142Y-117367380D02*
X137529523Y-117415000D01*
X137529523Y-117415000D02*
X137386666Y-117462619D01*
X137386666Y-117462619D02*
X137291428Y-117462619D01*
X137291428Y-117462619D02*
X137148571Y-117415000D01*
X137148571Y-117415000D02*
X137053333Y-117319761D01*
X137053333Y-117319761D02*
X137005714Y-117224523D01*
X137005714Y-117224523D02*
X136958095Y-117034047D01*
X136958095Y-117034047D02*
X136958095Y-116891190D01*
X136958095Y-116891190D02*
X137005714Y-116700714D01*
X137005714Y-116700714D02*
X137053333Y-116605476D01*
X137053333Y-116605476D02*
X137148571Y-116510238D01*
X137148571Y-116510238D02*
X137291428Y-116462619D01*
X137291428Y-116462619D02*
X137386666Y-116462619D01*
X137386666Y-116462619D02*
X137529523Y-116510238D01*
X137529523Y-116510238D02*
X137577142Y-116557857D01*
X137958095Y-116557857D02*
X138005714Y-116510238D01*
X138005714Y-116510238D02*
X138100952Y-116462619D01*
X138100952Y-116462619D02*
X138339047Y-116462619D01*
X138339047Y-116462619D02*
X138434285Y-116510238D01*
X138434285Y-116510238D02*
X138481904Y-116557857D01*
X138481904Y-116557857D02*
X138529523Y-116653095D01*
X138529523Y-116653095D02*
X138529523Y-116748333D01*
X138529523Y-116748333D02*
X138481904Y-116891190D01*
X138481904Y-116891190D02*
X137910476Y-117462619D01*
X137910476Y-117462619D02*
X138529523Y-117462619D01*
X138862857Y-116462619D02*
X139481904Y-116462619D01*
X139481904Y-116462619D02*
X139148571Y-116843571D01*
X139148571Y-116843571D02*
X139291428Y-116843571D01*
X139291428Y-116843571D02*
X139386666Y-116891190D01*
X139386666Y-116891190D02*
X139434285Y-116938809D01*
X139434285Y-116938809D02*
X139481904Y-117034047D01*
X139481904Y-117034047D02*
X139481904Y-117272142D01*
X139481904Y-117272142D02*
X139434285Y-117367380D01*
X139434285Y-117367380D02*
X139386666Y-117415000D01*
X139386666Y-117415000D02*
X139291428Y-117462619D01*
X139291428Y-117462619D02*
X139005714Y-117462619D01*
X139005714Y-117462619D02*
X138910476Y-117415000D01*
X138910476Y-117415000D02*
X138862857Y-117367380D01*
%TO.C,R9*%
X110233333Y-121462619D02*
X109900000Y-120986428D01*
X109661905Y-121462619D02*
X109661905Y-120462619D01*
X109661905Y-120462619D02*
X110042857Y-120462619D01*
X110042857Y-120462619D02*
X110138095Y-120510238D01*
X110138095Y-120510238D02*
X110185714Y-120557857D01*
X110185714Y-120557857D02*
X110233333Y-120653095D01*
X110233333Y-120653095D02*
X110233333Y-120795952D01*
X110233333Y-120795952D02*
X110185714Y-120891190D01*
X110185714Y-120891190D02*
X110138095Y-120938809D01*
X110138095Y-120938809D02*
X110042857Y-120986428D01*
X110042857Y-120986428D02*
X109661905Y-120986428D01*
X110709524Y-121462619D02*
X110900000Y-121462619D01*
X110900000Y-121462619D02*
X110995238Y-121415000D01*
X110995238Y-121415000D02*
X111042857Y-121367380D01*
X111042857Y-121367380D02*
X111138095Y-121224523D01*
X111138095Y-121224523D02*
X111185714Y-121034047D01*
X111185714Y-121034047D02*
X111185714Y-120653095D01*
X111185714Y-120653095D02*
X111138095Y-120557857D01*
X111138095Y-120557857D02*
X111090476Y-120510238D01*
X111090476Y-120510238D02*
X110995238Y-120462619D01*
X110995238Y-120462619D02*
X110804762Y-120462619D01*
X110804762Y-120462619D02*
X110709524Y-120510238D01*
X110709524Y-120510238D02*
X110661905Y-120557857D01*
X110661905Y-120557857D02*
X110614286Y-120653095D01*
X110614286Y-120653095D02*
X110614286Y-120891190D01*
X110614286Y-120891190D02*
X110661905Y-120986428D01*
X110661905Y-120986428D02*
X110709524Y-121034047D01*
X110709524Y-121034047D02*
X110804762Y-121081666D01*
X110804762Y-121081666D02*
X110995238Y-121081666D01*
X110995238Y-121081666D02*
X111090476Y-121034047D01*
X111090476Y-121034047D02*
X111138095Y-120986428D01*
X111138095Y-120986428D02*
X111185714Y-120891190D01*
%TO.C,D6*%
X175461905Y-155862619D02*
X175461905Y-154862619D01*
X175461905Y-154862619D02*
X175700000Y-154862619D01*
X175700000Y-154862619D02*
X175842857Y-154910238D01*
X175842857Y-154910238D02*
X175938095Y-155005476D01*
X175938095Y-155005476D02*
X175985714Y-155100714D01*
X175985714Y-155100714D02*
X176033333Y-155291190D01*
X176033333Y-155291190D02*
X176033333Y-155434047D01*
X176033333Y-155434047D02*
X175985714Y-155624523D01*
X175985714Y-155624523D02*
X175938095Y-155719761D01*
X175938095Y-155719761D02*
X175842857Y-155815000D01*
X175842857Y-155815000D02*
X175700000Y-155862619D01*
X175700000Y-155862619D02*
X175461905Y-155862619D01*
X176890476Y-154862619D02*
X176700000Y-154862619D01*
X176700000Y-154862619D02*
X176604762Y-154910238D01*
X176604762Y-154910238D02*
X176557143Y-154957857D01*
X176557143Y-154957857D02*
X176461905Y-155100714D01*
X176461905Y-155100714D02*
X176414286Y-155291190D01*
X176414286Y-155291190D02*
X176414286Y-155672142D01*
X176414286Y-155672142D02*
X176461905Y-155767380D01*
X176461905Y-155767380D02*
X176509524Y-155815000D01*
X176509524Y-155815000D02*
X176604762Y-155862619D01*
X176604762Y-155862619D02*
X176795238Y-155862619D01*
X176795238Y-155862619D02*
X176890476Y-155815000D01*
X176890476Y-155815000D02*
X176938095Y-155767380D01*
X176938095Y-155767380D02*
X176985714Y-155672142D01*
X176985714Y-155672142D02*
X176985714Y-155434047D01*
X176985714Y-155434047D02*
X176938095Y-155338809D01*
X176938095Y-155338809D02*
X176890476Y-155291190D01*
X176890476Y-155291190D02*
X176795238Y-155243571D01*
X176795238Y-155243571D02*
X176604762Y-155243571D01*
X176604762Y-155243571D02*
X176509524Y-155291190D01*
X176509524Y-155291190D02*
X176461905Y-155338809D01*
X176461905Y-155338809D02*
X176414286Y-155434047D01*
%TO.C,R23*%
X175657142Y-153062619D02*
X175323809Y-152586428D01*
X175085714Y-153062619D02*
X175085714Y-152062619D01*
X175085714Y-152062619D02*
X175466666Y-152062619D01*
X175466666Y-152062619D02*
X175561904Y-152110238D01*
X175561904Y-152110238D02*
X175609523Y-152157857D01*
X175609523Y-152157857D02*
X175657142Y-152253095D01*
X175657142Y-152253095D02*
X175657142Y-152395952D01*
X175657142Y-152395952D02*
X175609523Y-152491190D01*
X175609523Y-152491190D02*
X175561904Y-152538809D01*
X175561904Y-152538809D02*
X175466666Y-152586428D01*
X175466666Y-152586428D02*
X175085714Y-152586428D01*
X176038095Y-152157857D02*
X176085714Y-152110238D01*
X176085714Y-152110238D02*
X176180952Y-152062619D01*
X176180952Y-152062619D02*
X176419047Y-152062619D01*
X176419047Y-152062619D02*
X176514285Y-152110238D01*
X176514285Y-152110238D02*
X176561904Y-152157857D01*
X176561904Y-152157857D02*
X176609523Y-152253095D01*
X176609523Y-152253095D02*
X176609523Y-152348333D01*
X176609523Y-152348333D02*
X176561904Y-152491190D01*
X176561904Y-152491190D02*
X175990476Y-153062619D01*
X175990476Y-153062619D02*
X176609523Y-153062619D01*
X176942857Y-152062619D02*
X177561904Y-152062619D01*
X177561904Y-152062619D02*
X177228571Y-152443571D01*
X177228571Y-152443571D02*
X177371428Y-152443571D01*
X177371428Y-152443571D02*
X177466666Y-152491190D01*
X177466666Y-152491190D02*
X177514285Y-152538809D01*
X177514285Y-152538809D02*
X177561904Y-152634047D01*
X177561904Y-152634047D02*
X177561904Y-152872142D01*
X177561904Y-152872142D02*
X177514285Y-152967380D01*
X177514285Y-152967380D02*
X177466666Y-153015000D01*
X177466666Y-153015000D02*
X177371428Y-153062619D01*
X177371428Y-153062619D02*
X177085714Y-153062619D01*
X177085714Y-153062619D02*
X176990476Y-153015000D01*
X176990476Y-153015000D02*
X176942857Y-152967380D01*
%TO.C,C30*%
X129457142Y-142567380D02*
X129409523Y-142615000D01*
X129409523Y-142615000D02*
X129266666Y-142662619D01*
X129266666Y-142662619D02*
X129171428Y-142662619D01*
X129171428Y-142662619D02*
X129028571Y-142615000D01*
X129028571Y-142615000D02*
X128933333Y-142519761D01*
X128933333Y-142519761D02*
X128885714Y-142424523D01*
X128885714Y-142424523D02*
X128838095Y-142234047D01*
X128838095Y-142234047D02*
X128838095Y-142091190D01*
X128838095Y-142091190D02*
X128885714Y-141900714D01*
X128885714Y-141900714D02*
X128933333Y-141805476D01*
X128933333Y-141805476D02*
X129028571Y-141710238D01*
X129028571Y-141710238D02*
X129171428Y-141662619D01*
X129171428Y-141662619D02*
X129266666Y-141662619D01*
X129266666Y-141662619D02*
X129409523Y-141710238D01*
X129409523Y-141710238D02*
X129457142Y-141757857D01*
X129790476Y-141662619D02*
X130409523Y-141662619D01*
X130409523Y-141662619D02*
X130076190Y-142043571D01*
X130076190Y-142043571D02*
X130219047Y-142043571D01*
X130219047Y-142043571D02*
X130314285Y-142091190D01*
X130314285Y-142091190D02*
X130361904Y-142138809D01*
X130361904Y-142138809D02*
X130409523Y-142234047D01*
X130409523Y-142234047D02*
X130409523Y-142472142D01*
X130409523Y-142472142D02*
X130361904Y-142567380D01*
X130361904Y-142567380D02*
X130314285Y-142615000D01*
X130314285Y-142615000D02*
X130219047Y-142662619D01*
X130219047Y-142662619D02*
X129933333Y-142662619D01*
X129933333Y-142662619D02*
X129838095Y-142615000D01*
X129838095Y-142615000D02*
X129790476Y-142567380D01*
X131028571Y-141662619D02*
X131123809Y-141662619D01*
X131123809Y-141662619D02*
X131219047Y-141710238D01*
X131219047Y-141710238D02*
X131266666Y-141757857D01*
X131266666Y-141757857D02*
X131314285Y-141853095D01*
X131314285Y-141853095D02*
X131361904Y-142043571D01*
X131361904Y-142043571D02*
X131361904Y-142281666D01*
X131361904Y-142281666D02*
X131314285Y-142472142D01*
X131314285Y-142472142D02*
X131266666Y-142567380D01*
X131266666Y-142567380D02*
X131219047Y-142615000D01*
X131219047Y-142615000D02*
X131123809Y-142662619D01*
X131123809Y-142662619D02*
X131028571Y-142662619D01*
X131028571Y-142662619D02*
X130933333Y-142615000D01*
X130933333Y-142615000D02*
X130885714Y-142567380D01*
X130885714Y-142567380D02*
X130838095Y-142472142D01*
X130838095Y-142472142D02*
X130790476Y-142281666D01*
X130790476Y-142281666D02*
X130790476Y-142043571D01*
X130790476Y-142043571D02*
X130838095Y-141853095D01*
X130838095Y-141853095D02*
X130885714Y-141757857D01*
X130885714Y-141757857D02*
X130933333Y-141710238D01*
X130933333Y-141710238D02*
X131028571Y-141662619D01*
%TO.C,C20*%
X129457142Y-144067380D02*
X129409523Y-144115000D01*
X129409523Y-144115000D02*
X129266666Y-144162619D01*
X129266666Y-144162619D02*
X129171428Y-144162619D01*
X129171428Y-144162619D02*
X129028571Y-144115000D01*
X129028571Y-144115000D02*
X128933333Y-144019761D01*
X128933333Y-144019761D02*
X128885714Y-143924523D01*
X128885714Y-143924523D02*
X128838095Y-143734047D01*
X128838095Y-143734047D02*
X128838095Y-143591190D01*
X128838095Y-143591190D02*
X128885714Y-143400714D01*
X128885714Y-143400714D02*
X128933333Y-143305476D01*
X128933333Y-143305476D02*
X129028571Y-143210238D01*
X129028571Y-143210238D02*
X129171428Y-143162619D01*
X129171428Y-143162619D02*
X129266666Y-143162619D01*
X129266666Y-143162619D02*
X129409523Y-143210238D01*
X129409523Y-143210238D02*
X129457142Y-143257857D01*
X129838095Y-143257857D02*
X129885714Y-143210238D01*
X129885714Y-143210238D02*
X129980952Y-143162619D01*
X129980952Y-143162619D02*
X130219047Y-143162619D01*
X130219047Y-143162619D02*
X130314285Y-143210238D01*
X130314285Y-143210238D02*
X130361904Y-143257857D01*
X130361904Y-143257857D02*
X130409523Y-143353095D01*
X130409523Y-143353095D02*
X130409523Y-143448333D01*
X130409523Y-143448333D02*
X130361904Y-143591190D01*
X130361904Y-143591190D02*
X129790476Y-144162619D01*
X129790476Y-144162619D02*
X130409523Y-144162619D01*
X131028571Y-143162619D02*
X131123809Y-143162619D01*
X131123809Y-143162619D02*
X131219047Y-143210238D01*
X131219047Y-143210238D02*
X131266666Y-143257857D01*
X131266666Y-143257857D02*
X131314285Y-143353095D01*
X131314285Y-143353095D02*
X131361904Y-143543571D01*
X131361904Y-143543571D02*
X131361904Y-143781666D01*
X131361904Y-143781666D02*
X131314285Y-143972142D01*
X131314285Y-143972142D02*
X131266666Y-144067380D01*
X131266666Y-144067380D02*
X131219047Y-144115000D01*
X131219047Y-144115000D02*
X131123809Y-144162619D01*
X131123809Y-144162619D02*
X131028571Y-144162619D01*
X131028571Y-144162619D02*
X130933333Y-144115000D01*
X130933333Y-144115000D02*
X130885714Y-144067380D01*
X130885714Y-144067380D02*
X130838095Y-143972142D01*
X130838095Y-143972142D02*
X130790476Y-143781666D01*
X130790476Y-143781666D02*
X130790476Y-143543571D01*
X130790476Y-143543571D02*
X130838095Y-143353095D01*
X130838095Y-143353095D02*
X130885714Y-143257857D01*
X130885714Y-143257857D02*
X130933333Y-143210238D01*
X130933333Y-143210238D02*
X131028571Y-143162619D01*
D11*
%TO.C,C8*%
X153060000Y-71387836D02*
X153060000Y-71172164D01*
X153780000Y-71387836D02*
X153780000Y-71172164D01*
%TO.C,TP11*%
X104450000Y-129500000D02*
G75*
G03*
X104450000Y-129500000I-1200000J0D01*
G01*
%TO.C,U8*%
X126910000Y-154210000D02*
X126910000Y-153910000D01*
X126910000Y-153910000D02*
X128225000Y-153910000D01*
X126910000Y-146990000D02*
X126910000Y-147290000D01*
X126610000Y-154210000D02*
X126910000Y-154210000D01*
X126610000Y-146990000D02*
X126910000Y-146990000D01*
X119990000Y-154210000D02*
X119690000Y-154210000D01*
X119990000Y-146990000D02*
X119690000Y-146990000D01*
X119690000Y-154210000D02*
X119690000Y-153910000D01*
X119690000Y-146990000D02*
X119690000Y-147290000D01*
%TO.C,R33*%
X130433641Y-156880000D02*
X130126359Y-156880000D01*
X130433641Y-156120000D02*
X130126359Y-156120000D01*
%TO.C,R6*%
X117736359Y-63820000D02*
X118043641Y-63820000D01*
X117736359Y-64580000D02*
X118043641Y-64580000D01*
%TO.C,TP5*%
X167200000Y-126800000D02*
G75*
G03*
X167200000Y-126800000I-1200000J0D01*
G01*
%TO.C,R32*%
X130126359Y-154382500D02*
X130433641Y-154382500D01*
X130126359Y-155142500D02*
X130433641Y-155142500D01*
%TO.C,C11*%
X194190000Y-131308767D02*
X194190000Y-131016233D01*
X195210000Y-131308767D02*
X195210000Y-131016233D01*
%TO.C,C28*%
X130387836Y-149960000D02*
X130172164Y-149960000D01*
X130387836Y-149240000D02*
X130172164Y-149240000D01*
%TO.C,R10*%
X103536359Y-87220000D02*
X103843641Y-87220000D01*
X103536359Y-87980000D02*
X103843641Y-87980000D01*
%TO.C,R11*%
X152400000Y-71156359D02*
X152400000Y-71463641D01*
X151640000Y-71156359D02*
X151640000Y-71463641D01*
D12*
%TO.C,CR1*%
X150325500Y-69181200D02*
X150325500Y-68091935D01*
X148674500Y-68091935D02*
X148674500Y-69181200D01*
D11*
%TO.C,U4*%
X189790000Y-130937500D02*
X189790000Y-132737500D01*
X189790000Y-130937500D02*
X189790000Y-130137500D01*
X192910000Y-130937500D02*
X192910000Y-131737500D01*
X192910000Y-130937500D02*
X192910000Y-130137500D01*
%TO.C,C9*%
X157860000Y-71387836D02*
X157860000Y-71172164D01*
X158580000Y-71387836D02*
X158580000Y-71172164D01*
%TO.C,C13*%
X118087836Y-69260000D02*
X117872164Y-69260000D01*
X118087836Y-68540000D02*
X117872164Y-68540000D01*
%TO.C,C10*%
X190872164Y-127540000D02*
X191087836Y-127540000D01*
X190872164Y-128260000D02*
X191087836Y-128260000D01*
%TO.C,R28*%
X105720000Y-90063641D02*
X105720000Y-89756359D01*
X106480000Y-90063641D02*
X106480000Y-89756359D01*
%TO.C,R3*%
X190480000Y-134636359D02*
X190480000Y-134943641D01*
X189720000Y-134636359D02*
X189720000Y-134943641D01*
%TO.C,C4*%
X107960000Y-111092164D02*
X107960000Y-111307836D01*
X107240000Y-111092164D02*
X107240000Y-111307836D01*
%TO.C,C24*%
X165507836Y-97260000D02*
X165292164Y-97260000D01*
X165507836Y-96540000D02*
X165292164Y-96540000D01*
D13*
%TO.C,Q3*%
X135225000Y-62675000D02*
X135225000Y-66025000D01*
X135225000Y-66025000D02*
X135400000Y-66025000D01*
X135400000Y-62675000D02*
X135225000Y-62675000D01*
X135800000Y-66450000D02*
X135800000Y-66450000D01*
X135900000Y-66450000D02*
X135900000Y-66450000D01*
X138400000Y-62675000D02*
X138575000Y-62675000D01*
X138575000Y-62675000D02*
X138575000Y-66025000D01*
X138575000Y-66025000D02*
X138400000Y-66025000D01*
X135900000Y-66450000D02*
G75*
G03*
X135800000Y-66450000I-50000J0D01*
G01*
X135800000Y-66450000D02*
G75*
G03*
X135900000Y-66450000I50000J0D01*
G01*
D11*
%TO.C,C19*%
X113512164Y-84240000D02*
X113727836Y-84240000D01*
X113512164Y-84960000D02*
X113727836Y-84960000D01*
%TO.C,TP9*%
X137100000Y-126800000D02*
G75*
G03*
X137100000Y-126800000I-1200000J0D01*
G01*
%TO.C,J3*%
X106500000Y-133400000D02*
X106060000Y-133400000D01*
X103340000Y-133400000D02*
X102900000Y-133400000D01*
X102900000Y-133400000D02*
X102900000Y-140500000D01*
X106500000Y-135090000D02*
X106500000Y-133400000D01*
X106500000Y-135090000D02*
X108300000Y-135090000D01*
X106500000Y-138810000D02*
X106500000Y-140500000D01*
X106500000Y-140500000D02*
X106060000Y-140500000D01*
X102900000Y-140500000D02*
X103340000Y-140500000D01*
D12*
%TO.C,U13*%
X163321900Y-99015600D02*
X163321900Y-100946000D01*
X166573100Y-100946000D02*
X166573100Y-99015600D01*
X164611740Y-100946000D02*
X165283260Y-100946000D01*
D13*
%TO.C,Q4*%
X138575000Y-72530000D02*
X138575000Y-69180000D01*
X138575000Y-69180000D02*
X138400000Y-69180000D01*
X138400000Y-72530000D02*
X138575000Y-72530000D01*
X138000000Y-68755000D02*
X138000000Y-68755000D01*
X137900000Y-68755000D02*
X137900000Y-68755000D01*
X135400000Y-72530000D02*
X135225000Y-72530000D01*
X135225000Y-72530000D02*
X135225000Y-69180000D01*
X135225000Y-69180000D02*
X135400000Y-69180000D01*
X137900000Y-68755000D02*
G75*
G03*
X138000000Y-68755000I50000J0D01*
G01*
X138000000Y-68755000D02*
G75*
G03*
X137900000Y-68755000I-50000J0D01*
G01*
D11*
%TO.C,R7*%
X117836359Y-66720000D02*
X118143641Y-66720000D01*
X117836359Y-67480000D02*
X118143641Y-67480000D01*
%TO.C,C25*%
X117060000Y-146972164D02*
X117060000Y-147187836D01*
X116340000Y-146972164D02*
X116340000Y-147187836D01*
D12*
%TO.C,U12*%
X133321900Y-119054000D02*
X133321900Y-120984400D01*
X136573100Y-120984400D02*
X136573100Y-119054000D01*
X134611740Y-120984400D02*
X135283260Y-120984400D01*
D11*
%TO.C,C27*%
X132765000Y-153811252D02*
X132765000Y-153288748D01*
X134235000Y-153811252D02*
X134235000Y-153288748D01*
%TO.C,FB2*%
X137022500Y-148487742D02*
X137022500Y-148962258D01*
X135977500Y-148487742D02*
X135977500Y-148962258D01*
%TO.C,C14*%
X130187836Y-70860000D02*
X129972164Y-70860000D01*
X130187836Y-70140000D02*
X129972164Y-70140000D01*
%TO.C,TP7*%
X167100000Y-106200000D02*
G75*
G03*
X167100000Y-106200000I-1200000J0D01*
G01*
D12*
%TO.C,U5*%
X163374400Y-119054000D02*
X163374400Y-120984400D01*
X166625600Y-120984400D02*
X166625600Y-119054000D01*
X164664240Y-120984400D02*
X165335760Y-120984400D01*
D14*
%TO.C,D5*%
X104525000Y-86025000D02*
X104525000Y-84375000D01*
X104525000Y-84375000D02*
X102200000Y-84375000D01*
X102200000Y-86025000D02*
X104525000Y-86025000D01*
D11*
%TO.C,C6*%
X145890000Y-68286252D02*
X145890000Y-66863748D01*
X147710000Y-68286252D02*
X147710000Y-66863748D01*
%TO.C,R18*%
X103380000Y-115956359D02*
X103380000Y-116263641D01*
X102620000Y-115956359D02*
X102620000Y-116263641D01*
%TO.C,C7*%
X144140000Y-68387836D02*
X144140000Y-68172164D01*
X144860000Y-68387836D02*
X144860000Y-68172164D01*
%TO.C,TP8*%
X186300000Y-133000000D02*
G75*
G03*
X186300000Y-133000000I-1200000J0D01*
G01*
%TO.C,TP10*%
X118200000Y-90250000D02*
G75*
G03*
X118200000Y-90250000I-1200000J0D01*
G01*
%TO.C,R14*%
X109780000Y-80756359D02*
X109780000Y-81063641D01*
X109020000Y-80756359D02*
X109020000Y-81063641D01*
%TO.C,C18*%
X113512164Y-87040000D02*
X113727836Y-87040000D01*
X113512164Y-87760000D02*
X113727836Y-87760000D01*
%TO.C,C22*%
X135627836Y-97360000D02*
X135412164Y-97360000D01*
X135627836Y-96640000D02*
X135412164Y-96640000D01*
%TO.C,TP6*%
X137200000Y-106400000D02*
G75*
G03*
X137200000Y-106400000I-1200000J0D01*
G01*
D12*
%TO.C,U11*%
X133421900Y-99115600D02*
X133421900Y-101046000D01*
X136673100Y-101046000D02*
X136673100Y-99115600D01*
X134711740Y-101046000D02*
X135383260Y-101046000D01*
D11*
%TO.C,R1*%
X113501565Y-85612843D02*
X113808847Y-85612843D01*
X113501565Y-86372843D02*
X113808847Y-86372843D01*
%TO.C,D1*%
X191091233Y-136790000D02*
X191383767Y-136790000D01*
X191091233Y-137810000D02*
X191383767Y-137810000D01*
%TO.C,U3*%
X107510000Y-127150000D02*
X107510000Y-125750000D01*
X105190000Y-125750000D02*
X105190000Y-127650000D01*
%TO.C,C29*%
X132765000Y-149211252D02*
X132765000Y-148688748D01*
X134235000Y-149211252D02*
X134235000Y-148688748D01*
%TO.C,R25*%
X104780000Y-89756359D02*
X104780000Y-90063641D01*
X104020000Y-89756359D02*
X104020000Y-90063641D01*
D15*
%TO.C,U2*%
X154825600Y-72127000D02*
G75*
G03*
X154825600Y-72127000I-18600J0D01*
G01*
D11*
%TO.C,Q2*%
X108495000Y-103975000D02*
X108495000Y-100525000D01*
X108495000Y-103975000D02*
X108495000Y-105925000D01*
X103375000Y-103975000D02*
X103375000Y-102025000D01*
X103375000Y-103975000D02*
X103375000Y-105925000D01*
%TO.C,C1*%
X130065580Y-72910000D02*
X129784420Y-72910000D01*
X130065580Y-71890000D02*
X129784420Y-71890000D01*
%TO.C,R12*%
X160000000Y-71156359D02*
X160000000Y-71463641D01*
X159240000Y-71156359D02*
X159240000Y-71463641D01*
%TO.C,R13*%
X141236359Y-72920000D02*
X141543641Y-72920000D01*
X141236359Y-73680000D02*
X141543641Y-73680000D01*
%TO.C,C5*%
X123663748Y-70440000D02*
X125086252Y-70440000D01*
X123663748Y-73160000D02*
X125086252Y-73160000D01*
%TO.C,Q1*%
X104940000Y-117137500D02*
X104940000Y-118812500D01*
X104940000Y-117137500D02*
X104940000Y-116487500D01*
X108060000Y-117137500D02*
X108060000Y-117787500D01*
X108060000Y-117137500D02*
X108060000Y-116487500D01*
%TO.C,R24*%
X108180000Y-89756359D02*
X108180000Y-90063641D01*
X107420000Y-89756359D02*
X107420000Y-90063641D01*
%TO.C,R21*%
X137320000Y-120063641D02*
X137320000Y-119756359D01*
X138080000Y-120063641D02*
X138080000Y-119756359D01*
%TO.C,R15*%
X137620000Y-100243641D02*
X137620000Y-99936359D01*
X138380000Y-100243641D02*
X138380000Y-99936359D01*
%TO.C,C2*%
X104812164Y-122540000D02*
X105027836Y-122540000D01*
X104812164Y-123260000D02*
X105027836Y-123260000D01*
%TO.C,R4*%
X194320000Y-127868641D02*
X194320000Y-127561359D01*
X195080000Y-127868641D02*
X195080000Y-127561359D01*
D16*
%TO.C,J1*%
X161090000Y-65300000D02*
X161090000Y-63550000D01*
X152150000Y-63550000D02*
X152150000Y-65300000D01*
D14*
X159994382Y-68592664D02*
G75*
G03*
X159994382Y-68592664I-100000J0D01*
G01*
D11*
%TO.C,TP4*%
X106200000Y-109900000D02*
G75*
G03*
X106200000Y-109900000I-1200000J0D01*
G01*
D13*
%TO.C,L1*%
X125175000Y-68600000D02*
X120975000Y-68600000D01*
X125175000Y-63600000D02*
X120975000Y-63600000D01*
D11*
%TO.C,C12*%
X112335000Y-102688748D02*
X112335000Y-103211252D01*
X110865000Y-102688748D02*
X110865000Y-103211252D01*
%TO.C,R16*%
X104863641Y-98980000D02*
X104556359Y-98980000D01*
X104863641Y-98220000D02*
X104556359Y-98220000D01*
%TO.C,JP1*%
X113675000Y-107200000D02*
X110875000Y-107200000D01*
X113675000Y-105200000D02*
X113675000Y-107200000D01*
X110875000Y-107200000D02*
X110875000Y-105200000D01*
X110875000Y-105200000D02*
X113675000Y-105200000D01*
%TO.C,R26*%
X111580000Y-89756359D02*
X111580000Y-90063641D01*
X110820000Y-89756359D02*
X110820000Y-90063641D01*
%TO.C,TP2*%
X146700000Y-73300000D02*
G75*
G03*
X146700000Y-73300000I-1200000J0D01*
G01*
%TO.C,R20*%
X167320000Y-120143641D02*
X167320000Y-119836359D01*
X168080000Y-120143641D02*
X168080000Y-119836359D01*
%TO.C,TP1*%
X114500000Y-125400000D02*
G75*
G03*
X114500000Y-125400000I-1200000J0D01*
G01*
%TO.C,C21*%
X165627836Y-117260000D02*
X165412164Y-117260000D01*
X165627836Y-116540000D02*
X165412164Y-116540000D01*
%TO.C,R30*%
X141340000Y-66689564D02*
X141340000Y-65235436D01*
X143160000Y-66689564D02*
X143160000Y-65235436D01*
%TO.C,R29*%
X112520000Y-90063641D02*
X112520000Y-89756359D01*
X113280000Y-90063641D02*
X113280000Y-89756359D01*
%TO.C,U1*%
X128090000Y-66162500D02*
X128090000Y-67962500D01*
X128090000Y-66162500D02*
X128090000Y-65362500D01*
X131210000Y-66162500D02*
X131210000Y-66962500D01*
X131210000Y-66162500D02*
X131210000Y-65362500D01*
%TO.C,R2*%
X108380000Y-80756359D02*
X108380000Y-81063641D01*
X107620000Y-80756359D02*
X107620000Y-81063641D01*
%TO.C,R5*%
X192680000Y-134529879D02*
X192680000Y-134865121D01*
X191920000Y-134529879D02*
X191920000Y-134865121D01*
D17*
%TO.C,IC1*%
X106725000Y-83200000D02*
G75*
G03*
X106725000Y-83200000I-125000J0D01*
G01*
D11*
%TO.C,R22*%
X167420000Y-99963641D02*
X167420000Y-99656359D01*
X168180000Y-99963641D02*
X168180000Y-99656359D01*
%TO.C,C3*%
X128572164Y-62640000D02*
X128787836Y-62640000D01*
X128572164Y-63360000D02*
X128787836Y-63360000D01*
%TO.C,FB1*%
X137512258Y-155022500D02*
X137037742Y-155022500D01*
X137512258Y-153977500D02*
X137037742Y-153977500D01*
%TO.C,R17*%
X105063641Y-121280000D02*
X104756359Y-121280000D01*
X105063641Y-120520000D02*
X104756359Y-120520000D01*
D14*
%TO.C,D7*%
X111762000Y-109985000D02*
X111762000Y-113525000D01*
X110038000Y-110775000D02*
X110038000Y-113525000D01*
D11*
%TO.C,JP2*%
X113675000Y-109500000D02*
X110875000Y-109500000D01*
X113675000Y-107500000D02*
X113675000Y-109500000D01*
X110875000Y-109500000D02*
X110875000Y-107500000D01*
X110875000Y-107500000D02*
X113675000Y-107500000D01*
%TO.C,TP3*%
X110400000Y-97300000D02*
G75*
G03*
X110400000Y-97300000I-1200000J0D01*
G01*
%TO.C,C17*%
X113288748Y-80665000D02*
X113811252Y-80665000D01*
X113288748Y-82135000D02*
X113811252Y-82135000D01*
%TO.C,R27*%
X109120000Y-90063641D02*
X109120000Y-89756359D01*
X109880000Y-90063641D02*
X109880000Y-89756359D01*
%TO.C,C23*%
X135507836Y-117360000D02*
X135292164Y-117360000D01*
X135507836Y-116640000D02*
X135292164Y-116640000D01*
%TO.C,R9*%
X108163641Y-121280000D02*
X107856359Y-121280000D01*
X108163641Y-120520000D02*
X107856359Y-120520000D01*
D14*
%TO.C,D6*%
X171175000Y-154675000D02*
X171175000Y-156325000D01*
X171175000Y-156325000D02*
X173500000Y-156325000D01*
X173500000Y-154675000D02*
X171175000Y-154675000D01*
D11*
%TO.C,R23*%
X172943641Y-152880000D02*
X172636359Y-152880000D01*
X172943641Y-152120000D02*
X172636359Y-152120000D01*
%TO.C,C30*%
X130387836Y-151677500D02*
X130172164Y-151677500D01*
X130387836Y-150957500D02*
X130172164Y-150957500D01*
%TO.C,C20*%
X130387836Y-153395000D02*
X130172164Y-153395000D01*
X130387836Y-152675000D02*
X130172164Y-152675000D01*
%TD*%
M02*
