%TF.GenerationSoftware,KiCad,Pcbnew,7.0.2*%
%TF.CreationDate,2024-06-02T17:27:24+02:00*%
%TF.ProjectId,Podgrzewacz,506f6467-727a-4657-9761-637a2e6b6963,rev?*%
%TF.SameCoordinates,Original*%
%TF.FileFunction,Paste,Top*%
%TF.FilePolarity,Positive*%
%FSLAX46Y46*%
G04 Gerber Fmt 4.6, Leading zero omitted, Abs format (unit mm)*
G04 Created by KiCad (PCBNEW 7.0.2) date 2024-06-02 17:27:24*
%MOMM*%
%LPD*%
G01*
G04 APERTURE LIST*
G04 Aperture macros list*
%AMRoundRect*
0 Rectangle with rounded corners*
0 $1 Rounding radius*
0 $2 $3 $4 $5 $6 $7 $8 $9 X,Y pos of 4 corners*
0 Add a 4 corners polygon primitive as box body*
4,1,4,$2,$3,$4,$5,$6,$7,$8,$9,$2,$3,0*
0 Add four circle primitives for the rounded corners*
1,1,$1+$1,$2,$3*
1,1,$1+$1,$4,$5*
1,1,$1+$1,$6,$7*
1,1,$1+$1,$8,$9*
0 Add four rect primitives between the rounded corners*
20,1,$1+$1,$2,$3,$4,$5,0*
20,1,$1+$1,$4,$5,$6,$7,0*
20,1,$1+$1,$6,$7,$8,$9,0*
20,1,$1+$1,$8,$9,$2,$3,0*%
G04 Aperture macros list end*
%ADD10RoundRect,0.140000X0.170000X-0.140000X0.170000X0.140000X-0.170000X0.140000X-0.170000X-0.140000X0*%
%ADD11RoundRect,0.125000X0.625000X0.125000X-0.625000X0.125000X-0.625000X-0.125000X0.625000X-0.125000X0*%
%ADD12RoundRect,0.125000X0.125000X0.625000X-0.125000X0.625000X-0.125000X-0.625000X0.125000X-0.625000X0*%
%ADD13RoundRect,0.135000X0.135000X0.185000X-0.135000X0.185000X-0.135000X-0.185000X0.135000X-0.185000X0*%
%ADD14RoundRect,0.135000X-0.135000X-0.185000X0.135000X-0.185000X0.135000X0.185000X-0.135000X0.185000X0*%
%ADD15RoundRect,0.237500X0.237500X-0.300000X0.237500X0.300000X-0.237500X0.300000X-0.237500X-0.300000X0*%
%ADD16RoundRect,0.140000X0.140000X0.170000X-0.140000X0.170000X-0.140000X-0.170000X0.140000X-0.170000X0*%
%ADD17RoundRect,0.135000X-0.185000X0.135000X-0.185000X-0.135000X0.185000X-0.135000X0.185000X0.135000X0*%
%ADD18R,0.762000X0.965200*%
%ADD19R,0.990600X1.701800*%
%ADD20RoundRect,0.150000X0.150000X-0.512500X0.150000X0.512500X-0.150000X0.512500X-0.150000X-0.512500X0*%
%ADD21RoundRect,0.140000X-0.140000X-0.170000X0.140000X-0.170000X0.140000X0.170000X-0.140000X0.170000X0*%
%ADD22RoundRect,0.135000X0.185000X-0.135000X0.185000X0.135000X-0.185000X0.135000X-0.185000X-0.135000X0*%
%ADD23RoundRect,0.140000X-0.170000X0.140000X-0.170000X-0.140000X0.170000X-0.140000X0.170000X0.140000X0*%
%ADD24R,0.420000X0.700000*%
%ADD25R,0.420000X0.540000*%
%ADD26R,2.370000X1.710000*%
%ADD27R,1.800000X0.700000*%
%ADD28R,2.200000X1.600000*%
%ADD29R,0.568000X1.258799*%
%ADD30RoundRect,0.250000X0.475000X-0.250000X0.475000X0.250000X-0.475000X0.250000X-0.475000X-0.250000X0*%
%ADD31RoundRect,0.200000X-0.275000X0.200000X-0.275000X-0.200000X0.275000X-0.200000X0.275000X0.200000X0*%
%ADD32R,0.950000X0.950000*%
%ADD33RoundRect,0.250000X0.650000X-0.325000X0.650000X0.325000X-0.650000X0.325000X-0.650000X-0.325000X0*%
%ADD34RoundRect,0.237500X-0.300000X-0.237500X0.300000X-0.237500X0.300000X0.237500X-0.300000X0.237500X0*%
%ADD35R,0.400000X0.650000*%
%ADD36R,0.300000X0.550000*%
%ADD37R,0.400000X0.550000*%
%ADD38RoundRect,0.150000X-0.150000X0.825000X-0.150000X-0.825000X0.150000X-0.825000X0.150000X0.825000X0*%
%ADD39RoundRect,0.225000X0.225000X0.250000X-0.225000X0.250000X-0.225000X-0.250000X0.225000X-0.250000X0*%
%ADD40RoundRect,0.250000X-0.325000X-1.100000X0.325000X-1.100000X0.325000X1.100000X-0.325000X1.100000X0*%
%ADD41RoundRect,0.150000X0.150000X-0.587500X0.150000X0.587500X-0.150000X0.587500X-0.150000X-0.587500X0*%
%ADD42R,0.270000X0.900000*%
%ADD43R,0.270000X0.800000*%
%ADD44R,1.850000X4.100000*%
%ADD45RoundRect,0.250000X-0.475000X0.250000X-0.475000X-0.250000X0.475000X-0.250000X0.475000X0.250000X0*%
%ADD46RoundRect,0.250000X0.625000X-0.312500X0.625000X0.312500X-0.625000X0.312500X-0.625000X-0.312500X0*%
%ADD47RoundRect,0.160000X-0.160000X0.197500X-0.160000X-0.197500X0.160000X-0.197500X0.160000X0.197500X0*%
%ADD48R,0.800000X0.300000*%
%ADD49R,0.300000X0.800000*%
%ADD50R,2.750000X2.750000*%
%ADD51RoundRect,0.200000X0.200000X0.275000X-0.200000X0.275000X-0.200000X-0.275000X0.200000X-0.275000X0*%
%ADD52R,1.170000X1.030000*%
%ADD53RoundRect,0.250000X-0.250000X-0.475000X0.250000X-0.475000X0.250000X0.475000X-0.250000X0.475000X0*%
G04 APERTURE END LIST*
D10*
%TO.C,C8*%
X153420000Y-71760000D03*
X153420000Y-70800000D03*
%TD*%
D11*
%TO.C,U8*%
X127475000Y-153400000D03*
X127475000Y-152600000D03*
X127475000Y-151800000D03*
X127475000Y-151000000D03*
X127475000Y-150200000D03*
X127475000Y-149400000D03*
X127475000Y-148600000D03*
X127475000Y-147800000D03*
D12*
X126100000Y-146425000D03*
X125300000Y-146425000D03*
X124500000Y-146425000D03*
X123700000Y-146425000D03*
X122900000Y-146425000D03*
X122100000Y-146425000D03*
X121300000Y-146425000D03*
X120500000Y-146425000D03*
D11*
X119125000Y-147800000D03*
X119125000Y-148600000D03*
X119125000Y-149400000D03*
X119125000Y-150200000D03*
X119125000Y-151000000D03*
X119125000Y-151800000D03*
X119125000Y-152600000D03*
X119125000Y-153400000D03*
D12*
X120500000Y-154775000D03*
X121300000Y-154775000D03*
X122100000Y-154775000D03*
X122900000Y-154775000D03*
X123700000Y-154775000D03*
X124500000Y-154775000D03*
X125300000Y-154775000D03*
X126100000Y-154775000D03*
%TD*%
D13*
%TO.C,R33*%
X130790000Y-156500000D03*
X129770000Y-156500000D03*
%TD*%
D14*
%TO.C,R6*%
X117380000Y-64200000D03*
X118400000Y-64200000D03*
%TD*%
%TO.C,R32*%
X129770000Y-154762500D03*
X130790000Y-154762500D03*
%TD*%
D15*
%TO.C,C11*%
X194700000Y-132025000D03*
X194700000Y-130300000D03*
%TD*%
D16*
%TO.C,C28*%
X130760000Y-149600000D03*
X129800000Y-149600000D03*
%TD*%
D14*
%TO.C,R10*%
X103180000Y-87600000D03*
X104200000Y-87600000D03*
%TD*%
D17*
%TO.C,R11*%
X152020000Y-70800000D03*
X152020000Y-71820000D03*
%TD*%
D18*
%TO.C,CR1*%
X149500000Y-68965300D03*
D19*
X149500000Y-67200000D03*
%TD*%
D20*
%TO.C,U4*%
X190400000Y-132075000D03*
X191350000Y-132075000D03*
X192300000Y-132075000D03*
X192300000Y-129800000D03*
X191350000Y-129800000D03*
X190400000Y-129800000D03*
%TD*%
D10*
%TO.C,C9*%
X158220000Y-71760000D03*
X158220000Y-70800000D03*
%TD*%
D16*
%TO.C,C13*%
X118460000Y-68900000D03*
X117500000Y-68900000D03*
%TD*%
D21*
%TO.C,C10*%
X190500000Y-127900000D03*
X191460000Y-127900000D03*
%TD*%
D22*
%TO.C,R28*%
X106100000Y-90420000D03*
X106100000Y-89400000D03*
%TD*%
D17*
%TO.C,R3*%
X190100000Y-134280000D03*
X190100000Y-135300000D03*
%TD*%
D23*
%TO.C,C4*%
X107600000Y-110720000D03*
X107600000Y-111680000D03*
%TD*%
D16*
%TO.C,C24*%
X165880000Y-96900000D03*
X164920000Y-96900000D03*
%TD*%
D24*
%TO.C,Q3*%
X135925000Y-65850000D03*
X136575000Y-65850000D03*
X137225000Y-65850000D03*
X137875000Y-65850000D03*
D25*
X137875000Y-62770000D03*
X137225000Y-62770000D03*
X136575000Y-62770000D03*
X135925000Y-62770000D03*
D26*
X136900000Y-63895000D03*
%TD*%
D21*
%TO.C,C19*%
X113140000Y-84600000D03*
X114100000Y-84600000D03*
%TD*%
D27*
%TO.C,J3*%
X107400000Y-135700000D03*
X107400000Y-136950000D03*
X107400000Y-138200000D03*
D28*
X104700000Y-133450000D03*
X104700000Y-140450000D03*
%TD*%
D29*
%TO.C,U13*%
X165900000Y-98761600D03*
X164947500Y-98761600D03*
X163995000Y-98761600D03*
X163995000Y-101200000D03*
X165900000Y-101200000D03*
%TD*%
D24*
%TO.C,Q4*%
X137875000Y-69355000D03*
X137225000Y-69355000D03*
X136575000Y-69355000D03*
X135925000Y-69355000D03*
D25*
X135925000Y-72435000D03*
X136575000Y-72435000D03*
X137225000Y-72435000D03*
X137875000Y-72435000D03*
D26*
X136900000Y-71310000D03*
%TD*%
D14*
%TO.C,R7*%
X117480000Y-67100000D03*
X118500000Y-67100000D03*
%TD*%
D23*
%TO.C,C25*%
X116700000Y-146600000D03*
X116700000Y-147560000D03*
%TD*%
D29*
%TO.C,U12*%
X135900000Y-118800000D03*
X134947500Y-118800000D03*
X133995000Y-118800000D03*
X133995000Y-121238400D03*
X135900000Y-121238400D03*
%TD*%
D30*
%TO.C,C27*%
X133500000Y-154500000D03*
X133500000Y-152600000D03*
%TD*%
D31*
%TO.C,FB2*%
X136500000Y-147900000D03*
X136500000Y-149550000D03*
%TD*%
D16*
%TO.C,C14*%
X130560000Y-70500000D03*
X129600000Y-70500000D03*
%TD*%
D29*
%TO.C,U5*%
X165952500Y-118800000D03*
X165000000Y-118800000D03*
X164047500Y-118800000D03*
X164047500Y-121238400D03*
X165952500Y-121238400D03*
%TD*%
D32*
%TO.C,D5*%
X103700000Y-85200000D03*
X102200000Y-85200000D03*
%TD*%
D33*
%TO.C,C6*%
X146800000Y-69050000D03*
X146800000Y-66100000D03*
%TD*%
D17*
%TO.C,R18*%
X103000000Y-115600000D03*
X103000000Y-116620000D03*
%TD*%
D10*
%TO.C,C7*%
X144500000Y-68760000D03*
X144500000Y-67800000D03*
%TD*%
D17*
%TO.C,R14*%
X109400000Y-80400000D03*
X109400000Y-81420000D03*
%TD*%
D21*
%TO.C,C18*%
X113140000Y-87400000D03*
X114100000Y-87400000D03*
%TD*%
D16*
%TO.C,C22*%
X136000000Y-97000000D03*
X135040000Y-97000000D03*
%TD*%
D29*
%TO.C,U11*%
X136000000Y-98861600D03*
X135047500Y-98861600D03*
X134095000Y-98861600D03*
X134095000Y-101300000D03*
X136000000Y-101300000D03*
%TD*%
D14*
%TO.C,R1*%
X113145206Y-85992843D03*
X114165206Y-85992843D03*
%TD*%
D34*
%TO.C,D1*%
X190375000Y-137300000D03*
X192100000Y-137300000D03*
%TD*%
D35*
%TO.C,U3*%
X105700000Y-127400000D03*
X106350000Y-127400000D03*
X107000000Y-127400000D03*
X107000000Y-125500000D03*
X106350000Y-125500000D03*
X105700000Y-125500000D03*
%TD*%
D30*
%TO.C,C29*%
X133500000Y-149900000D03*
X133500000Y-148000000D03*
%TD*%
D17*
%TO.C,R25*%
X104400000Y-89400000D03*
X104400000Y-90420000D03*
%TD*%
D36*
%TO.C,U2*%
X154820000Y-71670000D03*
X155320000Y-71670000D03*
D37*
X155820000Y-71670000D03*
D36*
X156320000Y-71670000D03*
X156820000Y-71670000D03*
X156820000Y-70900000D03*
X156320000Y-70900000D03*
D37*
X155820000Y-70900000D03*
D36*
X155320000Y-70900000D03*
X154820000Y-70900000D03*
%TD*%
D38*
%TO.C,Q2*%
X107840000Y-101500000D03*
X106570000Y-101500000D03*
X105300000Y-101500000D03*
X104030000Y-101500000D03*
X104030000Y-106450000D03*
X105300000Y-106450000D03*
X106570000Y-106450000D03*
X107840000Y-106450000D03*
%TD*%
D39*
%TO.C,C1*%
X130700000Y-72400000D03*
X129150000Y-72400000D03*
%TD*%
D17*
%TO.C,R12*%
X159620000Y-70800000D03*
X159620000Y-71820000D03*
%TD*%
D14*
%TO.C,R13*%
X140880000Y-73300000D03*
X141900000Y-73300000D03*
%TD*%
D40*
%TO.C,C5*%
X122900000Y-71800000D03*
X125850000Y-71800000D03*
%TD*%
D41*
%TO.C,Q1*%
X105550000Y-118075000D03*
X107450000Y-118075000D03*
X106500000Y-116200000D03*
%TD*%
D17*
%TO.C,R24*%
X107800000Y-89400000D03*
X107800000Y-90420000D03*
%TD*%
D22*
%TO.C,R21*%
X137700000Y-120420000D03*
X137700000Y-119400000D03*
%TD*%
%TO.C,R15*%
X138000000Y-100600000D03*
X138000000Y-99580000D03*
%TD*%
D21*
%TO.C,C2*%
X104440000Y-122900000D03*
X105400000Y-122900000D03*
%TD*%
D22*
%TO.C,R4*%
X194700000Y-128225000D03*
X194700000Y-127205000D03*
%TD*%
D42*
%TO.C,J1*%
X159245000Y-67550000D03*
X158745000Y-67550000D03*
X158245000Y-67550000D03*
X157745000Y-67550000D03*
X157245000Y-67550000D03*
X156745000Y-67550000D03*
X156245000Y-67550000D03*
X155745000Y-67550000D03*
X155245000Y-67550000D03*
X154745000Y-67550000D03*
X154245000Y-67550000D03*
X153745000Y-67550000D03*
D43*
X153995000Y-65950000D03*
X154495000Y-65950000D03*
X154995000Y-65950000D03*
X155495000Y-65950000D03*
X155995000Y-65950000D03*
X156495000Y-65950000D03*
X156995000Y-65950000D03*
X157495000Y-65950000D03*
X157995000Y-65950000D03*
X158495000Y-65950000D03*
X158995000Y-65950000D03*
X159495000Y-65950000D03*
%TD*%
D44*
%TO.C,L1*%
X124900000Y-66100000D03*
X121250000Y-66100000D03*
%TD*%
D45*
%TO.C,C12*%
X111600000Y-102000000D03*
X111600000Y-103900000D03*
%TD*%
D13*
%TO.C,R16*%
X105220000Y-98600000D03*
X104200000Y-98600000D03*
%TD*%
D17*
%TO.C,R26*%
X111200000Y-89400000D03*
X111200000Y-90420000D03*
%TD*%
D22*
%TO.C,R20*%
X167700000Y-120500000D03*
X167700000Y-119480000D03*
%TD*%
D16*
%TO.C,C21*%
X166000000Y-116900000D03*
X165040000Y-116900000D03*
%TD*%
D46*
%TO.C,R30*%
X142250000Y-67425000D03*
X142250000Y-64500000D03*
%TD*%
D22*
%TO.C,R29*%
X112900000Y-90420000D03*
X112900000Y-89400000D03*
%TD*%
D20*
%TO.C,U1*%
X128700000Y-67300000D03*
X129650000Y-67300000D03*
X130600000Y-67300000D03*
X130600000Y-65025000D03*
X129650000Y-65025000D03*
X128700000Y-65025000D03*
%TD*%
D17*
%TO.C,R2*%
X108000000Y-80400000D03*
X108000000Y-81420000D03*
%TD*%
D47*
%TO.C,R5*%
X192300000Y-134100000D03*
X192300000Y-135295000D03*
%TD*%
D48*
%TO.C,IC1*%
X107000000Y-83950000D03*
X107000000Y-84450000D03*
X107000000Y-84950000D03*
X107000000Y-85450000D03*
X107000000Y-85950000D03*
X107000000Y-86450000D03*
D49*
X107750000Y-87200000D03*
X108250000Y-87200000D03*
X108750000Y-87200000D03*
X109250000Y-87200000D03*
X109750000Y-87200000D03*
X110250000Y-87200000D03*
D48*
X111000000Y-86450000D03*
X111000000Y-85950000D03*
X111000000Y-85450000D03*
X111000000Y-84950000D03*
X111000000Y-84450000D03*
X111000000Y-83950000D03*
D49*
X110250000Y-83200000D03*
X109750000Y-83200000D03*
X109250000Y-83200000D03*
X108750000Y-83200000D03*
X108250000Y-83200000D03*
X107750000Y-83200000D03*
D50*
X109000000Y-85200000D03*
%TD*%
D22*
%TO.C,R22*%
X167800000Y-100320000D03*
X167800000Y-99300000D03*
%TD*%
D21*
%TO.C,C3*%
X128200000Y-63000000D03*
X129160000Y-63000000D03*
%TD*%
D51*
%TO.C,FB1*%
X138100000Y-154500000D03*
X136450000Y-154500000D03*
%TD*%
D13*
%TO.C,R17*%
X105420000Y-120900000D03*
X104400000Y-120900000D03*
%TD*%
D52*
%TO.C,D7*%
X110900000Y-110500000D03*
X110900000Y-113800000D03*
%TD*%
D53*
%TO.C,C17*%
X112600000Y-81400000D03*
X114500000Y-81400000D03*
%TD*%
D22*
%TO.C,R27*%
X109500000Y-90420000D03*
X109500000Y-89400000D03*
%TD*%
D16*
%TO.C,C23*%
X135880000Y-117000000D03*
X134920000Y-117000000D03*
%TD*%
D13*
%TO.C,R9*%
X108520000Y-120900000D03*
X107500000Y-120900000D03*
%TD*%
D32*
%TO.C,D6*%
X172000000Y-155500000D03*
X173500000Y-155500000D03*
%TD*%
D13*
%TO.C,R23*%
X173300000Y-152500000D03*
X172280000Y-152500000D03*
%TD*%
D16*
%TO.C,C30*%
X130760000Y-151317500D03*
X129800000Y-151317500D03*
%TD*%
%TO.C,C20*%
X130760000Y-153035000D03*
X129800000Y-153035000D03*
%TD*%
M02*
