%TF.GenerationSoftware,KiCad,Pcbnew,7.0.2*%
%TF.CreationDate,2024-06-02T17:27:24+02:00*%
%TF.ProjectId,Podgrzewacz,506f6467-727a-4657-9761-637a2e6b6963,rev?*%
%TF.SameCoordinates,Original*%
%TF.FileFunction,Soldermask,Top*%
%TF.FilePolarity,Negative*%
%FSLAX46Y46*%
G04 Gerber Fmt 4.6, Leading zero omitted, Abs format (unit mm)*
G04 Created by KiCad (PCBNEW 7.0.2) date 2024-06-02 17:27:24*
%MOMM*%
%LPD*%
G01*
G04 APERTURE LIST*
G04 Aperture macros list*
%AMRoundRect*
0 Rectangle with rounded corners*
0 $1 Rounding radius*
0 $2 $3 $4 $5 $6 $7 $8 $9 X,Y pos of 4 corners*
0 Add a 4 corners polygon primitive as box body*
4,1,4,$2,$3,$4,$5,$6,$7,$8,$9,$2,$3,0*
0 Add four circle primitives for the rounded corners*
1,1,$1+$1,$2,$3*
1,1,$1+$1,$4,$5*
1,1,$1+$1,$6,$7*
1,1,$1+$1,$8,$9*
0 Add four rect primitives between the rounded corners*
20,1,$1+$1,$2,$3,$4,$5,0*
20,1,$1+$1,$4,$5,$6,$7,0*
20,1,$1+$1,$6,$7,$8,$9,0*
20,1,$1+$1,$8,$9,$2,$3,0*%
%AMFreePoly0*
4,1,6,1.000000,0.000000,0.500000,-0.750000,-0.500000,-0.750000,-0.500000,0.750000,0.500000,0.750000,1.000000,0.000000,1.000000,0.000000,$1*%
%AMFreePoly1*
4,1,6,0.500000,-0.750000,-0.650000,-0.750000,-0.150000,0.000000,-0.650000,0.750000,0.500000,0.750000,0.500000,-0.750000,0.500000,-0.750000,$1*%
G04 Aperture macros list end*
%ADD10C,0.010000*%
%ADD11RoundRect,0.140000X0.170000X-0.140000X0.170000X0.140000X-0.170000X0.140000X-0.170000X-0.140000X0*%
%ADD12C,2.000000*%
%ADD13RoundRect,0.125000X0.625000X0.125000X-0.625000X0.125000X-0.625000X-0.125000X0.625000X-0.125000X0*%
%ADD14RoundRect,0.125000X0.125000X0.625000X-0.125000X0.625000X-0.125000X-0.625000X0.125000X-0.625000X0*%
%ADD15RoundRect,0.135000X0.135000X0.185000X-0.135000X0.185000X-0.135000X-0.185000X0.135000X-0.185000X0*%
%ADD16RoundRect,0.135000X-0.135000X-0.185000X0.135000X-0.185000X0.135000X0.185000X-0.135000X0.185000X0*%
%ADD17RoundRect,0.237500X0.237500X-0.300000X0.237500X0.300000X-0.237500X0.300000X-0.237500X-0.300000X0*%
%ADD18RoundRect,0.140000X0.140000X0.170000X-0.140000X0.170000X-0.140000X-0.170000X0.140000X-0.170000X0*%
%ADD19RoundRect,0.135000X-0.185000X0.135000X-0.185000X-0.135000X0.185000X-0.135000X0.185000X0.135000X0*%
%ADD20R,0.762000X0.965200*%
%ADD21R,0.990600X1.701800*%
%ADD22RoundRect,0.150000X0.150000X-0.512500X0.150000X0.512500X-0.150000X0.512500X-0.150000X-0.512500X0*%
%ADD23RoundRect,0.140000X-0.140000X-0.170000X0.140000X-0.170000X0.140000X0.170000X-0.140000X0.170000X0*%
%ADD24RoundRect,0.135000X0.185000X-0.135000X0.185000X0.135000X-0.185000X0.135000X-0.185000X-0.135000X0*%
%ADD25RoundRect,0.140000X-0.170000X0.140000X-0.170000X-0.140000X0.170000X-0.140000X0.170000X0.140000X0*%
%ADD26R,0.420000X0.700000*%
%ADD27R,0.420000X0.540000*%
%ADD28R,2.370000X1.710000*%
%ADD29R,1.800000X0.700000*%
%ADD30R,2.200000X1.600000*%
%ADD31R,0.568000X1.258799*%
%ADD32RoundRect,0.250000X0.475000X-0.250000X0.475000X0.250000X-0.475000X0.250000X-0.475000X-0.250000X0*%
%ADD33RoundRect,0.200000X-0.275000X0.200000X-0.275000X-0.200000X0.275000X-0.200000X0.275000X0.200000X0*%
%ADD34R,0.950000X0.950000*%
%ADD35RoundRect,0.250000X0.650000X-0.325000X0.650000X0.325000X-0.650000X0.325000X-0.650000X-0.325000X0*%
%ADD36RoundRect,0.237500X-0.300000X-0.237500X0.300000X-0.237500X0.300000X0.237500X-0.300000X0.237500X0*%
%ADD37R,0.400000X0.650000*%
%ADD38R,0.300000X0.550000*%
%ADD39R,0.400000X0.550000*%
%ADD40RoundRect,0.150000X-0.150000X0.825000X-0.150000X-0.825000X0.150000X-0.825000X0.150000X0.825000X0*%
%ADD41RoundRect,0.225000X0.225000X0.250000X-0.225000X0.250000X-0.225000X-0.250000X0.225000X-0.250000X0*%
%ADD42RoundRect,0.250000X-0.325000X-1.100000X0.325000X-1.100000X0.325000X1.100000X-0.325000X1.100000X0*%
%ADD43RoundRect,0.150000X0.150000X-0.587500X0.150000X0.587500X-0.150000X0.587500X-0.150000X-0.587500X0*%
%ADD44C,0.630000*%
%ADD45C,0.530000*%
%ADD46RoundRect,0.102000X-0.135000X0.450000X-0.135000X-0.450000X0.135000X-0.450000X0.135000X0.450000X0*%
%ADD47RoundRect,0.102000X-0.135000X0.400000X-0.135000X-0.400000X0.135000X-0.400000X0.135000X0.400000X0*%
%ADD48O,1.504000X2.804000*%
%ADD49O,1.804000X2.804000*%
%ADD50R,1.850000X4.100000*%
%ADD51RoundRect,0.250000X-0.475000X0.250000X-0.475000X-0.250000X0.475000X-0.250000X0.475000X0.250000X0*%
%ADD52FreePoly0,180.000000*%
%ADD53FreePoly1,180.000000*%
%ADD54RoundRect,0.250000X0.625000X-0.312500X0.625000X0.312500X-0.625000X0.312500X-0.625000X-0.312500X0*%
%ADD55RoundRect,0.160000X-0.160000X0.197500X-0.160000X-0.197500X0.160000X-0.197500X0.160000X0.197500X0*%
%ADD56R,0.800000X0.300000*%
%ADD57R,0.300000X0.800000*%
%ADD58R,2.750000X2.750000*%
%ADD59RoundRect,0.200000X0.200000X0.275000X-0.200000X0.275000X-0.200000X-0.275000X0.200000X-0.275000X0*%
%ADD60R,1.170000X1.030000*%
%ADD61RoundRect,0.250000X-0.250000X-0.475000X0.250000X-0.475000X0.250000X0.475000X-0.250000X0.475000X0*%
G04 APERTURE END LIST*
%TO.C,J1*%
D10*
X153239000Y-64551000D02*
X153259000Y-64552000D01*
X153278000Y-64555000D01*
X153297000Y-64558000D01*
X153316000Y-64563000D01*
X153334000Y-64568000D01*
X153353000Y-64575000D01*
X153370000Y-64582000D01*
X153388000Y-64590000D01*
X153405000Y-64600000D01*
X153422000Y-64610000D01*
X153437000Y-64621000D01*
X153453000Y-64632000D01*
X153468000Y-64645000D01*
X153482000Y-64658000D01*
X153495000Y-64672000D01*
X153508000Y-64687000D01*
X153519000Y-64703000D01*
X153530000Y-64718000D01*
X153540000Y-64735000D01*
X153550000Y-64752000D01*
X153558000Y-64770000D01*
X153565000Y-64787000D01*
X153572000Y-64806000D01*
X153577000Y-64824000D01*
X153582000Y-64843000D01*
X153585000Y-64862000D01*
X153588000Y-64881000D01*
X153589000Y-64901000D01*
X153590000Y-64920000D01*
X153590000Y-64939000D01*
X153588000Y-64958000D01*
X153586000Y-64976000D01*
X153582000Y-64995000D01*
X153578000Y-65013000D01*
X153572000Y-65031000D01*
X153566000Y-65049000D01*
X153559000Y-65066000D01*
X153551000Y-65083000D01*
X153542000Y-65100000D01*
X153532000Y-65116000D01*
X153521000Y-65132000D01*
X153510000Y-65147000D01*
X153498000Y-65161000D01*
X153485000Y-65175000D01*
X153471000Y-65188000D01*
X153457000Y-65200000D01*
X153442000Y-65211000D01*
X153426000Y-65222000D01*
X153410000Y-65232000D01*
X153393000Y-65241000D01*
X153376000Y-65249000D01*
X153359000Y-65256000D01*
X153341000Y-65262000D01*
X153323000Y-65268000D01*
X153305000Y-65272000D01*
X153286000Y-65276000D01*
X153268000Y-65278000D01*
X153249000Y-65280000D01*
X153230000Y-65280000D01*
X153020000Y-65280000D01*
X152850000Y-65280000D01*
X152831000Y-65279000D01*
X152811000Y-65278000D01*
X152792000Y-65275000D01*
X152773000Y-65272000D01*
X152754000Y-65267000D01*
X152736000Y-65262000D01*
X152717000Y-65255000D01*
X152700000Y-65248000D01*
X152682000Y-65240000D01*
X152665000Y-65230000D01*
X152648000Y-65220000D01*
X152633000Y-65209000D01*
X152617000Y-65198000D01*
X152602000Y-65185000D01*
X152588000Y-65172000D01*
X152575000Y-65158000D01*
X152562000Y-65143000D01*
X152551000Y-65127000D01*
X152540000Y-65112000D01*
X152530000Y-65095000D01*
X152520000Y-65078000D01*
X152512000Y-65060000D01*
X152505000Y-65043000D01*
X152498000Y-65024000D01*
X152493000Y-65006000D01*
X152488000Y-64987000D01*
X152485000Y-64968000D01*
X152482000Y-64949000D01*
X152481000Y-64929000D01*
X152480000Y-64910000D01*
X152480000Y-64891000D01*
X152482000Y-64872000D01*
X152484000Y-64854000D01*
X152488000Y-64835000D01*
X152492000Y-64817000D01*
X152498000Y-64799000D01*
X152504000Y-64781000D01*
X152511000Y-64764000D01*
X152519000Y-64747000D01*
X152528000Y-64730000D01*
X152538000Y-64714000D01*
X152549000Y-64698000D01*
X152560000Y-64683000D01*
X152572000Y-64669000D01*
X152585000Y-64655000D01*
X152599000Y-64642000D01*
X152613000Y-64630000D01*
X152628000Y-64619000D01*
X152644000Y-64608000D01*
X152660000Y-64598000D01*
X152677000Y-64589000D01*
X152694000Y-64581000D01*
X152711000Y-64574000D01*
X152729000Y-64568000D01*
X152747000Y-64562000D01*
X152765000Y-64558000D01*
X152784000Y-64554000D01*
X152802000Y-64552000D01*
X152821000Y-64550000D01*
X152840000Y-64550000D01*
X153020000Y-64550000D01*
X153220000Y-64550000D01*
X153239000Y-64551000D01*
G36*
X153239000Y-64551000D02*
G01*
X153259000Y-64552000D01*
X153278000Y-64555000D01*
X153297000Y-64558000D01*
X153316000Y-64563000D01*
X153334000Y-64568000D01*
X153353000Y-64575000D01*
X153370000Y-64582000D01*
X153388000Y-64590000D01*
X153405000Y-64600000D01*
X153422000Y-64610000D01*
X153437000Y-64621000D01*
X153453000Y-64632000D01*
X153468000Y-64645000D01*
X153482000Y-64658000D01*
X153495000Y-64672000D01*
X153508000Y-64687000D01*
X153519000Y-64703000D01*
X153530000Y-64718000D01*
X153540000Y-64735000D01*
X153550000Y-64752000D01*
X153558000Y-64770000D01*
X153565000Y-64787000D01*
X153572000Y-64806000D01*
X153577000Y-64824000D01*
X153582000Y-64843000D01*
X153585000Y-64862000D01*
X153588000Y-64881000D01*
X153589000Y-64901000D01*
X153590000Y-64920000D01*
X153590000Y-64939000D01*
X153588000Y-64958000D01*
X153586000Y-64976000D01*
X153582000Y-64995000D01*
X153578000Y-65013000D01*
X153572000Y-65031000D01*
X153566000Y-65049000D01*
X153559000Y-65066000D01*
X153551000Y-65083000D01*
X153542000Y-65100000D01*
X153532000Y-65116000D01*
X153521000Y-65132000D01*
X153510000Y-65147000D01*
X153498000Y-65161000D01*
X153485000Y-65175000D01*
X153471000Y-65188000D01*
X153457000Y-65200000D01*
X153442000Y-65211000D01*
X153426000Y-65222000D01*
X153410000Y-65232000D01*
X153393000Y-65241000D01*
X153376000Y-65249000D01*
X153359000Y-65256000D01*
X153341000Y-65262000D01*
X153323000Y-65268000D01*
X153305000Y-65272000D01*
X153286000Y-65276000D01*
X153268000Y-65278000D01*
X153249000Y-65280000D01*
X153230000Y-65280000D01*
X153020000Y-65280000D01*
X152850000Y-65280000D01*
X152831000Y-65279000D01*
X152811000Y-65278000D01*
X152792000Y-65275000D01*
X152773000Y-65272000D01*
X152754000Y-65267000D01*
X152736000Y-65262000D01*
X152717000Y-65255000D01*
X152700000Y-65248000D01*
X152682000Y-65240000D01*
X152665000Y-65230000D01*
X152648000Y-65220000D01*
X152633000Y-65209000D01*
X152617000Y-65198000D01*
X152602000Y-65185000D01*
X152588000Y-65172000D01*
X152575000Y-65158000D01*
X152562000Y-65143000D01*
X152551000Y-65127000D01*
X152540000Y-65112000D01*
X152530000Y-65095000D01*
X152520000Y-65078000D01*
X152512000Y-65060000D01*
X152505000Y-65043000D01*
X152498000Y-65024000D01*
X152493000Y-65006000D01*
X152488000Y-64987000D01*
X152485000Y-64968000D01*
X152482000Y-64949000D01*
X152481000Y-64929000D01*
X152480000Y-64910000D01*
X152480000Y-64891000D01*
X152482000Y-64872000D01*
X152484000Y-64854000D01*
X152488000Y-64835000D01*
X152492000Y-64817000D01*
X152498000Y-64799000D01*
X152504000Y-64781000D01*
X152511000Y-64764000D01*
X152519000Y-64747000D01*
X152528000Y-64730000D01*
X152538000Y-64714000D01*
X152549000Y-64698000D01*
X152560000Y-64683000D01*
X152572000Y-64669000D01*
X152585000Y-64655000D01*
X152599000Y-64642000D01*
X152613000Y-64630000D01*
X152628000Y-64619000D01*
X152644000Y-64608000D01*
X152660000Y-64598000D01*
X152677000Y-64589000D01*
X152694000Y-64581000D01*
X152711000Y-64574000D01*
X152729000Y-64568000D01*
X152747000Y-64562000D01*
X152765000Y-64558000D01*
X152784000Y-64554000D01*
X152802000Y-64552000D01*
X152821000Y-64550000D01*
X152840000Y-64550000D01*
X153020000Y-64550000D01*
X153220000Y-64550000D01*
X153239000Y-64551000D01*
G37*
%TD*%
D11*
%TO.C,C8*%
X153420000Y-71760000D03*
X153420000Y-70800000D03*
%TD*%
D12*
%TO.C,TP11*%
X103250000Y-129500000D03*
%TD*%
D13*
%TO.C,U8*%
X127475000Y-153400000D03*
X127475000Y-152600000D03*
X127475000Y-151800000D03*
X127475000Y-151000000D03*
X127475000Y-150200000D03*
X127475000Y-149400000D03*
X127475000Y-148600000D03*
X127475000Y-147800000D03*
D14*
X126100000Y-146425000D03*
X125300000Y-146425000D03*
X124500000Y-146425000D03*
X123700000Y-146425000D03*
X122900000Y-146425000D03*
X122100000Y-146425000D03*
X121300000Y-146425000D03*
X120500000Y-146425000D03*
D13*
X119125000Y-147800000D03*
X119125000Y-148600000D03*
X119125000Y-149400000D03*
X119125000Y-150200000D03*
X119125000Y-151000000D03*
X119125000Y-151800000D03*
X119125000Y-152600000D03*
X119125000Y-153400000D03*
D14*
X120500000Y-154775000D03*
X121300000Y-154775000D03*
X122100000Y-154775000D03*
X122900000Y-154775000D03*
X123700000Y-154775000D03*
X124500000Y-154775000D03*
X125300000Y-154775000D03*
X126100000Y-154775000D03*
%TD*%
D15*
%TO.C,R33*%
X130790000Y-156500000D03*
X129770000Y-156500000D03*
%TD*%
D16*
%TO.C,R6*%
X117380000Y-64200000D03*
X118400000Y-64200000D03*
%TD*%
D12*
%TO.C,TP5*%
X166000000Y-126800000D03*
%TD*%
D16*
%TO.C,R32*%
X129770000Y-154762500D03*
X130790000Y-154762500D03*
%TD*%
D17*
%TO.C,C11*%
X194700000Y-132025000D03*
X194700000Y-130300000D03*
%TD*%
D18*
%TO.C,C28*%
X130760000Y-149600000D03*
X129800000Y-149600000D03*
%TD*%
D16*
%TO.C,R10*%
X103180000Y-87600000D03*
X104200000Y-87600000D03*
%TD*%
D19*
%TO.C,R11*%
X152020000Y-70800000D03*
X152020000Y-71820000D03*
%TD*%
D20*
%TO.C,CR1*%
X149500000Y-68965300D03*
D21*
X149500000Y-67200000D03*
%TD*%
D22*
%TO.C,U4*%
X190400000Y-132075000D03*
X191350000Y-132075000D03*
X192300000Y-132075000D03*
X192300000Y-129800000D03*
X191350000Y-129800000D03*
X190400000Y-129800000D03*
%TD*%
D11*
%TO.C,C9*%
X158220000Y-71760000D03*
X158220000Y-70800000D03*
%TD*%
D18*
%TO.C,C13*%
X118460000Y-68900000D03*
X117500000Y-68900000D03*
%TD*%
D23*
%TO.C,C10*%
X190500000Y-127900000D03*
X191460000Y-127900000D03*
%TD*%
D24*
%TO.C,R28*%
X106100000Y-90420000D03*
X106100000Y-89400000D03*
%TD*%
D19*
%TO.C,R3*%
X190100000Y-134280000D03*
X190100000Y-135300000D03*
%TD*%
D25*
%TO.C,C4*%
X107600000Y-110720000D03*
X107600000Y-111680000D03*
%TD*%
D18*
%TO.C,C24*%
X165880000Y-96900000D03*
X164920000Y-96900000D03*
%TD*%
D26*
%TO.C,Q3*%
X135925000Y-65850000D03*
X136575000Y-65850000D03*
X137225000Y-65850000D03*
X137875000Y-65850000D03*
D27*
X137875000Y-62770000D03*
X137225000Y-62770000D03*
X136575000Y-62770000D03*
X135925000Y-62770000D03*
D28*
X136900000Y-63895000D03*
%TD*%
D23*
%TO.C,C19*%
X113140000Y-84600000D03*
X114100000Y-84600000D03*
%TD*%
D12*
%TO.C,TP9*%
X135900000Y-126800000D03*
%TD*%
D29*
%TO.C,J3*%
X107400000Y-135700000D03*
X107400000Y-136950000D03*
X107400000Y-138200000D03*
D30*
X104700000Y-133450000D03*
X104700000Y-140450000D03*
%TD*%
D31*
%TO.C,U13*%
X165900000Y-98761600D03*
X164947500Y-98761600D03*
X163995000Y-98761600D03*
X163995000Y-101200000D03*
X165900000Y-101200000D03*
%TD*%
D26*
%TO.C,Q4*%
X137875000Y-69355000D03*
X137225000Y-69355000D03*
X136575000Y-69355000D03*
X135925000Y-69355000D03*
D27*
X135925000Y-72435000D03*
X136575000Y-72435000D03*
X137225000Y-72435000D03*
X137875000Y-72435000D03*
D28*
X136900000Y-71310000D03*
%TD*%
D16*
%TO.C,R7*%
X117480000Y-67100000D03*
X118500000Y-67100000D03*
%TD*%
D25*
%TO.C,C25*%
X116700000Y-146600000D03*
X116700000Y-147560000D03*
%TD*%
D31*
%TO.C,U12*%
X135900000Y-118800000D03*
X134947500Y-118800000D03*
X133995000Y-118800000D03*
X133995000Y-121238400D03*
X135900000Y-121238400D03*
%TD*%
D32*
%TO.C,C27*%
X133500000Y-154500000D03*
X133500000Y-152600000D03*
%TD*%
D33*
%TO.C,FB2*%
X136500000Y-147900000D03*
X136500000Y-149550000D03*
%TD*%
D18*
%TO.C,C14*%
X130560000Y-70500000D03*
X129600000Y-70500000D03*
%TD*%
D12*
%TO.C,TP7*%
X165900000Y-106200000D03*
%TD*%
D31*
%TO.C,U5*%
X165952500Y-118800000D03*
X165000000Y-118800000D03*
X164047500Y-118800000D03*
X164047500Y-121238400D03*
X165952500Y-121238400D03*
%TD*%
D34*
%TO.C,D5*%
X103700000Y-85200000D03*
X102200000Y-85200000D03*
%TD*%
D35*
%TO.C,C6*%
X146800000Y-69050000D03*
X146800000Y-66100000D03*
%TD*%
D19*
%TO.C,R18*%
X103000000Y-115600000D03*
X103000000Y-116620000D03*
%TD*%
D11*
%TO.C,C7*%
X144500000Y-68760000D03*
X144500000Y-67800000D03*
%TD*%
D12*
%TO.C,TP8*%
X185100000Y-133000000D03*
%TD*%
%TO.C,TP10*%
X117000000Y-90250000D03*
%TD*%
D19*
%TO.C,R14*%
X109400000Y-80400000D03*
X109400000Y-81420000D03*
%TD*%
D23*
%TO.C,C18*%
X113140000Y-87400000D03*
X114100000Y-87400000D03*
%TD*%
D18*
%TO.C,C22*%
X136000000Y-97000000D03*
X135040000Y-97000000D03*
%TD*%
D12*
%TO.C,TP6*%
X136000000Y-106400000D03*
%TD*%
D31*
%TO.C,U11*%
X136000000Y-98861600D03*
X135047500Y-98861600D03*
X134095000Y-98861600D03*
X134095000Y-101300000D03*
X136000000Y-101300000D03*
%TD*%
D16*
%TO.C,R1*%
X113145206Y-85992843D03*
X114165206Y-85992843D03*
%TD*%
D36*
%TO.C,D1*%
X190375000Y-137300000D03*
X192100000Y-137300000D03*
%TD*%
D37*
%TO.C,U3*%
X105700000Y-127400000D03*
X106350000Y-127400000D03*
X107000000Y-127400000D03*
X107000000Y-125500000D03*
X106350000Y-125500000D03*
X105700000Y-125500000D03*
%TD*%
D32*
%TO.C,C29*%
X133500000Y-149900000D03*
X133500000Y-148000000D03*
%TD*%
D19*
%TO.C,R25*%
X104400000Y-89400000D03*
X104400000Y-90420000D03*
%TD*%
D38*
%TO.C,U2*%
X154820000Y-71670000D03*
X155320000Y-71670000D03*
D39*
X155820000Y-71670000D03*
D38*
X156320000Y-71670000D03*
X156820000Y-71670000D03*
X156820000Y-70900000D03*
X156320000Y-70900000D03*
D39*
X155820000Y-70900000D03*
D38*
X155320000Y-70900000D03*
X154820000Y-70900000D03*
%TD*%
D40*
%TO.C,Q2*%
X107840000Y-101500000D03*
X106570000Y-101500000D03*
X105300000Y-101500000D03*
X104030000Y-101500000D03*
X104030000Y-106450000D03*
X105300000Y-106450000D03*
X106570000Y-106450000D03*
X107840000Y-106450000D03*
%TD*%
D41*
%TO.C,C1*%
X130700000Y-72400000D03*
X129150000Y-72400000D03*
%TD*%
D19*
%TO.C,R12*%
X159620000Y-70800000D03*
X159620000Y-71820000D03*
%TD*%
D16*
%TO.C,R13*%
X140880000Y-73300000D03*
X141900000Y-73300000D03*
%TD*%
D42*
%TO.C,C5*%
X122900000Y-71800000D03*
X125850000Y-71800000D03*
%TD*%
D43*
%TO.C,Q1*%
X105550000Y-118075000D03*
X107450000Y-118075000D03*
X106500000Y-116200000D03*
%TD*%
D19*
%TO.C,R24*%
X107800000Y-89400000D03*
X107800000Y-90420000D03*
%TD*%
D24*
%TO.C,R21*%
X137700000Y-120420000D03*
X137700000Y-119400000D03*
%TD*%
%TO.C,R15*%
X138000000Y-100600000D03*
X138000000Y-99580000D03*
%TD*%
D23*
%TO.C,C2*%
X104440000Y-122900000D03*
X105400000Y-122900000D03*
%TD*%
D24*
%TO.C,R4*%
X194700000Y-128225000D03*
X194700000Y-127205000D03*
%TD*%
D44*
%TO.C,J1*%
X160220000Y-64850000D03*
D45*
X153020000Y-64915000D03*
D46*
X159245000Y-67550000D03*
X158745000Y-67550000D03*
X158245000Y-67550000D03*
X157745000Y-67550000D03*
X157245000Y-67550000D03*
X156745000Y-67550000D03*
X156245000Y-67550000D03*
X155745000Y-67550000D03*
X155245000Y-67550000D03*
X154745000Y-67550000D03*
X154245000Y-67550000D03*
X153745000Y-67550000D03*
D47*
X153995000Y-65950000D03*
X154495000Y-65950000D03*
X154995000Y-65950000D03*
X155495000Y-65950000D03*
X155995000Y-65950000D03*
X156495000Y-65950000D03*
X156995000Y-65950000D03*
X157495000Y-65950000D03*
X157995000Y-65950000D03*
X158495000Y-65950000D03*
X158995000Y-65950000D03*
X159495000Y-65950000D03*
D48*
X160940000Y-61800000D03*
X152300000Y-61800000D03*
D49*
X160750903Y-66807377D03*
X152503200Y-66850000D03*
%TD*%
D12*
%TO.C,TP4*%
X105000000Y-109900000D03*
%TD*%
D50*
%TO.C,L1*%
X124900000Y-66100000D03*
X121250000Y-66100000D03*
%TD*%
D51*
%TO.C,C12*%
X111600000Y-102000000D03*
X111600000Y-103900000D03*
%TD*%
D15*
%TO.C,R16*%
X105220000Y-98600000D03*
X104200000Y-98600000D03*
%TD*%
D52*
%TO.C,JP1*%
X113000000Y-106200000D03*
D53*
X111550000Y-106200000D03*
%TD*%
D19*
%TO.C,R26*%
X111200000Y-89400000D03*
X111200000Y-90420000D03*
%TD*%
D12*
%TO.C,TP2*%
X145500000Y-73300000D03*
%TD*%
D24*
%TO.C,R20*%
X167700000Y-120500000D03*
X167700000Y-119480000D03*
%TD*%
D12*
%TO.C,TP1*%
X113300000Y-125400000D03*
%TD*%
D18*
%TO.C,C21*%
X166000000Y-116900000D03*
X165040000Y-116900000D03*
%TD*%
D54*
%TO.C,R30*%
X142250000Y-67425000D03*
X142250000Y-64500000D03*
%TD*%
D24*
%TO.C,R29*%
X112900000Y-90420000D03*
X112900000Y-89400000D03*
%TD*%
D22*
%TO.C,U1*%
X128700000Y-67300000D03*
X129650000Y-67300000D03*
X130600000Y-67300000D03*
X130600000Y-65025000D03*
X129650000Y-65025000D03*
X128700000Y-65025000D03*
%TD*%
D19*
%TO.C,R2*%
X108000000Y-80400000D03*
X108000000Y-81420000D03*
%TD*%
D55*
%TO.C,R5*%
X192300000Y-134100000D03*
X192300000Y-135295000D03*
%TD*%
D56*
%TO.C,IC1*%
X107000000Y-83950000D03*
X107000000Y-84450000D03*
X107000000Y-84950000D03*
X107000000Y-85450000D03*
X107000000Y-85950000D03*
X107000000Y-86450000D03*
D57*
X107750000Y-87200000D03*
X108250000Y-87200000D03*
X108750000Y-87200000D03*
X109250000Y-87200000D03*
X109750000Y-87200000D03*
X110250000Y-87200000D03*
D56*
X111000000Y-86450000D03*
X111000000Y-85950000D03*
X111000000Y-85450000D03*
X111000000Y-84950000D03*
X111000000Y-84450000D03*
X111000000Y-83950000D03*
D57*
X110250000Y-83200000D03*
X109750000Y-83200000D03*
X109250000Y-83200000D03*
X108750000Y-83200000D03*
X108250000Y-83200000D03*
X107750000Y-83200000D03*
D58*
X109000000Y-85200000D03*
%TD*%
D24*
%TO.C,R22*%
X167800000Y-100320000D03*
X167800000Y-99300000D03*
%TD*%
D23*
%TO.C,C3*%
X128200000Y-63000000D03*
X129160000Y-63000000D03*
%TD*%
D59*
%TO.C,FB1*%
X138100000Y-154500000D03*
X136450000Y-154500000D03*
%TD*%
D15*
%TO.C,R17*%
X105420000Y-120900000D03*
X104400000Y-120900000D03*
%TD*%
D60*
%TO.C,D7*%
X110900000Y-110500000D03*
X110900000Y-113800000D03*
%TD*%
D52*
%TO.C,JP2*%
X113000000Y-108500000D03*
D53*
X111550000Y-108500000D03*
%TD*%
D12*
%TO.C,TP3*%
X109200000Y-97300000D03*
%TD*%
D61*
%TO.C,C17*%
X112600000Y-81400000D03*
X114500000Y-81400000D03*
%TD*%
D24*
%TO.C,R27*%
X109500000Y-90420000D03*
X109500000Y-89400000D03*
%TD*%
D18*
%TO.C,C23*%
X135880000Y-117000000D03*
X134920000Y-117000000D03*
%TD*%
D15*
%TO.C,R9*%
X108520000Y-120900000D03*
X107500000Y-120900000D03*
%TD*%
D34*
%TO.C,D6*%
X172000000Y-155500000D03*
X173500000Y-155500000D03*
%TD*%
D15*
%TO.C,R23*%
X173300000Y-152500000D03*
X172280000Y-152500000D03*
%TD*%
D18*
%TO.C,C30*%
X130760000Y-151317500D03*
X129800000Y-151317500D03*
%TD*%
%TO.C,C20*%
X130760000Y-153035000D03*
X129800000Y-153035000D03*
%TD*%
M02*
