%TF.GenerationSoftware,KiCad,Pcbnew,7.0.2*%
%TF.CreationDate,2024-06-02T17:27:24+02:00*%
%TF.ProjectId,Podgrzewacz,506f6467-727a-4657-9761-637a2e6b6963,rev?*%
%TF.SameCoordinates,Original*%
%TF.FileFunction,Copper,L3,Inr*%
%TF.FilePolarity,Positive*%
%FSLAX46Y46*%
G04 Gerber Fmt 4.6, Leading zero omitted, Abs format (unit mm)*
G04 Created by KiCad (PCBNEW 7.0.2) date 2024-06-02 17:27:24*
%MOMM*%
%LPD*%
G01*
G04 APERTURE LIST*
%TA.AperFunction,ComponentPad*%
%ADD10O,1.300000X2.600000*%
%TD*%
%TA.AperFunction,ComponentPad*%
%ADD11O,1.600000X2.600000*%
%TD*%
%TA.AperFunction,ViaPad*%
%ADD12C,0.500000*%
%TD*%
%TA.AperFunction,Conductor*%
%ADD13C,0.500000*%
%TD*%
%TA.AperFunction,Conductor*%
%ADD14C,1.000000*%
%TD*%
%TA.AperFunction,Conductor*%
%ADD15C,0.250000*%
%TD*%
%TA.AperFunction,Conductor*%
%ADD16C,0.900000*%
%TD*%
G04 APERTURE END LIST*
D10*
%TO.N,GND*%
%TO.C,J1*%
X160940000Y-61800000D03*
X152300000Y-61800000D03*
D11*
X160750903Y-66807377D03*
X152503200Y-66850000D03*
%TD*%
D12*
%TO.N,VOUT*%
X114500000Y-78200000D03*
X112000000Y-98100000D03*
X112000000Y-96000000D03*
X111700000Y-76400000D03*
X114300000Y-96000000D03*
X114500000Y-76400000D03*
X114300000Y-98100000D03*
X111700000Y-78200000D03*
%TO.N,+3.3V*%
X122800000Y-84700000D03*
X121100000Y-84700000D03*
X122800000Y-74500000D03*
X121000000Y-74500000D03*
%TO.N,Net-(U1-SW)*%
X129100000Y-69400000D03*
X129700000Y-68800000D03*
X124600000Y-68800000D03*
X125200000Y-69400000D03*
X129700000Y-69400000D03*
X124600000Y-69400000D03*
X129100000Y-68800000D03*
X125200000Y-68800000D03*
%TO.N,Vbus*%
X140600000Y-68700000D03*
X155416812Y-66694541D03*
X142100000Y-70400000D03*
X105200000Y-83900000D03*
X140628602Y-70371398D03*
X155220000Y-68600000D03*
X142100000Y-68700000D03*
X157920000Y-66700000D03*
X157820000Y-68600000D03*
%TO.N,CC2*%
X157420000Y-69700000D03*
X156052076Y-66684497D03*
%TO.N,SensorIN*%
X192300000Y-142400000D03*
%TO.N,Net-(IC1-VCC)*%
X134600000Y-63000000D03*
X105200000Y-81800002D03*
X105200000Y-81200000D03*
X134600000Y-63900000D03*
%TO.N,Net-(Q3-G)*%
X134800000Y-67700000D03*
X139200000Y-68700000D03*
%TO.N,SensorOUT*%
X187200000Y-132700000D03*
X116800000Y-149400000D03*
%TO.N,85DEG*%
X126250001Y-142649999D03*
X104200002Y-125500000D03*
%TO.N,GND*%
X112900000Y-103700000D03*
X153320000Y-68500000D03*
X116000000Y-81800000D03*
X131700000Y-156500000D03*
X153745001Y-66700000D03*
X108700000Y-118100000D03*
X127000000Y-72700000D03*
X116100000Y-87400000D03*
X132082791Y-149974500D03*
X186000000Y-111600000D03*
X127000000Y-71000000D03*
X108200000Y-86000000D03*
X119300000Y-146400000D03*
X108200000Y-84500000D03*
X170100000Y-155500000D03*
X109800000Y-84500000D03*
X144500000Y-66900000D03*
X186000000Y-110700000D03*
X189200000Y-136200000D03*
X159420000Y-66700000D03*
X121400000Y-133800000D03*
X128400000Y-142200000D03*
X110400000Y-91300000D03*
X128800000Y-74300000D03*
X123700000Y-136600000D03*
X128800000Y-70500000D03*
X186000000Y-108500000D03*
X114300000Y-109100000D03*
X107600000Y-112600000D03*
X104400000Y-91300000D03*
X116500000Y-64200000D03*
X127200000Y-154800000D03*
X109800000Y-86000000D03*
X155770500Y-72400000D03*
X159420000Y-68600000D03*
X104400000Y-121900000D03*
X126300000Y-140900000D03*
X106400000Y-128600000D03*
X194700000Y-126400000D03*
X109300000Y-138200000D03*
X116000000Y-81000000D03*
X114300000Y-106800000D03*
X131800000Y-153000000D03*
X128800000Y-73500000D03*
X128800000Y-71400000D03*
X159420000Y-69900000D03*
X127600000Y-67300000D03*
X189800000Y-128600000D03*
X112900000Y-104300000D03*
X114300000Y-108000000D03*
X186000000Y-109300000D03*
X190500000Y-128600000D03*
X155770500Y-70200000D03*
X114300000Y-105700000D03*
X189200000Y-137300000D03*
X110900000Y-115000000D03*
X149500000Y-65700000D03*
X191300000Y-133300000D03*
X133500000Y-151300000D03*
X107800000Y-91300000D03*
X131800000Y-151300000D03*
X146800000Y-65000000D03*
X190100000Y-136200000D03*
%TD*%
D13*
%TO.N,Vbus*%
X139600000Y-66100000D02*
X140600000Y-67100000D01*
X105200000Y-83900000D02*
X107100000Y-83900000D01*
X140600000Y-67100000D02*
X140600000Y-70342796D01*
X108900000Y-73500000D02*
X116300000Y-66100000D01*
X140628602Y-71771398D02*
X140628602Y-70371398D01*
X140600000Y-70342796D02*
X140628602Y-70371398D01*
X116300000Y-66100000D02*
X139600000Y-66100000D01*
X107100000Y-83900000D02*
X108900000Y-82100000D01*
X108900000Y-82100000D02*
X108900000Y-73500000D01*
D14*
%TO.N,Net-(IC1-VCC)*%
X105200000Y-71900000D02*
X105200000Y-81800002D01*
X114100000Y-63000000D02*
X105200000Y-71900000D01*
X134600000Y-63900000D02*
X134600000Y-63000000D01*
X134600000Y-63000000D02*
X114100000Y-63000000D01*
D15*
%TO.N,Net-(Q3-G)*%
X134800000Y-67700000D02*
X138200000Y-67700000D01*
X138200000Y-67700000D02*
X139200000Y-68700000D01*
%TO.N,SensorOUT*%
X116800000Y-149400000D02*
X164400000Y-149400000D01*
X164400000Y-149400000D02*
X181100000Y-132700000D01*
X181100000Y-132700000D02*
X187200000Y-132700000D01*
%TO.N,85DEG*%
X104200000Y-125500000D02*
X121350000Y-142650000D01*
X121350000Y-142650000D02*
X126250000Y-142650000D01*
D16*
%TO.N,GND*%
X138650000Y-78250000D02*
X138650000Y-110000000D01*
X145150000Y-143400000D02*
X145150000Y-110000000D01*
X115550000Y-110000000D02*
X115450000Y-110000000D01*
X126950000Y-110000000D02*
X126950000Y-84450000D01*
X164650000Y-110000000D02*
X164650000Y-140200000D01*
X125650000Y-87400000D02*
X125650000Y-110000000D01*
X142550000Y-110000000D02*
X142550000Y-76750000D01*
X136050000Y-79450000D02*
X136050000Y-110000000D01*
X158150000Y-143100000D02*
X158150000Y-110000000D01*
X176350000Y-132150000D02*
X176350000Y-110000000D01*
X129550000Y-110000000D02*
X129550000Y-82700000D01*
X124350000Y-110000000D02*
X124350000Y-87400000D01*
X139950000Y-110000000D02*
X139950000Y-77400000D01*
X182850000Y-99500000D02*
X182850000Y-110000000D01*
X137350000Y-141150000D02*
X137350000Y-110000000D01*
X176350000Y-110000000D02*
X176350000Y-89600000D01*
X171150000Y-136950000D02*
X171150000Y-110000000D01*
X129550000Y-136500000D02*
X129550000Y-110000000D01*
X184800000Y-110000000D02*
X185900000Y-110000000D01*
X137350000Y-110000000D02*
X137350000Y-78250000D01*
X128250000Y-84450000D02*
X128250000Y-110000000D01*
X136050000Y-110000000D02*
X136050000Y-141150000D01*
X181550000Y-124100000D02*
X181550000Y-110000000D01*
X168550000Y-138700000D02*
X168550000Y-110000000D01*
X177650000Y-89600000D02*
X177650000Y-110000000D01*
X117850000Y-101700000D02*
X117850000Y-109350000D01*
X119150000Y-110000000D02*
X119150000Y-94900000D01*
X132150000Y-138450000D02*
X132150000Y-110000000D01*
X168550000Y-110000000D02*
X168550000Y-82300000D01*
X162050000Y-78150000D02*
X162050000Y-110000000D01*
X163350000Y-141350000D02*
X163350000Y-110000000D01*
X138650000Y-110000000D02*
X138650000Y-142200000D01*
X165950000Y-110000000D02*
X165950000Y-80600000D01*
X139950000Y-142200000D02*
X139950000Y-110000000D01*
X150350000Y-110000000D02*
X150350000Y-76100000D01*
X152950000Y-143800000D02*
X152950000Y-110000000D01*
X155550000Y-143600000D02*
X155550000Y-110000000D01*
X156850000Y-76700000D02*
X156850000Y-110000000D01*
X165950000Y-140200000D02*
X165950000Y-110000000D01*
X155550000Y-110000000D02*
X155550000Y-76700000D01*
X181550000Y-110000000D02*
X181550000Y-99500000D01*
X149050000Y-110000000D02*
X149050000Y-143900000D01*
X160750000Y-110000000D02*
X160750000Y-78150000D01*
X158150000Y-110000000D02*
X158150000Y-77350000D01*
X150350000Y-143900000D02*
X150350000Y-110000000D01*
X162050000Y-110000000D02*
X162050000Y-141350000D01*
X123050000Y-90400000D02*
X123050000Y-110000000D01*
X154250000Y-76350000D02*
X154250000Y-110000000D01*
X120450000Y-110000000D02*
X120450000Y-127600000D01*
X171150000Y-110000000D02*
X171150000Y-84150000D01*
X182850000Y-110000000D02*
X182850000Y-115100000D01*
X164650000Y-79200000D02*
X164650000Y-110000000D01*
X145150000Y-110000000D02*
X145150000Y-76400000D01*
X146450000Y-76400000D02*
X146450000Y-110000000D01*
X124350000Y-131100000D02*
X124350000Y-110000000D01*
X133450000Y-80900000D02*
X133450000Y-110000000D01*
X125650000Y-110000000D02*
X125650000Y-134150000D01*
X142550000Y-142900000D02*
X142550000Y-110000000D01*
X167250000Y-80600000D02*
X167250000Y-110000000D01*
X117850000Y-109350000D02*
X117850000Y-122500000D01*
X175050000Y-86550000D02*
X175050000Y-110000000D01*
X169850000Y-110000000D02*
X169850000Y-136950000D01*
X180250000Y-110000000D02*
X180250000Y-124100000D01*
X154250000Y-110000000D02*
X154250000Y-143600000D01*
X163350000Y-110000000D02*
X163350000Y-79200000D01*
X156850000Y-110000000D02*
X156850000Y-143100000D01*
X177650000Y-110000000D02*
X177650000Y-128700000D01*
X120450000Y-94900000D02*
X120450000Y-110000000D01*
X121750000Y-127600000D02*
X121750000Y-110000000D01*
X178950000Y-128700000D02*
X178950000Y-110000000D01*
X146450000Y-110000000D02*
X146450000Y-143750000D01*
X143850000Y-110000000D02*
X143850000Y-143400000D01*
X147750000Y-143750000D02*
X147750000Y-110000000D01*
X126950000Y-134150000D02*
X126950000Y-110000000D01*
X173750000Y-134900000D02*
X173750000Y-110000000D01*
X152950000Y-110000000D02*
X152950000Y-76350000D01*
X143850000Y-76750000D02*
X143850000Y-110000000D01*
X141250000Y-110000000D02*
X141250000Y-142900000D01*
X173750000Y-110000000D02*
X173750000Y-86550000D01*
X123050000Y-110000000D02*
X123050000Y-131100000D01*
X133450000Y-110000000D02*
X133450000Y-140000000D01*
X172450000Y-110000000D02*
X172450000Y-134900000D01*
X169850000Y-82300000D02*
X169850000Y-110000000D01*
X141250000Y-77400000D02*
X141250000Y-110000000D01*
X121750000Y-110000000D02*
X121750000Y-90400000D01*
X151650000Y-76100000D02*
X151650000Y-110000000D01*
X159450000Y-110000000D02*
X159450000Y-142350000D01*
X159450000Y-77350000D02*
X159450000Y-110000000D01*
X130850000Y-82700000D02*
X130850000Y-110000000D01*
X128250000Y-110000000D02*
X128250000Y-136500000D01*
X149050000Y-76200000D02*
X149050000Y-110000000D01*
X175050000Y-110000000D02*
X175050000Y-132150000D01*
X115900000Y-110000000D02*
X115550000Y-110000000D01*
X147750000Y-110000000D02*
X147750000Y-76200000D01*
X134750000Y-140000000D02*
X134750000Y-110000000D01*
X151650000Y-110000000D02*
X151650000Y-143800000D01*
X180250000Y-93650000D02*
X180250000Y-110000000D01*
X178950000Y-110000000D02*
X178950000Y-93650000D01*
X160750000Y-142350000D02*
X160750000Y-110000000D01*
X116550000Y-109350000D02*
X116550000Y-101700000D01*
X132150000Y-110000000D02*
X132150000Y-80900000D01*
X167250000Y-110000000D02*
X167250000Y-138700000D01*
X172450000Y-84150000D02*
X172450000Y-110000000D01*
X130850000Y-110000000D02*
X130850000Y-138450000D01*
X119150000Y-122500000D02*
X119150000Y-110000000D01*
X134750000Y-110000000D02*
X134750000Y-79450000D01*
X184150000Y-115100000D02*
X184150000Y-110650000D01*
X145800000Y-75750000D02*
G75*
G03*
X145150000Y-76400000I0J-650000D01*
G01*
X174400000Y-85900000D02*
G75*
G03*
X173750000Y-86550000I0J-650000D01*
G01*
X159450000Y-142350000D02*
G75*
G03*
X160100000Y-143000000I650000J0D01*
G01*
X136050000Y-79450000D02*
G75*
G03*
X135400000Y-78800000I-650000J0D01*
G01*
X161400000Y-77500000D02*
G75*
G03*
X160750000Y-78150000I0J-650000D01*
G01*
X147100000Y-144400000D02*
G75*
G03*
X147750000Y-143750000I0J650000D01*
G01*
X127600000Y-83800000D02*
G75*
G03*
X126950000Y-84450000I0J-650000D01*
G01*
X128250000Y-84450000D02*
G75*
G03*
X127600000Y-83800000I-650000J0D01*
G01*
X149050000Y-143900000D02*
G75*
G03*
X149700000Y-144550000I650000J0D01*
G01*
X162050000Y-141350000D02*
G75*
G03*
X162700000Y-142000000I650000J0D01*
G01*
X164000000Y-78550000D02*
G75*
G03*
X163350000Y-79200000I0J-650000D01*
G01*
X139300000Y-142850000D02*
G75*
G03*
X139950000Y-142200000I0J650000D01*
G01*
X120450000Y-94900000D02*
G75*
G03*
X119800000Y-94250000I-650000J0D01*
G01*
X141900000Y-143550000D02*
G75*
G03*
X142550000Y-142900000I0J650000D01*
G01*
X143850000Y-76750000D02*
G75*
G03*
X143200000Y-76100000I-650000J0D01*
G01*
X121100000Y-128250000D02*
G75*
G03*
X121750000Y-127600000I0J650000D01*
G01*
X141250000Y-77400000D02*
G75*
G03*
X140600000Y-76750000I-650000J0D01*
G01*
X152300000Y-144450000D02*
G75*
G03*
X152950000Y-143800000I0J650000D01*
G01*
X175050000Y-132150000D02*
G75*
G03*
X175700000Y-132800000I650000J0D01*
G01*
X159450000Y-77350000D02*
G75*
G03*
X158800000Y-76700000I-650000J0D01*
G01*
X172450000Y-134900000D02*
G75*
G03*
X173100000Y-135550000I650000J0D01*
G01*
X125650000Y-134150000D02*
G75*
G03*
X126300000Y-134800000I650000J0D01*
G01*
X182200000Y-98850000D02*
G75*
G03*
X181550000Y-99500000I0J-650000D01*
G01*
X136050000Y-141150000D02*
G75*
G03*
X136700000Y-141800000I650000J0D01*
G01*
X157500000Y-143750000D02*
G75*
G03*
X158150000Y-143100000I0J650000D01*
G01*
X173100000Y-135550000D02*
G75*
G03*
X173750000Y-134900000I0J650000D01*
G01*
X180250000Y-124100000D02*
G75*
G03*
X180900000Y-124750000I650000J0D01*
G01*
X171800000Y-83500000D02*
G75*
G03*
X171150000Y-84150000I0J-650000D01*
G01*
X138000000Y-77600000D02*
G75*
G03*
X137350000Y-78250000I0J-650000D01*
G01*
X122400000Y-89750000D02*
G75*
G03*
X121750000Y-90400000I0J-650000D01*
G01*
X182850000Y-99500000D02*
G75*
G03*
X182200000Y-98850000I-650000J0D01*
G01*
X182850000Y-115100000D02*
G75*
G03*
X183500000Y-115750000I650000J0D01*
G01*
X154900000Y-144250000D02*
G75*
G03*
X155550000Y-143600000I0J650000D01*
G01*
X151000000Y-75450000D02*
G75*
G03*
X150350000Y-76100000I0J-650000D01*
G01*
X136700000Y-141800000D02*
G75*
G03*
X137350000Y-141150000I0J650000D01*
G01*
X140600000Y-76750000D02*
G75*
G03*
X139950000Y-77400000I0J-650000D01*
G01*
X154250000Y-143600000D02*
G75*
G03*
X154900000Y-144250000I650000J0D01*
G01*
X162700000Y-142000000D02*
G75*
G03*
X163350000Y-141350000I0J650000D01*
G01*
X158800000Y-76700000D02*
G75*
G03*
X158150000Y-77350000I0J-650000D01*
G01*
X117200000Y-101050000D02*
G75*
G03*
X116550000Y-101700000I0J-650000D01*
G01*
X133450000Y-80900000D02*
G75*
G03*
X132800000Y-80250000I-650000J0D01*
G01*
X119800000Y-94250000D02*
G75*
G03*
X119150000Y-94900000I0J-650000D01*
G01*
X118500000Y-123150000D02*
G75*
G03*
X119150000Y-122500000I0J650000D01*
G01*
X154250000Y-76350000D02*
G75*
G03*
X153600000Y-75700000I-650000J0D01*
G01*
X177650000Y-89600000D02*
G75*
G03*
X177000000Y-88950000I-650000J0D01*
G01*
X130200000Y-82050000D02*
G75*
G03*
X129550000Y-82700000I0J-650000D01*
G01*
X169850000Y-82300000D02*
G75*
G03*
X169200000Y-81650000I-650000J0D01*
G01*
X156850000Y-143100000D02*
G75*
G03*
X157500000Y-143750000I650000J0D01*
G01*
X123050000Y-131100000D02*
G75*
G03*
X123700000Y-131750000I650000J0D01*
G01*
X125000000Y-86750000D02*
G75*
G03*
X124350000Y-87400000I0J-650000D01*
G01*
X178300000Y-129350000D02*
G75*
G03*
X178950000Y-128700000I0J650000D01*
G01*
X184800000Y-110000000D02*
G75*
G03*
X184150000Y-110650000I0J-650000D01*
G01*
X167250000Y-80600000D02*
G75*
G03*
X166600000Y-79950000I-650000J0D01*
G01*
X143850000Y-143400000D02*
G75*
G03*
X144500000Y-144050000I650000J0D01*
G01*
X123700000Y-131750000D02*
G75*
G03*
X124350000Y-131100000I0J650000D01*
G01*
X164650000Y-140200000D02*
G75*
G03*
X165300000Y-140850000I650000J0D01*
G01*
X138650000Y-142200000D02*
G75*
G03*
X139300000Y-142850000I650000J0D01*
G01*
X125650000Y-87400000D02*
G75*
G03*
X125000000Y-86750000I-650000J0D01*
G01*
X146450000Y-76400000D02*
G75*
G03*
X145800000Y-75750000I-650000J0D01*
G01*
X160100000Y-143000000D02*
G75*
G03*
X160750000Y-142350000I0J650000D01*
G01*
X128900000Y-137150000D02*
G75*
G03*
X129550000Y-136500000I0J650000D01*
G01*
X164650000Y-79200000D02*
G75*
G03*
X164000000Y-78550000I-650000J0D01*
G01*
X138650000Y-78250000D02*
G75*
G03*
X138000000Y-77600000I-650000J0D01*
G01*
X120450000Y-127600000D02*
G75*
G03*
X121100000Y-128250000I650000J0D01*
G01*
X167250000Y-138700000D02*
G75*
G03*
X167900000Y-139350000I650000J0D01*
G01*
X156200000Y-76050000D02*
G75*
G03*
X155550000Y-76700000I0J-650000D01*
G01*
X169850000Y-136950000D02*
G75*
G03*
X170500000Y-137600000I650000J0D01*
G01*
X144500000Y-144050000D02*
G75*
G03*
X145150000Y-143400000I0J650000D01*
G01*
X167900000Y-139350000D02*
G75*
G03*
X168550000Y-138700000I0J650000D01*
G01*
X162050000Y-78150000D02*
G75*
G03*
X161400000Y-77500000I-650000J0D01*
G01*
X115900000Y-110000000D02*
G75*
G03*
X116550000Y-109350000I0J650000D01*
G01*
X180250000Y-93650000D02*
G75*
G03*
X179600000Y-93000000I-650000J0D01*
G01*
X134100000Y-140650000D02*
G75*
G03*
X134750000Y-140000000I0J650000D01*
G01*
X175700000Y-132800000D02*
G75*
G03*
X176350000Y-132150000I0J650000D01*
G01*
X135400000Y-78800000D02*
G75*
G03*
X134750000Y-79450000I0J-650000D01*
G01*
X141250000Y-142900000D02*
G75*
G03*
X141900000Y-143550000I650000J0D01*
G01*
X177000000Y-88950000D02*
G75*
G03*
X176350000Y-89600000I0J-650000D01*
G01*
X175050000Y-86550000D02*
G75*
G03*
X174400000Y-85900000I-650000J0D01*
G01*
X180900000Y-124750000D02*
G75*
G03*
X181550000Y-124100000I0J650000D01*
G01*
X131500000Y-139100000D02*
G75*
G03*
X132150000Y-138450000I0J650000D01*
G01*
X153600000Y-75700000D02*
G75*
G03*
X152950000Y-76350000I0J-650000D01*
G01*
X128250000Y-136500000D02*
G75*
G03*
X128900000Y-137150000I650000J0D01*
G01*
X148400000Y-75550000D02*
G75*
G03*
X147750000Y-76200000I0J-650000D01*
G01*
X179600000Y-93000000D02*
G75*
G03*
X178950000Y-93650000I0J-650000D01*
G01*
X165300000Y-140850000D02*
G75*
G03*
X165950000Y-140200000I0J650000D01*
G01*
X126300000Y-134800000D02*
G75*
G03*
X126950000Y-134150000I0J650000D01*
G01*
X149050000Y-76200000D02*
G75*
G03*
X148400000Y-75550000I-650000J0D01*
G01*
X130850000Y-82700000D02*
G75*
G03*
X130200000Y-82050000I-650000J0D01*
G01*
X151650000Y-76100000D02*
G75*
G03*
X151000000Y-75450000I-650000J0D01*
G01*
X172450000Y-84150000D02*
G75*
G03*
X171800000Y-83500000I-650000J0D01*
G01*
X169200000Y-81650000D02*
G75*
G03*
X168550000Y-82300000I0J-650000D01*
G01*
X123050000Y-90400000D02*
G75*
G03*
X122400000Y-89750000I-650000J0D01*
G01*
X146450000Y-143750000D02*
G75*
G03*
X147100000Y-144400000I650000J0D01*
G01*
X132800000Y-80250000D02*
G75*
G03*
X132150000Y-80900000I0J-650000D01*
G01*
X151650000Y-143800000D02*
G75*
G03*
X152300000Y-144450000I650000J0D01*
G01*
X170500000Y-137600000D02*
G75*
G03*
X171150000Y-136950000I0J650000D01*
G01*
X130850000Y-138450000D02*
G75*
G03*
X131500000Y-139100000I650000J0D01*
G01*
X149700000Y-144550000D02*
G75*
G03*
X150350000Y-143900000I0J650000D01*
G01*
X117850000Y-101700000D02*
G75*
G03*
X117200000Y-101050000I-650000J0D01*
G01*
X117850000Y-122500000D02*
G75*
G03*
X118500000Y-123150000I650000J0D01*
G01*
X183500000Y-115750000D02*
G75*
G03*
X184150000Y-115100000I0J650000D01*
G01*
X156850000Y-76700000D02*
G75*
G03*
X156200000Y-76050000I-650000J0D01*
G01*
X166600000Y-79950000D02*
G75*
G03*
X165950000Y-80600000I0J-650000D01*
G01*
X177650000Y-128700000D02*
G75*
G03*
X178300000Y-129350000I650000J0D01*
G01*
X143200000Y-76100000D02*
G75*
G03*
X142550000Y-76750000I0J-650000D01*
G01*
X133450000Y-140000000D02*
G75*
G03*
X134100000Y-140650000I650000J0D01*
G01*
%TD*%
%TA.AperFunction,Conductor*%
%TO.N,VOUT*%
G36*
X114943039Y-75719685D02*
G01*
X114988794Y-75772489D01*
X115000000Y-75824000D01*
X115000000Y-102376000D01*
X114980315Y-102443039D01*
X114927511Y-102488794D01*
X114876000Y-102500000D01*
X111224000Y-102500000D01*
X111156961Y-102480315D01*
X111111206Y-102427511D01*
X111100000Y-102376000D01*
X111100000Y-75824000D01*
X111119685Y-75756961D01*
X111172489Y-75711206D01*
X111224000Y-75700000D01*
X114876000Y-75700000D01*
X114943039Y-75719685D01*
G37*
%TD.AperFunction*%
%TD*%
%TA.AperFunction,Conductor*%
%TO.N,GND*%
G36*
X186943039Y-108019685D02*
G01*
X186988794Y-108072489D01*
X187000000Y-108124000D01*
X187000000Y-111876000D01*
X186980315Y-111943039D01*
X186927511Y-111988794D01*
X186876000Y-112000000D01*
X185124000Y-112000000D01*
X185056961Y-111980315D01*
X185011206Y-111927511D01*
X185000000Y-111876000D01*
X185000000Y-108124000D01*
X185019685Y-108056961D01*
X185072489Y-108011206D01*
X185124000Y-108000000D01*
X186876000Y-108000000D01*
X186943039Y-108019685D01*
G37*
%TD.AperFunction*%
%TD*%
%TA.AperFunction,Conductor*%
%TO.N,GND*%
G36*
X115743039Y-105419685D02*
G01*
X115788794Y-105472489D01*
X115800000Y-105524000D01*
X115800000Y-110676000D01*
X115780315Y-110743039D01*
X115727511Y-110788794D01*
X115676000Y-110800000D01*
X114024000Y-110800000D01*
X113956961Y-110780315D01*
X113911206Y-110727511D01*
X113900000Y-110676000D01*
X113900000Y-105524000D01*
X113919685Y-105456961D01*
X113972489Y-105411206D01*
X114024000Y-105400000D01*
X115676000Y-105400000D01*
X115743039Y-105419685D01*
G37*
%TD.AperFunction*%
%TD*%
%TA.AperFunction,Conductor*%
%TO.N,Net-(U1-SW)*%
G36*
X129943039Y-68419685D02*
G01*
X129988794Y-68472489D01*
X130000000Y-68524000D01*
X130000000Y-69576000D01*
X129980315Y-69643039D01*
X129927511Y-69688794D01*
X129876000Y-69700000D01*
X124124000Y-69700000D01*
X124056961Y-69680315D01*
X124011206Y-69627511D01*
X124000000Y-69576000D01*
X124000000Y-68524000D01*
X124019685Y-68456961D01*
X124072489Y-68411206D01*
X124124000Y-68400000D01*
X129876000Y-68400000D01*
X129943039Y-68419685D01*
G37*
%TD.AperFunction*%
%TD*%
%TA.AperFunction,Conductor*%
%TO.N,+3.3V*%
G36*
X123443039Y-73719685D02*
G01*
X123488794Y-73772489D01*
X123500000Y-73824000D01*
X123500000Y-85576000D01*
X123480315Y-85643039D01*
X123427511Y-85688794D01*
X123376000Y-85700000D01*
X120424000Y-85700000D01*
X120356961Y-85680315D01*
X120311206Y-85627511D01*
X120300000Y-85576000D01*
X120300000Y-73824000D01*
X120319685Y-73756961D01*
X120372489Y-73711206D01*
X120424000Y-73700000D01*
X123376000Y-73700000D01*
X123443039Y-73719685D01*
G37*
%TD.AperFunction*%
%TD*%
%TA.AperFunction,Conductor*%
%TO.N,Vbus*%
G36*
X158963039Y-65319685D02*
G01*
X159008794Y-65372489D01*
X159020000Y-65424000D01*
X159020000Y-65996447D01*
X159000315Y-66063486D01*
X158961975Y-66101439D01*
X158949109Y-66109523D01*
X158829524Y-66229108D01*
X158739544Y-66372310D01*
X158683686Y-66531943D01*
X158664750Y-66700000D01*
X158683686Y-66868056D01*
X158683686Y-66868058D01*
X158683687Y-66868059D01*
X158739544Y-67027690D01*
X158829523Y-67170890D01*
X158949110Y-67290477D01*
X158961970Y-67298557D01*
X159008262Y-67350889D01*
X159020000Y-67403552D01*
X159020000Y-67896447D01*
X159000315Y-67963486D01*
X158961975Y-68001439D01*
X158949109Y-68009523D01*
X158829524Y-68129108D01*
X158739544Y-68272310D01*
X158683686Y-68431943D01*
X158664750Y-68600000D01*
X158683686Y-68768056D01*
X158683686Y-68768058D01*
X158683687Y-68768059D01*
X158739544Y-68927690D01*
X158829523Y-69070890D01*
X158920952Y-69162319D01*
X158954436Y-69223643D01*
X158949452Y-69293334D01*
X158920952Y-69337681D01*
X158829523Y-69429110D01*
X158739544Y-69572310D01*
X158683686Y-69731943D01*
X158664750Y-69900000D01*
X158683686Y-70068056D01*
X158683686Y-70068058D01*
X158683687Y-70068059D01*
X158739544Y-70227690D01*
X158829523Y-70370890D01*
X158949110Y-70490477D01*
X158961970Y-70498557D01*
X159008262Y-70550889D01*
X159020000Y-70603552D01*
X159020000Y-72276000D01*
X159000315Y-72343039D01*
X158947511Y-72388794D01*
X158896000Y-72400000D01*
X156636562Y-72400000D01*
X156569523Y-72380315D01*
X156523768Y-72327511D01*
X156513342Y-72289884D01*
X156506813Y-72231943D01*
X156506813Y-72231941D01*
X156450956Y-72072310D01*
X156360977Y-71929110D01*
X156241390Y-71809523D01*
X156098190Y-71719544D01*
X155938559Y-71663687D01*
X155938558Y-71663686D01*
X155938556Y-71663686D01*
X155770500Y-71644750D01*
X155602443Y-71663686D01*
X155442810Y-71719544D01*
X155299608Y-71809524D01*
X155180024Y-71929108D01*
X155090044Y-72072310D01*
X155034186Y-72231943D01*
X155027658Y-72289884D01*
X155000591Y-72354298D01*
X154942996Y-72393853D01*
X154904438Y-72400000D01*
X140344000Y-72400000D01*
X140276961Y-72380315D01*
X140231206Y-72327511D01*
X140220000Y-72276000D01*
X140220000Y-70200000D01*
X155015250Y-70200000D01*
X155034186Y-70368056D01*
X155034186Y-70368058D01*
X155034187Y-70368059D01*
X155090044Y-70527690D01*
X155180023Y-70670890D01*
X155299610Y-70790477D01*
X155442810Y-70880456D01*
X155602441Y-70936313D01*
X155770500Y-70955249D01*
X155938559Y-70936313D01*
X156098190Y-70880456D01*
X156241390Y-70790477D01*
X156360977Y-70670890D01*
X156450956Y-70527690D01*
X156506813Y-70368059D01*
X156525749Y-70200000D01*
X156516206Y-70115306D01*
X156528260Y-70046485D01*
X156575608Y-69995105D01*
X156643219Y-69977480D01*
X156709625Y-69999206D01*
X156744419Y-70035449D01*
X156794598Y-70115307D01*
X156829523Y-70170890D01*
X156949110Y-70290477D01*
X157092310Y-70380456D01*
X157251941Y-70436313D01*
X157420000Y-70455249D01*
X157588059Y-70436313D01*
X157747690Y-70380456D01*
X157890890Y-70290477D01*
X158010477Y-70170890D01*
X158100456Y-70027690D01*
X158156313Y-69868059D01*
X158175249Y-69700000D01*
X158156313Y-69531941D01*
X158100456Y-69372310D01*
X158010477Y-69229110D01*
X157890890Y-69109523D01*
X157747690Y-69019544D01*
X157588059Y-68963687D01*
X157588058Y-68963686D01*
X157588056Y-68963686D01*
X157420000Y-68944750D01*
X157251943Y-68963686D01*
X157092310Y-69019544D01*
X156949108Y-69109524D01*
X156829524Y-69229108D01*
X156739544Y-69372310D01*
X156683686Y-69531943D01*
X156664750Y-69700000D01*
X156674293Y-69784693D01*
X156662239Y-69853515D01*
X156614890Y-69904895D01*
X156547279Y-69922519D01*
X156480873Y-69900793D01*
X156446079Y-69864549D01*
X156395902Y-69784693D01*
X156360977Y-69729110D01*
X156241390Y-69609523D01*
X156098190Y-69519544D01*
X155938559Y-69463687D01*
X155938558Y-69463686D01*
X155938556Y-69463686D01*
X155770499Y-69444750D01*
X155602443Y-69463686D01*
X155442810Y-69519544D01*
X155299608Y-69609524D01*
X155180024Y-69729108D01*
X155090044Y-69872310D01*
X155034186Y-70031943D01*
X155015250Y-70200000D01*
X140220000Y-70200000D01*
X140220000Y-67024000D01*
X140239685Y-66956961D01*
X140292489Y-66911206D01*
X140344000Y-66900000D01*
X143296000Y-66900000D01*
X143363039Y-66919685D01*
X143408794Y-66972489D01*
X143420000Y-67024000D01*
X143420000Y-68400000D01*
X151696305Y-68400000D01*
X151763344Y-68419685D01*
X151767428Y-68422425D01*
X151850464Y-68480567D01*
X151850465Y-68480567D01*
X151850466Y-68480568D01*
X152056704Y-68576739D01*
X152276508Y-68635635D01*
X152501900Y-68655354D01*
X152566969Y-68680806D01*
X152607948Y-68737397D01*
X152608134Y-68737927D01*
X152639542Y-68827687D01*
X152639544Y-68827690D01*
X152729523Y-68970890D01*
X152849110Y-69090477D01*
X152992310Y-69180456D01*
X153151941Y-69236313D01*
X153320000Y-69255249D01*
X153488059Y-69236313D01*
X153647690Y-69180456D01*
X153790890Y-69090477D01*
X153910477Y-68970890D01*
X154000456Y-68827690D01*
X154056313Y-68668059D01*
X154063982Y-68600000D01*
X154074110Y-68510116D01*
X154101177Y-68445702D01*
X154158772Y-68406147D01*
X154197330Y-68400000D01*
X154220000Y-68400000D01*
X154220000Y-67337730D01*
X154239685Y-67270691D01*
X154256319Y-67250049D01*
X154278678Y-67227690D01*
X154335478Y-67170890D01*
X154425457Y-67027690D01*
X154481314Y-66868059D01*
X154500250Y-66700000D01*
X154498503Y-66684497D01*
X155296826Y-66684497D01*
X155315762Y-66852553D01*
X155315762Y-66852555D01*
X155315763Y-66852556D01*
X155371620Y-67012187D01*
X155461599Y-67155387D01*
X155581186Y-67274974D01*
X155724386Y-67364953D01*
X155884017Y-67420810D01*
X156052076Y-67439746D01*
X156220135Y-67420810D01*
X156379766Y-67364953D01*
X156522966Y-67274974D01*
X156642553Y-67155387D01*
X156732532Y-67012187D01*
X156788389Y-66852556D01*
X156807325Y-66684497D01*
X156788389Y-66516438D01*
X156732532Y-66356807D01*
X156642553Y-66213607D01*
X156522966Y-66094020D01*
X156379766Y-66004041D01*
X156220135Y-65948184D01*
X156220134Y-65948183D01*
X156220132Y-65948183D01*
X156052076Y-65929247D01*
X155884019Y-65948183D01*
X155724386Y-66004041D01*
X155581184Y-66094021D01*
X155461600Y-66213605D01*
X155371620Y-66356807D01*
X155315762Y-66516440D01*
X155296826Y-66684497D01*
X154498503Y-66684497D01*
X154481314Y-66531941D01*
X154425457Y-66372310D01*
X154335478Y-66229110D01*
X154256318Y-66149950D01*
X154222834Y-66088626D01*
X154220000Y-66062269D01*
X154220000Y-65424000D01*
X154239685Y-65356961D01*
X154292489Y-65311206D01*
X154344000Y-65300000D01*
X158896000Y-65300000D01*
X158963039Y-65319685D01*
G37*
%TD.AperFunction*%
%TD*%
M02*
